{
.appVersion = "3134";
.formatVersion = 3;
customParameters = (
{
name = vendorID;
value = ITFO;
},
{
name = panose;
value = (
0,
0,
5,
0,
0,
0,
0,
0,
0,
0
);
},
{
name = unicodeRanges;
value = (
0,
1,
2,
15
);
},
{
name = codePageRanges;
value = (
"1252",
"1250",
"1254",
"1257",
"bit 29"
);
},
{
name = fsType;
value = (
);
},
{
name = glyphOrder;
value = (
.notdef,
.null,
CR,
space,
dvR,
dvKx,
dvGx,
dvJx,
uni20A8,
uni20B9,
uni200C,
uni200D,
uni25CC,
dvEyelash,
dvRashtrasign,
dvKx_RA,
dvGx_RA,
dvJx_RA,
dvKx_R,
dvGx_R,
dvJx_R,
dvKx_KxA,
dvKx_TA,
dvKx_PHA,
dvKx_PHxA,
dvKx_BA,
dvKx_MA,
dvJx_JxA,
dvJx_YA,
dvEyelash_YA,
dvEyelash_HA,
dvmII.aLong,
dvmII_Anusvara,
dvmII_Reph,
dvmII_Reph_Anusvara,
dvmII_Anusvara.aLong,
dvmII_Reph.aLong,
dvmII_Reph_Anusvara.aLong,
dvmE_Anusvara,
dvmE_Reph,
dvmE_Reph_Anusvara,
dvmAI_Anusvara,
dvmAI_Reph,
dvmAI_Reph_Anusvara,
dvmO_Anusvara,
dvmO_Reph,
dvmO_Reph_Anusvara,
dvmAU_Anusvara,
dvmAU_Reph,
dvmAU_Reph_Anusvara,
dvmEcandra_Anusvara,
dvmOcandra_Anusvara,
dvRA_mU,
dvRA_mUU,
dvmI.a01,
dvmI.a02,
dvmI.a03,
dvmI.a04,
dvmI.a05,
dvmI.a06,
dvmI.a07,
dvmI.a08,
dvmI.a09,
dvmI.a10,
dvmI.a11,
dvmI.a12,
dvmI.a13,
dvmI.a14,
dvmI.a15,
dvmI.a16,
dvmI.a17,
dvmI.a18,
dvmI.a19,
dvmI.a20,
dvmI.a21,
dvmI.a22,
dvmI.a23,
dvmI.a24,
exclam,
quotedbl,
numbersign,
dollar,
percent,
ampersand,
quotesingle,
parenleft,
parenright,
asterisk,
plus,
comma,
hyphen,
period,
slash,
zero,
one,
two,
three,
four,
five,
six,
seven,
eight,
nine,
colon,
semicolon,
less,
equal,
greater,
question,
at,
A,
B,
C,
D,
E,
F,
G,
H,
I,
J,
K,
L,
M,
N,
O,
P,
Q,
R,
S,
T,
U,
V,
W,
X,
Y,
Z,
bracketleft,
backslash,
bracketright,
asciicircum,
underscore,
grave,
a,
b,
c,
d,
e,
f,
g,
h,
i,
j,
k,
l,
m,
n,
o,
p,
q,
r,
s,
t,
u,
v,
w,
x,
y,
z,
braceleft,
bar,
braceright,
asciitilde,
uni00A0,
exclamdown,
cent,
sterling,
currency,
yen,
brokenbar,
section,
dieresis,
copyright,
ordfeminine,
guillemotleft,
logicalnot,
uni00AD,
registered,
macron,
degree,
plusminus,
uni00B2,
uni00B3,
acute,
uni00B5,

glyphs = (
{
glyphname = .notdef;
lastChange = "2022-10-20 15:44:45 +0000";
layers = (
{
layerId = m01;
shapes = (
{
closed = 1;
nodes = (
(-62,0,l),
(438,0,l),
(562,700,l),
(62,700,l)
);
},
{
closed = 1;
nodes = (
(95,605,l),
(220,350,l),
(5,95,l)
);
},
{
closed = 1;
nodes = (
(242,305,l),
(367,50,l),
(27,50,l)
);
},
{
closed = 1;
nodes = (
(473,650,l),
(258,395,l),
(133,650,l)
);
},
{
closed = 1;
nodes = (
(495,605,l),
(405,95,l),
(280,350,l)
);
}
);
userData = {
assembly = "NPUSHB[ ]	/* 56 values pushed */
15 14 13 8 6 5 6 2 3 1 76 4 1 1 0 3 2 1 3 103 5 1 2 0 0 2 87 5 1 2 2 0 95 0 0 2 0 79 7 7 0 0 12 11 7 9 7 9 0 3 0 3 17 6 6 23 
CALL[ ]	/* CallFunction */";
};
width = 500;
}
);
note = ".notdef";
},
{
glyphname = dvR;
lastChange = "2022-10-20 15:44:45 +0000";
layers = (
{
layerId = m01;
shapes = (
{
closed = 1;
nodes = (
(263,-290,l),
(349,-290,l),
(260,-91,l),
(176,-91,l)
);
},
{
closed = 1;
nodes = (
(51,670,l),
(437,670,l),
(421,574,ls),
(391,407,o),
(220,407,qs),
(115,407,l),
(80,207,ls),
(63,109,o),
(143,-9,o),
(240,-9,qs),
(329,-9,o),
(451,101,o),
(468,194,qs),
(471,211,l),
(391,211,l),
(387,192,ls),
(377,134,o),
(303,63,o),
(250,63,qs),
(194,63,o),
(150,139,o),
(161,202,qs),
(185,339,l),
(236,339,ls),
(350,339,o),
(483,460,o),
(504,574,qs),
(520,670,l),
(640,670,l),
(653,740,l),
(64,740,l)
);
}
);
userData = {
assembly = "NPUSHB[ ]	/* 85 values pushed */
0 5 3 4 3 5 4 128 10 1 1 6 0 6 1 0 128 0 0 0 132 11 1 9 8 1 2 7 9 2 103 0 7 0 3 5 7 3 105 0 4 6 6 4 89 0 4 4 6 97 0 6 4 6 81 4 4 0 0 4 34 4 34 33 32 30 28 25 23 20 19 16 14 11 9 6 5 0 3 0 3 17 12 6 23 
CALL[ ]	/* CallFunction */";
};
width = 535;
}
);
note = dvR;
},
{
glyphname = dvKx;
lastChange = "2022-10-20 15:44:45 +0000";
layers = (
{
layerId = m01;
shapes = (
{
closed = 1;
nodes = (
(486,0,l),
(543,322,ls),
(555,389,o),
(648,487,o),
(722,487,qs),
(785,487,o),
(854,401,o),
(841,330,q),
(926,330,l),
(938,397,o),
(903,501,o),
(818,559,o),
(758,559,qs),
(695,559,o),
(596,501,o),
(566,453,q),
(604,670,l),
(986,670,l),
(999,740,l),
(47,740,l),
(34,670,l),
(524,670,l),
(487,457,l),
(472,503,o),
(392,559,o),
(328,559,qs),
(265,559,o),
(157,503,o),
(83,399,o),
(71,330,qs),
(59,260,o),
(94,155,o),
(181,98,o),
(243,98,qs),
(309,98,o),
(410,155,o),
(442,202,q),
(406,0,l)
);
},
{
closed = 1;
nodes = (
(219,-95,o),
(257,-63,o),
(261,-40,qs),
(265,-16,o),
(239,17,o),
(215,17,qs),
(191,17,o),
(153,-16,o),
(149,-40,qs),
(145,-63,o),
(171,-95,o),
(195,-95,qs)
);
},
{
closed = 1;
nodes = (
(214,168,o),
(142,255,o),
(155,330,qs),
(168,401,o),
(272,487,o),
(338,487,qs),
(389,487,o),
(451,441,o),
(471,368,o),
(464,328,qs),
(457,289,o),
(410,216,o),
(333,168,o),
(282,168,qs)
);
}
);
userData = {
assembly = "NPUSHB[ ]	/* 100 values pushed */
21 14 2 6 7 0 1 12 6 2 76 0 6 7 12 7 6 12 128 0 8 9 10 9 8 10 128 0 3 4 1 2 1 3 2 103 5 1 1 11 1 7 6 1 7 105 14 1 12 0 0 9 12 0 105 0 9 8 10 9 89 0 9 9 10 97 13 1 10 9 10 81 50 50 38 38 50 63 50 62 58 56 38 49 38 48 44 42 19 34 19 35 17 17 19 38 34 15 6 31 
CALL[ ]	/* CallFunction */";
};
width = 738;
}
);
note = dvKx;
},
{
glyphname = dvGx;
lastChange = "2022-10-20 15:44:45 +0000";
layers = (
{
layerId = m01;
shapes = (
{
closed = 1;
nodes = (
(23,670,l),
(345,670,l),
(297,397,ls),
(290,353,o),
(242,296,o),
(196,296,qs),
(153,296,o),
(125,353,o),
(132,394,qs),
(137,425,l),
(55,425,l),
(50,395,ls),
(36,317,o),
(106,224,o),
(187,224,qs),
(270,224,o),
(368,322,o),
(382,400,qs),
(429,670,l),
(556,670,l),
(569,740,l),
(36,740,l)
);
},
{
closed = 1;
nodes = (
(180,28,o),
(218,60,o),
(222,83,qs),
(226,107,o),
(200,140,o),
(176,140,qs),
(152,140,o),
(114,107,o),
(110,83,qs),
(106,60,o),
(132,28,o),
(156,28,qs)
);
}
);
userData = {
assembly = "NPUSHB[ ]	/* 65 values pushed */
0 2 0 3 0 2 3 128 8 1 5 4 1 0 2 5 0 103 0 3 0 1 6 3 1 105 0 6 7 7 6 89 0 6 6 7 97 9 1 7 6 7 81 22 22 0 0 22 33 22 32 28 26 0 21 0 21 19 35 19 35 17 10 6 27 
CALL[ ]	/* CallFunction */";
};
width = 480;
}
);
note = dvGx;
},
{
glyphname = dvJx;
lastChange = "2022-10-20 15:44:45 +0000";
layers = (
{
layerId = m01;
shapes = (
{
closed = 1;
nodes = (
(320,131,o),
(445,242,o),
(461,332,qs),
(477,427,l),
(709,427,l),
(722,499,l),
(409,499,l),
(380,334,ls),
(370,276,o),
(296,204,o),
(244,204,qs),
(194,204,o),
(148,276,o),
(158,334,qs),
(187,499,l),
(103,499,l),
(74,332,ls),
(58,242,o),
(140,131,o),
(230,131,qs)
);
},
{
closed = 1;
nodes = (
(31,670,l),
(752,670,l),
(765,740,l),
(44,740,l)
);
},
{
closed = 1;
nodes = (
(224,-60,o),
(262,-28,o),
(266,-5,qs),
(270,19,o),
(244,52,o),
(220,52,qs),
(196,52,o),
(158,19,o),
(154,-5,qs),
(150,-28,o),
(176,-60,o),
(200,-60,qs)
);
}
);
userData = {
assembly = "NPUSHB[ ]	/* 73 values pushed */
10 1 6 0 5 0 6 5 103 2 1 0 0 3 1 0 3 103 0 1 9 1 4 7 1 4 105 0 7 8 8 7 89 0 7 7 8 97 11 1 8 7 8 81 24 24 20 20 0 0 24 35 24 34 30 28 20 23 20 23 22 21 0 19 0 18 17 19 35 19 12 6 26 
CALL[ ]	/* CallFunction */";
};
width = 546;
}
);
note = dvJx;
},
{
glyphname = uni20A8;
lastChange = "2022-10-20 15:44:45 +0000";
layers = (
{
layerId = m01;
shapes = (
{
closed = 1;
nodes = (
(465,431,o),
(380,360,o),
(305,360,qs),
(171,360,l),
(218,625,l),
(352,625,ls),
(428,625,o),
(487,555,o),
(476,492,qs)
);
},
{
closed = 1;
nodes = (
(16,0,l),
(107,0,l),
(158,288,l),
(248,288,l),
(381,0,l),
(492,0,l),
(353,292,l),
(447,307,o),
(556,417,o),
(569,492,qs),
(585,582,o),
(482,697,o),
(364,697,qs),
(139,697,l)
);
},
{
closed = 1;
nodes = (
(612,346,o),
(653,287,o),
(720,261,o),
(778,247,qs),
(825,236,o),
(878,217,o),
(908,180,o),
(903,150,qs),
(896,111,o),
(830,64,o),
(777,64,qs),
(723,64,o),
(668,120,o),
(672,166,q),
(578,166,l),
(570,83,o),
(670,-9,o),
(764,-9,qs),
(822,-9,o),
(920,31,o),
(985,103,o),
(992,148,qs),
(1002,201,o),
(961,263,o),
(891,291,o),
(833,304,qs),
(786,315,o),
(735,333,o),
(705,369,o),
(711,399,qs),
(717,437,o),
(784,484,o),
(835,484,qs),
(889,484,o),
(938,429,o),
(934,383,q),
(1027,383,l),
(1036,464,o),
(943,557,o),
(854,557,qs),
(792,557,o),
(691,514,o),
(629,441,o),
(621,396,qs)
);
}
);
userData = {
assembly = "PUSHB[ ]	/* 6 values pushed */
15 1 4 1 1 76 
MPPEM[ ]	/* MeasurePixelPerEm */
PUSHB[ ]	/* 1 value pushed */
25 
LT[ ]	/* LessThan */
IF[ ]	/* If */
NPUSHB[ ]	/* 58 values pushed */
0 7 8 1 8 7 1 128 0 10 4 11 4 10 11 128 0 1 0 4 10 1 4 103 0 0 0 2 95 12 1 2 2 28 77 0 8 8 6 97 0 6 6 31 77 0 11 11 3 95 9 5 2 3 3 29 3 78 
ELSE[ ]	/* Else */
MPPEM[ ]	/* MeasurePixelPerEm */
PUSHB[ ]	/* 1 value pushed */
27 
LT[ ]	/* LessThan */
IF[ ]	/* If */
NPUSHB[ ]	/* 56 values pushed */
0 7 8 1 8 7 1 128 0 10 4 11 4 10 11 128 12 1 2 0 0 6 2 0 103 0 1 0 4 10 1 4 103 0 8 8 6 97 0 6 6 31 77 0 11 11 3 95 9 5 2 3 3 29 3 78 
ELSE[ ]	/* Else */
MPPEM[ ]	/* MeasurePixelPerEm */
PUSHB[ ]	/* 1 value pushed */
44 
LT[ ]	/* LessThan */
IF[ ]	/* If */
NPUSHB[ ]	/* 60 values pushed */
0 7 8 1 8 7 1 128 0 10 4 11 4 10 11 128 12 1 2 0 0 6 2 0 103 0 1 0 4 10 1 4 103 0 8 8 6 97 0 6 6 31 77 5 1 3 3 29 77 0 11 11 9 97 0 9 9 29 9 78 
ELSE[ ]	/* Else */
NPUSHB[ ]	/* 58 values pushed */
0 7 8 1 8 7 1 128 0 10 4 11 4 10 11 128 12 1 2 0 0 6 2 0 103 0 6 0 8 7 6 8 105 0 1 0 4 10 1 4 103 5 1 3 3 29 77 0 11 11 9 97 0 9 9 29 9 78 
EIF[ ]	/* EndIf */
EIF[ ]	/* EndIf */
EIF[ ]	/* EndIf */
NPUSHB[ ]	/* 29 values pushed */
10 9 56 54 52 51 49 47 34 32 30 29 27 25 21 20 19 18 17 16 9 22 10 22 33 33 13 8 24 
CALL[ ]	/* CallFunction */";
};
width = 1109;
}
);
note = uni20A8;
unicode = 8360;
},
{
glyphname = uni20B9;
lastChange = "2022-10-20 15:44:45 +0000";
layers = (
{
layerId = m01;
shapes = (
{
closed = 1;
nodes = (
(102,631,l),
(431,631,l),
(415,541,l),
(412,523,l),
(83,523,l),
(71,457,l),
(396,457,l),
(380,404,o),
(321,355,o),
(209,340,o),
(95,340,q),
(70,199,ls),
(53,100,o),
(137,-10,o),
(236,-10,qs),
(332,-10,o),
(454,92,o),
(472,192,q),
(388,192,l),
(365,62,o),
(249,62,qs),
(131,62,o),
(155,197,qs),
(169,276,l),
(264,276,o),
(385,310,o),
(460,388,o),
(481,457,q),
(615,457,l),
(627,523,l),
(498,523,l),
(501,540,l),
(517,631,l),
(646,631,l),
(657,698,l),
(113,698,l)
);
}
);
userData = {
assembly = "MPPEM[ ]	/* MeasurePixelPerEm */
PUSHB[ ]	/* 1 value pushed */
29 
LT[ ]	/* LessThan */
IF[ ]	/* If */
NPUSHB[ ]	/* 48 values pushed */
0 5 4 3 4 5 3 131 0 3 0 7 2 3 7 109 10 1 0 12 1 11 0 11 99 0 4 4 6 97 0 6 6 21 77 8 1 2 2 1 95 9 1 1 1 20 1 78 
ELSE[ ]	/* Else */
NPUSHB[ ]	/* 46 values pushed */
0 5 4 3 4 5 3 131 0 3 0 7 2 3 7 109 8 1 2 9 1 1 0 2 1 107 10 1 0 12 1 11 0 11 99 0 4 4 6 97 0 6 6 21 4 78 
EIF[ ]	/* EndIf */
NPUSHB[ ]	/* 22 values pushed */
0 0 0 35 0 35 34 33 31 30 19 19 34 17 34 19 17 18 17 13 7 31 
CALL[ ]	/* CallFunction */";
};
width = 635;
}
);
note = uni20B9;
unicode = 8377;
},
{
glyphname = uni200C;
lastChange = "2022-10-20 15:44:45 +0000";
layers = (
{
layerId = m01;
shapes = (
{
closed = 1;
nodes = (
(-68,-230,l),
(116,811,l),
(69,811,l),
(-115,-230,l)
);
}
);
userData = {
assembly = "NPUSHB[ ]	/* 21 values pushed */
0 0 1 1 0 87 0 0 0 1 95 0 1 0 1 79 17 16 2 8 24 
CALL[ ]	/* CallFunction */";
};
width = 0;
}
);
note = uni200C;
unicode = 8204;
},
{
glyphname = uni200D;
lastChange = "2022-10-20 15:44:45 +0000";
layers = (
{
layerId = m01;
shapes = (
{
closed = 1;
nodes = (
(181,593,l),
(102,688,l),
(215,784,l),
(188,816,l),
(75,721,l),
(-3,816,l),
(-42,783,l),
(37,688,l),
(-73,595,l),
(-46,562,l),
(36,635,l),
(-116,-230,l),
(-69,-230,l),
(83,635,l),
(142,560,l)
);
}
);
userData = {
assembly = "NPUSHB[ ]	/* 24 values pushed */
14 13 12 11 10 9 8 7 6 5 4 3 0 13 0 74 0 0 0 118 17 1 8 23 
CALL[ ]	/* CallFunction */";
};
width = 0;
}
);
note = uni200D;
unicode = 8205;
},
{
glyphname = uni25CC;
lastChange = "2022-10-20 15:44:45 +0000";
layers = (
{
layerId = m01;
shapes = (
{
closed = 1;
nodes = (
(586,428,o),
(566,451,o),
(547,451,qs),
(528,451,o),
(500,428,o),
(496,409,qs),
(493,390,o),
(513,367,o),
(532,367,qs),
(551,367,o),
(579,390,o),
(582,409,qs)
);
},
{
closed = 1;
nodes = (
(159,142,o),
(139,165,o),
(120,165,qs),
(101,165,o),
(73,142,o),
(70,123,qs),
(67,104,o),
(86,81,o),
(105,81,qs),
(124,81,o),
(153,104,o),
(156,123,qs)
);
},
{
closed = 1;
nodes = (
(244,66,o),
(224,89,o),
(205,89,qs),
(186,89,o),
(158,66,o),
(154,47,qs),
(151,28,o),
(171,5,o),
(190,5,qs),
(209,5,o),
(237,28,o),
(240,47,qs)
);
},
{
closed = 1;
nodes = (
(134,255,o),
(114,278,o),
(95,278,qs),
(76,278,o),
(48,255,o),
(45,236,qs),
(41,217,o),
(61,194,o),
(80,194,qs),
(99,194,o),
(127,217,o),
(131,236,qs)
);
},
{
closed = 1;
nodes = (
(365,52,o),
(345,75,o),
(326,75,qs),
(307,75,o),
(279,52,o),
(276,33,qs),
(273,14,o),
(293,-9,o),
(312,-9,qs),
(331,-9,o),
(359,14,o),
(362,33,qs)
);
},
{
closed = 1;
nodes = (
(170,376,o),
(151,399,o),
(132,399,qs),
(113,399,o),
(84,376,o),
(81,357,qs),
(78,338,o),
(98,315,o),
(117,315,qs),
(136,315,o),
(164,338,o),
(167,357,qs)
);
},
{
closed = 1;
nodes = (
(488,98,o),
(469,121,o),
(450,121,qs),
(431,121,o),
(402,98,o),
(399,79,qs),
(396,60,o),
(416,37,o),
(435,37,qs),
(454,37,o),
(482,60,o),
(485,79,qs)
);
},
{
closed = 1;
nodes = (
(264,475,o),
(244,498,o),
(225,498,qs),
(206,498,o),
(178,475,o),
(175,456,qs),
(171,437,o),
(191,414,o),
(210,414,qs),
(229,414,o),
(257,437,o),
(261,456,qs)
);
},
{
closed = 1;
nodes = (
(578,194,o),
(558,217,o),
(539,217,qs),
(520,217,o),
(492,194,o),
(489,175,qs),
(486,156,o),
(506,133,o),
(525,133,qs),
(544,133,o),
(572,156,o),
(575,175,qs)
);
},
{
closed = 1;
nodes = (
(388,517,o),
(368,540,o),
(349,540,qs),
(330,540,o),
(302,517,o),
(299,498,qs),
(296,479,o),
(316,456,o),
(335,456,qs),
(354,456,o),
(382,479,o),
(385,498,qs)
);
},
{
closed = 1;
nodes = (
(610,314,o),
(590,337,o),
(571,337,qs),
(552,337,o),
(524,314,o),
(520,295,qs),
(517,276,o),
(537,253,o),
(556,253,qs),
(575,253,o),
(603,276,o),
(606,295,qs)
);
},
{
closed = 1;
nodes = (
(507,502,o),
(487,525,o),
(468,525,qs),
(449,525,o),
(421,502,o),
(417,483,qs),
(414,464,o),
(434,441,o),
(453,441,qs),
(472,441,o),
(500,464,o),
(503,483,qs)
);
}
);
userData = {
assembly = "NPUSHB[ ]	/* 146 values pushed */
0 19 0 18 1 19 18 105 0 23 0 22 14 23 22 105 0 15 0 14 11 15 14 105 0 1 0 0 21 1 0 105 0 11 0 10 7 11 10 105 0 21 0 20 17 21 20 105 0 7 0 6 3 7 6 105 0 17 0 16 13 17 16 105 0 3 0 2 9 3 2 105 0 9 12 8 9 89 0 13 0 12 4 13 12 105 0 5 0 4 8 5 4 105 0 9 9 8 97 0 8 9 8 81 141 139 135 133 129 127 123 121 117 115 111 109 105 103 99 97 93 91 87 85 81 79 75 73 69 67 63 61 57 55 36 36 36 36 36 36 36 36 33 24 6 31 
CALL[ ]	/* CallFunction */";
};
width = 651;
}
);
note = uni25CC;
unicode = 9676;
},
{
glyphname = dvEyelash;
lastChange = "2022-10-20 15:44:45 +0000";
layers = (
{
layerId = m01;
shapes = (
{
closed = 1;
nodes = (
(331,435,ls),
(289,424,o),
(255,424,qs),
(187,424,o),
(100,488,o),
(111,558,q),
(31,558,l),
(15,457,o),
(136,362,o),
(232,362,qs),
(267,362,o),
(333,376,o),
(355,387,q),
(334,436,l)
);
},
{
closed = 1;
nodes = (
(-6,670,l),
(387,670,l),
(399,740,l),
(6,740,l)
);
}
);
userData = {
assembly = "NPUSHB[ ]	/* 52 values pushed */
12 1 2 1 1 76 0 1 3 2 3 1 2 128 5 1 4 0 3 1 4 3 103 0 2 0 0 2 89 0 2 2 0 97 0 0 2 0 81 14 14 14 17 14 17 20 34 18 34 6 6 26 
CALL[ ]	/* CallFunction */";
};
width = 294;
}
);
note = dvEyelash;
},
{
glyphname = dvRashtrasign;
lastChange = "2022-10-20 15:44:45 +0000";
layers = (
{
layerId = m01;
shapes = (
{
closed = 1;
nodes = (
(-478,-97,l),
(-391,-97,l),
(-230,50,l),
(-121,-97,l),
(-34,-97,l),
(-168,82,l),
(-280,82,l)
);
}
);
userData = {
assembly = "NPUSHB[ ]	/* 28 values pushed */
3 1 0 2 1 76 3 1 2 0 2 133 1 1 0 0 118 0 0 0 6 0 6 18 17 4 6 24 
CALL[ ]	/* CallFunction */";
};
width = 0;
}
);
note = dvRashtrasign;
},
{
glyphname = dvKx_RA;
lastChange = "2022-10-20 15:44:45 +0000";
layers = (
{
layerId = m01;
shapes = (
{
closed = 1;
nodes = (
(530,0,l),
(587,322,ls),
(594,364,o),
(639,439,o),
(715,487,o),
(765,487,qs),
(829,487,o),
(898,401,o),
(885,330,qs),
(872,256,o),
(775,171,o),
(712,171,qs),
(686,171,o),
(671,175,q),
(659,109,l),
(683,102,o),
(720,102,qs),
(780,102,o),
(884,157,o),
(957,261,o),
(969,332,qs),
(981,398,o),
(946,501,o),
(860,559,o),
(800,559,qs),
(737,559,o),
(642,503,o),
(610,456,q),
(648,670,l),
(1125,670,l),
(1137,740,l),
(42,740,l),
(30,670,l),
(567,670,l),
(530,458,l),
(515,504,o),
(434,559,o),
(370,559,qs),
(307,559,o),
(200,503,o),
(126,399,o),
(114,330,qs),
(102,262,o),
(139,160,o),
(226,104,o),
(287,104,qs),
(289,104,l),
(108,-46,l),
(199,-46,l),
(433,151,l),
(463,172,o),
(485,205,q),
(449,0,l)
);
},
{
closed = 1;
nodes = (
(256,168,o),
(185,255,o),
(198,330,qs),
(211,401,o),
(315,487,o),
(381,487,qs),
(432,487,o),
(494,441,o),
(514,368,o),
(507,328,qs),
(499,282,o),
(439,200,o),
(392,181,q),
(385,184,l),
(374,175,l),
(352,168,o),
(324,168,qs)
);
},
{
closed = 1;
nodes = (
(49,9,o),
(85,39,o),
(89,61,qs),
(93,84,o),
(68,114,o),
(46,114,qs),
(24,114,o),
(-12,84,o),
(-16,61,qs),
(-20,39,o),
(5,9,o),
(27,9,qs)
);
}
);
userData = {
assembly = "NPUSHB[ ]	/* 14 values pushed */
55 38 24 17 0 5 8 9 37 1 1 13 2 76 
MPPEM[ ]	/* MeasurePixelPerEm */
PUSHB[ ]	/* 1 value pushed */
9 
LT[ ]	/* LessThan */
IF[ ]	/* If */
NPUSHB[ ]	/* 59 values pushed */
0 10 14 0 14 10 0 128 0 0 0 132 0 4 5 1 3 2 4 3 103 6 1 2 11 1 9 8 2 9 105 0 13 1 14 13 89 15 12 2 8 7 1 1 14 8 1 105 0 13 13 14 97 16 1 14 13 14 81 
ELSE[ ]	/* Else */
MPPEM[ ]	/* MeasurePixelPerEm */
PUSHB[ ]	/* 1 value pushed */
10 
LT[ ]	/* LessThan */
IF[ ]	/* If */
NPUSHB[ ]	/* 64 values pushed */
0 10 14 0 14 10 0 128 0 0 0 132 0 4 5 1 3 2 4 3 103 6 1 2 11 1 9 8 2 9 105 0 8 12 1 8 89 0 13 1 14 13 89 15 1 12 7 1 1 14 12 1 105 0 13 13 14 97 16 1 14 13 14 81 
ELSE[ ]	/* Else */
NPUSHB[ ]	/* 59 values pushed */
0 10 14 0 14 10 0 128 0 0 0 132 0 4 5 1 3 2 4 3 103 6 1 2 11 1 9 8 2 9 105 0 13 1 14 13 89 15 12 2 8 7 1 1 14 8 1 105 0 13 13 14 97 16 1 14 13 14 81 
EIF[ ]	/* EndIf */
EIF[ ]	/* EndIf */
NPUSHB[ ]	/* 32 values pushed */
70 70 53 53 70 81 70 80 76 74 53 69 53 68 64 62 52 51 47 45 35 38 35 17 17 19 38 33 19 17 6 31 
CALL[ ]	/* CallFunction */";
};
width = 1042;
}
);
note = dvKx_RA;
},
{
glyphname = dvGx_RA;
lastChange = "2022-10-20 15:44:45 +0000";
layers = (
{
layerId = m01;
shapes = (
{
closed = 1;
nodes = (
(496,0,l),
(577,0,l),
(695,670,l),
(827,670,l),
(839,740,l),
(40,740,l),
(28,670,l),
(350,670,l),
(311,449,ls),
(303,406,o),
(256,349,o),
(210,349,qs),
(167,349,o),
(138,406,o),
(146,448,qs),
(151,479,l),
(69,479,l),
(64,448,ls),
(50,371,o),
(120,278,o),
(201,278,qs),
(284,278,o),
(382,375,o),
(395,453,qs),
(434,670,l),
(612,670,l),
(553,337,l),
(126,-20,l),
(222,-20,l),
(540,251,l)
);
},
{
closed = 1;
nodes = (
(66,56,o),
(102,86,o),
(106,108,qs),
(110,131,o),
(85,161,o),
(63,161,qs),
(41,161,o),
(5,131,o),
(1,108,qs),
(-3,86,o),
(22,56,o),
(44,56,qs)
);
}
);
userData = {
assembly = "NPUSHB[ ]	/* 85 values pushed */
2 1 2 4 29 1 9 2 2 76 0 3 1 4 1 3 4 128 0 8 10 0 10 8 0 128 0 0 0 132 0 6 7 5 2 1 3 6 1 103 0 4 0 2 9 4 2 105 0 9 10 10 9 89 0 9 9 10 97 11 1 10 9 10 81 30 30 30 41 30 40 36 34 17 17 17 19 35 19 35 18 16 12 6 31 
CALL[ ]	/* CallFunction */";
};
width = 745;
}
);
note = dvGx_RA;
},
{
glyphname = dvJx_RA;
lastChange = "2022-10-20 15:44:45 +0000";
layers = (
{
layerId = m01;
shapes = (
{
closed = 1;
nodes = (
(29,670,l),
(712,670,l),
(682,501,l),
(407,501,l),
(390,404,ls),
(380,345,o),
(306,274,o),
(254,274,qs),
(203,274,o),
(158,345,o),
(168,404,qs),
(185,501,l),
(101,501,l),
(84,402,ls),
(68,311,o),
(150,200,o),
(240,200,qs),
(329,200,o),
(452,312,o),
(468,402,qs),
(473,433,l),
(670,433,l),
(651,327,l),
(235,-34,l),
(328,-34,l),
(637,242,l),
(595,0,l),
(673,0,l),
(791,670,l),
(923,670,l),
(935,740,l),
(41,740,l)
);
},
{
closed = 1;
nodes = (
(102,-9,o),
(137,21,o),
(141,43,qs),
(145,66,o),
(121,96,o),
(99,96,qs),
(77,96,o),
(40,66,o),
(36,43,qs),
(32,21,o),
(58,-9,o),
(80,-9,qs)
);
}
);
userData = {
assembly = "NPUSHB[ ]	/* 93 values pushed */
8 1 6 3 5 1 4 6 2 76 0 1 10 11 10 1 11 128 0 2 11 2 134 12 1 9 8 1 0 5 9 0 103 7 1 5 0 3 6 5 3 103 0 6 0 4 10 6 4 105 0 10 1 11 10 89 0 10 10 11 97 13 1 11 10 11 81 32 32 0 0 32 43 32 42 38 36 0 31 0 31 17 19 35 19 35 18 18 17 17 14 6 31 
CALL[ ]	/* CallFunction */";
};
width = 840;
}
);
note = dvJx_RA;
},
{
glyphname = dvKx_R;
lastChange = "2022-10-20 15:44:45 +0000";
layers = (
{
layerId = m01;
shapes = (
{
closed = 1;
nodes = (
(530,0,l),
(587,322,ls),
(594,364,o),
(639,439,o),
(715,487,o),
(765,487,qs),
(829,487,o),
(898,401,o),
(885,330,q),
(969,330,l),
(981,397,o),
(946,501,o),
(860,559,o),
(800,559,qs),
(737,559,o),
(642,503,o),
(610,456,q),
(648,670,l),
(1029,670,l),
(1041,740,l),
(42,740,l),
(30,670,l),
(567,670,l),
(530,458,l),
(515,504,o),
(434,559,o),
(370,559,qs),
(307,559,o),
(200,503,o),
(126,399,o),
(114,330,qs),
(102,262,o),
(139,160,o),
(226,104,o),
(287,104,qs),
(289,104,l),
(108,-46,l),
(199,-46,l),
(433,151,l),
(463,172,o),
(485,205,q),
(449,0,l)
);
},
{
closed = 1;
nodes = (
(256,168,o),
(185,255,o),
(198,330,qs),
(211,401,o),
(315,487,o),
(381,487,qs),
(432,487,o),
(494,441,o),
(514,368,o),
(507,328,qs),
(499,282,o),
(439,200,o),
(392,181,q),
(385,184,l),
(374,175,l),
(352,168,o),
(324,168,qs)
);
},
{
closed = 1;
nodes = (
(49,9,o),
(85,39,o),
(89,61,qs),
(93,84,o),
(68,114,o),
(46,114,qs),
(24,114,o),
(-12,84,o),
(-16,61,qs),
(-20,39,o),
(5,9,o),
(27,9,qs)
);
}
);
userData = {
assembly = "NPUSHB[ ]	/* 107 values pushed */
24 17 2 7 8 44 0 2 11 7 2 76 0 7 8 11 8 7 11 128 0 9 13 0 13 9 0 128 0 0 0 132 0 4 5 1 3 2 4 3 103 6 1 2 10 1 8 7 2 8 105 0 12 1 13 12 89 14 1 11 0 1 13 11 1 105 0 12 12 13 97 15 1 13 12 13 81 59 59 42 42 59 70 59 69 65 63 42 58 42 57 53 51 41 40 34 19 35 17 17 19 38 33 19 16 6 31 
CALL[ ]	/* CallFunction */";
};
width = 785;
}
);
note = dvKx_R;
},
{
glyphname = dvGx_R;
lastChange = "2022-10-20 15:44:45 +0000";
layers = (
{
layerId = m01;
shapes = (
{
closed = 1;
nodes = (
(556,265,l),
(572,353,l),
(126,-20,l),
(222,-20,l)
);
},
{
closed = 1;
nodes = (
(28,670,l),
(350,670,l),
(311,449,ls),
(303,406,o),
(256,349,o),
(210,349,qs),
(167,349,o),
(138,406,o),
(146,448,qs),
(151,479,l),
(69,479,l),
(64,448,ls),
(50,371,o),
(120,278,o),
(201,278,qs),
(284,278,o),
(382,375,o),
(395,453,qs),
(434,670,l),
(628,670,l),
(640,740,l),
(40,740,l)
);
},
{
closed = 1;
nodes = (
(66,56,o),
(102,86,o),
(106,108,qs),
(110,131,o),
(85,161,o),
(63,161,qs),
(41,161,o),
(5,131,o),
(1,108,qs),
(-3,86,o),
(22,56,o),
(44,56,qs)
);
}
);
userData = {
assembly = "NPUSHB[ ]	/* 92 values pushed */
1 1 4 3 2 1 7 2 2 76 0 3 1 4 1 3 4 128 9 1 0 8 0 134 10 1 6 5 1 1 3 6 1 103 0 4 0 2 7 4 2 105 0 7 8 8 7 89 0 7 7 8 97 11 1 8 7 8 81 26 26 4 4 0 0 26 37 26 36 32 30 4 25 4 25 24 23 20 18 15 14 11 9 6 5 0 3 0 3 12 6 22 
CALL[ ]	/* CallFunction */";
};
width = 480;
}
);
note = dvGx_R;
},
{
glyphname = dvJx_R;
lastChange = "2022-10-20 15:44:45 +0000";
layers = (
{
layerId = m01;
shapes = (
{
closed = 1;
nodes = (
(235,-34,l),
(328,-34,l),
(681,281,l),
(696,366,l)
);
},
{
closed = 1;
nodes = (
(29,670,l),
(750,670,l),
(762,740,l),
(41,740,l)
);
},
{
closed = 1;
nodes = (
(329,200,o),
(452,312,o),
(468,402,qs),
(473,430,l),
(708,430,l),
(720,501,l),
(407,501,l),
(390,404,ls),
(380,345,o),
(306,274,o),
(254,274,qs),
(203,274,o),
(158,345,o),
(168,404,qs),
(185,501,l),
(101,501,l),
(84,402,ls),
(68,311,o),
(150,200,o),
(240,200,qs)
);
},
{
closed = 1;
nodes = (
(102,-9,o),
(137,21,o),
(141,43,qs),
(145,66,o),
(121,96,o),
(99,96,qs),
(77,96,o),
(40,66,o),
(36,43,qs),
(32,21,o),
(58,-9,o),
(80,-9,qs)
);
}
);
userData = {
assembly = "NPUSHB[ ]	/* 89 values pushed */
3 0 2 4 6 1 76 0 0 9 0 134 10 1 2 0 1 3 2 1 103 5 1 3 0 6 4 3 6 103 0 4 11 1 7 8 4 7 105 0 8 9 9 8 89 0 8 8 9 97 12 1 9 8 9 81 28 28 8 8 4 4 28 39 28 38 34 32 8 27 8 26 23 22 21 20 17 15 12 11 4 7 4 7 19 17 13 6 24 
CALL[ ]	/* CallFunction */";
};
width = 546;
}
);
note = dvJx_R;
},
{
glyphname = dvKx_KxA;
lastChange = "2022-10-20 15:44:45 +0000";
layers = (
{
layerId = m01;
shapes = (
{
closed = 1;
nodes = (
(219,-95,o),
(257,-63,o),
(261,-40,qs),
(265,-16,o),
(239,17,o),
(215,17,qs),
(191,17,o),
(153,-16,o),
(149,-40,qs),
(145,-63,o),
(171,-95,o),
(195,-95,qs)
);
},
{
closed = 1;
nodes = (
(977,-95,o),
(1015,-63,o),
(1019,-40,qs),
(1023,-16,o),
(997,17,o),
(973,17,qs),
(949,17,o),
(911,-16,o),
(907,-40,qs),
(903,-63,o),
(929,-95,o),
(953,-95,qs)
);
},
{
closed = 1;
nodes = (
(214,168,o),
(142,255,o),
(155,330,qs),
(168,401,o),
(272,487,o),
(338,487,qs),
(389,487,o),
(451,441,o),
(471,368,o),
(464,328,qs),
(457,289,o),
(410,216,o),
(333,168,o),
(282,168,qs)
);
},
{
closed = 1;
nodes = (
(971,168,o),
(899,255,o),
(912,330,qs),
(925,401,o),
(1029,487,o),
(1095,487,qs),
(1146,487,o),
(1208,441,o),
(1228,368,o),
(1221,328,qs),
(1214,289,o),
(1167,216,o),
(1090,168,o),
(1039,168,qs)
);
},
{
closed = 1;
nodes = (
(1281,670,l),
(1244,457,l),
(1229,503,o),
(1149,559,o),
(1085,559,qs),
(1028,559,o),
(929,513,o),
(892,470,q),
(876,513,o),
(804,559,o),
(752,559,qs),
(689,559,o),
(596,504,o),
(567,458,q),
(604,670,l)
);
},
{
closed = 1;
nodes = (
(1243,0,l),
(1300,322,ls),
(1312,389,o),
(1405,487,o),
(1479,487,qs),
(1542,487,o),
(1611,401,o),
(1598,330,qs),
(1585,256,o),
(1489,171,o),
(1426,171,qs),
(1400,171,o),
(1385,175,q),
(1373,109,l),
(1397,102,o),
(1434,102,qs),
(1494,102,o),
(1599,157,o),
(1671,261,o),
(1684,332,qs),
(1695,398,o),
(1660,501,o),
(1575,559,o),
(1515,559,qs),
(1452,559,o),
(1353,501,o),
(1323,453,q),
(1361,670,l),
(1839,670,l),
(1852,740,l),
(47,740,l),
(34,670,l),
(524,670,l),
(487,457,l),
(472,503,o),
(392,559,o),
(328,559,qs),
(265,559,o),
(157,503,o),
(83,399,o),
(71,330,qs),
(59,260,o),
(94,155,o),
(181,98,o),
(243,98,qs),
(309,98,o),
(410,155,o),
(442,202,q),
(406,0,l),
(486,0,l),
(543,322,ls),
(555,390,o),
(642,487,o),
(715,487,qs),
(778,487,o),
(841,401,o),
(828,330,qs),
(816,260,o),
(851,155,o),
(938,98,o),
(1000,98,qs),
(1066,98,o),
(1167,155,o),
(1199,202,q),
(1163,0,l)
);
}
);
userData = {
assembly = "MPPEM[ ]	/* MeasurePixelPerEm */
PUSHB[ ]	/* 1 value pushed */
9 
LT[ ]	/* LessThan */
IF[ ]	/* If */
NPUSHB[ ]	/* 17 values pushed */
118 104 97 83 67 64 58 52 8 5 4 117 1 20 5 2 76 
ELSE[ ]	/* Else */
MPPEM[ ]	/* MeasurePixelPerEm */
PUSHB[ ]	/* 1 value pushed */
10 
LT[ ]	/* LessThan */
IF[ ]	/* If */
NPUSHB[ ]	/* 17 values pushed */
118 104 97 83 67 64 58 52 8 21 4 117 1 20 5 2 76 
ELSE[ ]	/* Else */
MPPEM[ ]	/* MeasurePixelPerEm */
PUSHB[ ]	/* 1 value pushed */
11 
LT[ ]	/* LessThan */
IF[ ]	/* If */
NPUSHB[ ]	/* 17 values pushed */
118 104 97 83 67 64 58 52 8 5 4 117 1 11 5 2 76 
ELSE[ ]	/* Else */
NPUSHB[ ]	/* 17 values pushed */
118 104 97 83 67 64 58 52 8 5 4 117 1 20 5 2 76 
EIF[ ]	/* EndIf */
EIF[ ]	/* EndIf */
EIF[ ]	/* EndIf */
MPPEM[ ]	/* MeasurePixelPerEm */
PUSHB[ ]	/* 1 value pushed */
9 
LT[ ]	/* LessThan */
IF[ ]	/* If */
NPUSHB[ ]	/* 73 values pushed */
23 1 13 0 1 0 13 1 128 0 17 18 16 2 10 8 17 10 103 19 15 9 3 8 22 12 6 3 4 5 8 4 105 0 20 11 5 20 89 21 27 7 26 4 5 14 1 11 0 5 11 105 2 1 0 13 1 0 89 2 1 0 0 1 97 25 3 24 3 1 0 1 81 
ELSE[ ]	/* Else */
MPPEM[ ]	/* MeasurePixelPerEm */
PUSHB[ ]	/* 1 value pushed */
10 
LT[ ]	/* LessThan */
IF[ ]	/* If */
NPUSHB[ ]	/* 74 values pushed */
23 1 13 0 1 0 13 1 128 0 17 18 16 2 10 8 17 10 103 19 15 9 3 8 22 12 6 3 4 21 8 4 105 0 21 0 20 11 21 20 105 27 7 26 3 5 14 1 11 0 5 11 105 2 1 0 13 1 0 89 2 1 0 0 1 97 25 3 24 3 1 0 1 81 
ELSE[ ]	/* Else */
MPPEM[ ]	/* MeasurePixelPerEm */
PUSHB[ ]	/* 1 value pushed */
11 
LT[ ]	/* LessThan */
IF[ ]	/* If */
NPUSHB[ ]	/* 68 values pushed */
23 1 13 0 1 0 13 1 128 0 17 18 16 2 10 8 17 10 103 19 15 9 3 8 22 12 6 3 4 5 8 4 105 21 27 7 26 4 5 20 14 2 11 0 5 11 105 2 1 0 13 1 0 89 2 1 0 0 1 97 25 3 24 3 1 0 1 81 
ELSE[ ]	/* Else */
NPUSHB[ ]	/* 73 values pushed */
23 1 13 0 1 0 13 1 128 0 17 18 16 2 10 8 17 10 103 19 15 9 3 8 22 12 6 3 4 5 8 4 105 0 20 11 5 20 89 21 27 7 26 4 5 14 1 11 0 5 11 105 2 1 0 13 1 0 89 2 1 0 0 1 97 25 3 24 3 1 0 1 81 
EIF[ ]	/* EndIf */
EIF[ ]	/* EndIf */
EIF[ ]	/* EndIf */
NPUSHB[ ]	/* 66 values pushed */
38 38 24 24 12 12 0 0 131 130 127 125 121 119 116 114 108 106 103 102 101 100 99 98 95 93 87 85 82 81 78 76 71 69 66 65 62 60 56 54 38 51 38 50 46 44 24 37 24 36 32 30 12 23 12 22 18 16 0 11 0 10 36 28 6 23 
CALL[ ]	/* CallFunction */";
};
width = 1752;
}
);
note = dvKx_KxA;
},
{
glyphname = dvKx_TA;
lastChange = "2022-10-20 15:44:45 +0000";
layers = (
{
layerId = m01;
shapes = (
{
closed = 1;
nodes = (
(682,552,o),
(594,501,o),
(567,457,q),
(604,670,l),
(1298,670,l),
(1268,498,l),
(1118,498,ls),
(976,498,o),
(890,428,q),
(882,489,o),
(803,552,o),
(741,552,qs)
);
},
{
closed = 1;
nodes = (
(219,-95,o),
(257,-63,o),
(261,-40,qs),
(265,-16,o),
(239,17,o),
(215,17,qs),
(191,17,o),
(153,-16,o),
(149,-40,qs),
(145,-63,o),
(171,-95,o),
(195,-95,qs)
);
},
{
closed = 1;
nodes = (
(214,168,o),
(142,255,o),
(155,330,qs),
(168,401,o),
(272,487,o),
(338,487,qs),
(389,487,o),
(451,441,o),
(471,368,o),
(464,328,qs),
(457,289,o),
(410,216,o),
(333,168,o),
(282,168,qs)
);
},
{
closed = 1;
nodes = (
(543,322,ls),
(555,388,o),
(637,484,o),
(707,484,qs),
(768,484,o),
(825,391,o),
(802,301,q),
(795,280,o),
(789,249,qs),
(768,129,o),
(886,2,o),
(1005,2,qs),
(1038,2,l),
(1050,69,l),
(1028,69,ls),
(937,69,o),
(858,163,o),
(873,248,qs),
(888,336,o),
(1013,426,o),
(1109,426,qs),
(1255,426,l),
(1180,0,l),
(1264,0,l),
(1382,670,l),
(1514,670,l),
(1527,740,l),
(47,740,l),
(34,670,l),
(524,670,l),
(487,457,l),
(472,503,o),
(392,559,o),
(328,559,qs),
(265,559,o),
(157,503,o),
(83,399,o),
(71,330,qs),
(59,260,o),
(94,155,o),
(181,98,o),
(243,98,qs),
(309,98,o),
(410,155,o),
(442,202,q),
(406,0,l),
(486,0,l)
);
}
);
userData = {
assembly = "MPPEM[ ]	/* MeasurePixelPerEm */
PUSHB[ ]	/* 1 value pushed */
9 
LT[ ]	/* LessThan */
IF[ ]	/* If */
NPUSHB[ ]	/* 12 values pushed */
53 8 2 3 13 5 39 1 6 13 2 76 
ELSE[ ]	/* Else */
MPPEM[ ]	/* MeasurePixelPerEm */
PUSHB[ ]	/* 1 value pushed */
10 
LT[ ]	/* LessThan */
IF[ ]	/* If */
NPUSHB[ ]	/* 12 values pushed */
53 8 2 3 13 16 39 1 6 13 2 76 
ELSE[ ]	/* Else */
NPUSHB[ ]	/* 12 values pushed */
53 8 2 3 13 5 39 1 6 13 2 76 
EIF[ ]	/* EndIf */
EIF[ ]	/* EndIf */
MPPEM[ ]	/* MeasurePixelPerEm */
PUSHB[ ]	/* 1 value pushed */
9 
LT[ ]	/* LessThan */
IF[ ]	/* If */
NPUSHB[ ]	/* 71 values pushed */
0 10 11 9 2 1 8 10 1 103 0 8 2 5 8 89 18 1 2 16 1 5 13 2 5 105 0 0 0 13 6 0 13 103 20 1 6 0 7 14 6 7 105 0 3 12 4 3 89 0 14 21 17 15 3 12 4 14 12 103 0 3 3 4 97 19 1 4 3 4 81 
ELSE[ ]	/* Else */
MPPEM[ ]	/* MeasurePixelPerEm */
PUSHB[ ]	/* 1 value pushed */
10 
LT[ ]	/* LessThan */
IF[ ]	/* If */
NPUSHB[ ]	/* 72 values pushed */
0 10 11 9 2 1 8 10 1 103 0 8 0 5 16 8 5 105 18 1 2 0 16 13 2 16 105 0 0 0 13 6 0 13 103 20 1 6 0 7 14 6 7 105 0 3 12 4 3 89 0 14 21 17 15 3 12 4 14 12 103 0 3 3 4 97 19 1 4 3 4 81 
ELSE[ ]	/* Else */
NPUSHB[ ]	/* 71 values pushed */
0 10 11 9 2 1 8 10 1 103 0 8 2 5 8 89 18 1 2 16 1 5 13 2 5 105 0 0 0 13 6 0 13 103 20 1 6 0 7 14 6 7 105 0 3 12 4 3 89 0 14 21 17 15 3 12 4 14 12 103 0 3 3 4 97 19 1 4 3 4 81 
EIF[ ]	/* EndIf */
EIF[ ]	/* EndIf */
NPUSHB[ ]	/* 53 values pushed */
38 38 24 24 12 12 0 0 38 84 38 84 81 79 73 71 70 68 64 62 61 60 59 58 57 56 55 54 51 49 43 41 24 37 24 36 32 30 12 23 12 22 18 16 0 11 0 10 17 35 22 6 24 
CALL[ ]	/* CallFunction */";
};
width = 1426;
}
);
note = dvKx_TA;
},
{
glyphname = dvKx_PHA;
lastChange = "2022-10-20 15:44:45 +0000";
layers = (
{
layerId = m01;
shapes = (
{
closed = 1;
nodes = (
(876,670,l),
(851,527,l),
(811,555,o),
(751,555,qs),
(688,555,o),
(596,502,o),
(567,456,q),
(604,670,l)
);
},
{
closed = 1;
nodes = (
(958,268,o),
(904,359,o),
(919,441,qs),
(959,670,l),
(1239,670,l),
(1195,419,ls),
(1184,355,o),
(1094,268,o),
(1029,268,qs)
);
},
{
closed = 1;
nodes = (
(543,322,ls),
(555,390,o),
(642,487,o),
(715,487,qs),
(762,487,o),
(824,436,o),
(830,392,q),
(825,301,o),
(910,197,o),
(998,197,qs),
(1052,197,o),
(1140,241,o),
(1171,281,q),
(1121,0,l),
(1204,0,l),
(1259,313,ls),
(1272,384,o),
(1367,487,o),
(1443,487,qs),
(1507,487,o),
(1576,401,o),
(1563,330,qs),
(1550,257,o),
(1454,170,o),
(1391,170,qs),
(1368,170,o),
(1347,175,q),
(1336,110,l),
(1361,102,o),
(1398,102,qs),
(1458,102,o),
(1563,157,o),
(1635,262,o),
(1648,334,qs),
(1660,400,o),
(1625,502,o),
(1540,559,o),
(1480,559,qs),
(1415,559,o),
(1315,502,o),
(1284,454,q),
(1322,670,l),
(1803,670,l),
(1816,740,l),
(47,740,l),
(34,670,l),
(524,670,l),
(487,457,l),
(472,503,o),
(392,559,o),
(328,559,qs),
(265,559,o),
(157,503,o),
(83,399,o),
(71,330,qs),
(59,260,o),
(94,155,o),
(181,98,o),
(243,98,qs),
(309,98,o),
(410,155,o),
(442,202,q),
(406,0,l),
(486,0,l)
);
},
{
closed = 1;
nodes = (
(219,-95,o),
(257,-63,o),
(261,-40,qs),
(265,-16,o),
(239,17,o),
(215,17,qs),
(191,17,o),
(153,-16,o),
(149,-40,qs),
(145,-63,o),
(171,-95,o),
(195,-95,qs)
);
},
{
closed = 1;
nodes = (
(214,168,o),
(142,255,o),
(155,330,qs),
(168,401,o),
(272,487,o),
(338,487,qs),
(389,487,o),
(451,441,o),
(471,368,o),
(464,328,qs),
(457,289,o),
(410,216,o),
(333,168,o),
(282,168,qs)
);
}
);
userData = {
assembly = "MPPEM[ ]	/* MeasurePixelPerEm */
PUSHB[ ]	/* 1 value pushed */
10 
LT[ ]	/* LessThan */
IF[ ]	/* If */
NPUSHB[ ]	/* 25 values pushed */
5 1 12 0 67 39 32 0 4 3 12 18 1 14 3 53 1 11 14 52 1 10 11 5 76 
ELSE[ ]	/* Else */
MPPEM[ ]	/* MeasurePixelPerEm */
PUSHB[ ]	/* 1 value pushed */
11 
LT[ ]	/* LessThan */
IF[ ]	/* If */
NPUSHB[ ]	/* 25 values pushed */
5 1 12 0 67 39 32 0 4 3 12 18 1 14 3 53 1 11 14 52 1 4 11 5 76 
ELSE[ ]	/* Else */
NPUSHB[ ]	/* 25 values pushed */
5 1 12 0 67 39 32 0 4 3 12 18 1 14 3 53 1 11 14 52 1 10 11 5 76 
EIF[ ]	/* EndIf */
EIF[ ]	/* EndIf */
MPPEM[ ]	/* MeasurePixelPerEm */
PUSHB[ ]	/* 1 value pushed */
10 
LT[ ]	/* LessThan */
IF[ ]	/* If */
NPUSHB[ ]	/* 80 values pushed */
22 16 2 13 17 18 17 13 18 128 0 7 8 6 2 3 1 5 7 1 103 9 1 5 0 12 5 89 0 0 19 15 2 12 3 0 12 105 21 1 3 0 14 11 3 14 105 0 10 4 11 10 89 24 20 2 11 0 4 17 11 4 105 0 17 13 18 17 89 0 17 17 18 97 23 1 18 17 18 81 
ELSE[ ]	/* Else */
MPPEM[ ]	/* MeasurePixelPerEm */
PUSHB[ ]	/* 1 value pushed */
11 
LT[ ]	/* LessThan */
IF[ ]	/* If */
NPUSHB[ ]	/* 70 values pushed */
22 16 2 13 17 18 17 13 18 128 0 7 8 6 2 3 1 0 7 1 103 9 5 2 0 19 15 2 12 3 0 12 105 21 1 3 0 14 11 3 14 105 24 20 2 11 10 1 4 17 11 4 105 0 17 13 18 17 89 0 17 17 18 97 23 1 18 17 18 81 
ELSE[ ]	/* Else */
NPUSHB[ ]	/* 80 values pushed */
22 16 2 13 17 18 17 13 18 128 0 7 8 6 2 3 1 5 7 1 103 9 1 5 0 12 5 89 0 0 19 15 2 12 3 0 12 105 21 1 3 0 14 11 3 14 105 0 10 4 11 10 89 24 20 2 11 0 4 17 11 4 105 0 17 13 18 17 89 0 17 17 18 97 23 1 18 17 18 81 
EIF[ ]	/* EndIf */
EIF[ ]	/* EndIf */
NPUSHB[ ]	/* 58 values pushed */
93 93 81 81 17 17 8 8 93 106 93 105 101 99 81 92 81 91 87 85 17 80 17 80 77 75 71 69 66 65 62 60 56 54 51 49 43 41 38 37 36 35 34 33 30 28 22 20 8 16 8 15 20 18 34 25 6 25 
CALL[ ]	/* CallFunction */";
};
width = 1716;
}
);
note = dvKx_PHA;
},
{
glyphname = dvKx_PHxA;
lastChange = "2022-10-20 15:44:45 +0000";
layers = (
{
layerId = m01;
shapes = (
{
closed = 1;
nodes = (
(877,670,l),
(852,526,l),
(811,555,o),
(751,555,qs),
(688,555,o),
(596,502,o),
(567,456,q),
(604,670,l)
);
},
{
closed = 1;
nodes = (
(219,-95,o),
(257,-63,o),
(261,-40,qs),
(265,-16,o),
(239,17,o),
(215,17,qs),
(191,17,o),
(153,-16,o),
(149,-40,qs),
(145,-63,o),
(171,-95,o),
(195,-95,qs)
);
},
{
closed = 1;
nodes = (
(960,9,o),
(997,41,o),
(1001,64,qs),
(1006,88,o),
(979,121,o),
(955,121,qs),
(931,121,o),
(894,88,o),
(889,64,qs),
(885,41,o),
(912,9,o),
(936,9,qs)
);
},
{
closed = 1;
nodes = (
(214,168,o),
(142,255,o),
(155,330,qs),
(168,401,o),
(272,487,o),
(338,487,qs),
(389,487,o),
(451,441,o),
(471,368,o),
(464,328,qs),
(457,289,o),
(410,216,o),
(333,168,o),
(282,168,qs)
);
},
{
closed = 1;
nodes = (
(959,268,o),
(905,359,o),
(920,441,qs),
(960,670,l),
(1240,670,l),
(1196,419,ls),
(1185,355,o),
(1095,268,o),
(1030,268,qs)
);
},
{
closed = 1;
nodes = (
(543,322,ls),
(555,390,o),
(642,487,o),
(715,487,qs),
(764,487,o),
(826,433,o),
(831,386,q),
(828,297,o),
(912,197,o),
(999,197,qs),
(1053,197,o),
(1141,241,o),
(1172,281,q),
(1122,0,l),
(1205,0,l),
(1260,313,ls),
(1273,384,o),
(1368,487,o),
(1444,487,qs),
(1508,487,o),
(1577,401,o),
(1564,330,qs),
(1551,257,o),
(1455,170,o),
(1392,170,qs),
(1369,170,o),
(1348,175,q),
(1337,110,l),
(1362,102,o),
(1399,102,qs),
(1459,102,o),
(1564,157,o),
(1636,262,o),
(1649,334,qs),
(1661,400,o),
(1626,502,o),
(1541,559,o),
(1481,559,qs),
(1416,559,o),
(1316,502,o),
(1285,454,q),
(1323,670,l),
(1804,670,l),
(1817,740,l),
(47,740,l),
(34,670,l),
(524,670,l),
(487,457,l),
(472,503,o),
(392,559,o),
(328,559,qs),
(265,559,o),
(157,503,o),
(83,399,o),
(71,330,qs),
(59,260,o),
(94,155,o),
(181,98,o),
(243,98,qs),
(309,98,o),
(410,155,o),
(442,202,q),
(406,0,l),
(486,0,l)
);
}
);
userData = {
assembly = "MPPEM[ ]	/* MeasurePixelPerEm */
PUSHB[ ]	/* 1 value pushed */
10 
LT[ ]	/* LessThan */
IF[ ]	/* If */
NPUSHB[ ]	/* 25 values pushed */
5 1 6 0 105 77 70 0 4 9 6 56 1 20 9 91 1 7 20 90 1 16 4 5 76 
ELSE[ ]	/* Else */
MPPEM[ ]	/* MeasurePixelPerEm */
PUSHB[ ]	/* 1 value pushed */
11 
LT[ ]	/* LessThan */
IF[ ]	/* If */
NPUSHB[ ]	/* 25 values pushed */
5 1 6 0 105 77 70 0 4 9 6 56 1 20 9 91 1 7 20 90 1 10 4 5 76 
ELSE[ ]	/* Else */
NPUSHB[ ]	/* 25 values pushed */
5 1 6 0 105 77 70 0 4 9 6 56 1 20 9 91 1 7 20 90 1 16 4 5 76 
EIF[ ]	/* EndIf */
EIF[ ]	/* EndIf */
MPPEM[ ]	/* MeasurePixelPerEm */
PUSHB[ ]	/* 1 value pushed */
10 
LT[ ]	/* LessThan */
IF[ ]	/* If */
NPUSHB[ ]	/* 89 values pushed */
27 22 2 19 5 3 5 19 3 128 0 13 14 12 8 3 1 11 13 1 103 15 1 11 0 6 11 89 0 0 21 18 2 6 9 0 6 105 26 1 9 0 20 7 9 20 105 0 16 10 7 16 89 17 25 2 7 0 10 2 7 10 105 0 2 5 3 2 89 0 4 24 1 5 19 4 5 105 0 2 2 3 97 23 1 3 2 3 81 
ELSE[ ]	/* Else */
MPPEM[ ]	/* MeasurePixelPerEm */
PUSHB[ ]	/* 1 value pushed */
11 
LT[ ]	/* LessThan */
IF[ ]	/* If */
NPUSHB[ ]	/* 79 values pushed */
27 22 2 19 5 3 5 19 3 128 0 13 14 12 8 3 1 0 13 1 103 15 11 2 0 21 18 2 6 9 0 6 105 26 1 9 0 20 7 9 20 105 17 25 2 7 16 1 10 2 7 10 105 0 2 5 3 2 89 0 4 24 1 5 19 4 5 105 0 2 2 3 97 23 1 3 2 3 81 
ELSE[ ]	/* Else */
NPUSHB[ ]	/* 89 values pushed */
27 22 2 19 5 3 5 19 3 128 0 13 14 12 8 3 1 11 13 1 103 15 1 11 0 6 11 89 0 0 21 18 2 6 9 0 6 105 26 1 9 0 20 7 9 20 105 0 16 10 7 16 89 17 25 2 7 0 10 2 7 10 105 0 2 5 3 2 89 0 4 24 1 5 19 4 5 105 0 2 2 3 97 23 1 3 2 3 81 
EIF[ ]	/* EndIf */
EIF[ ]	/* EndIf */
NPUSHB[ ]	/* 66 values pushed */
55 55 46 46 32 32 20 20 8 8 55 118 55 118 115 113 109 107 104 103 100 98 94 92 89 87 81 79 76 75 74 73 72 71 68 66 60 58 46 54 46 53 50 49 32 45 32 44 40 38 20 31 20 30 26 24 8 19 8 18 37 18 34 28 6 25 
CALL[ ]	/* CallFunction */";
};
width = 1717;
}
);
note = dvKx_PHxA;
},
{
glyphname = dvKx_BA;
lastChange = "2022-10-20 15:44:45 +0000";
layers = (
{
layerId = m01;
shapes = (
{
closed = 1;
nodes = (
(1322,670,l),
(1286,463,l),
(1267,510,o),
(1178,569,o),
(1110,569,qs),
(1047,569,o),
(933,517,o),
(893,469,q),
(876,512,o),
(804,559,o),
(752,559,qs),
(689,559,o),
(596,504,o),
(567,458,q),
(604,670,l)
);
},
{
closed = 1;
nodes = (
(1284,0,l),
(1402,670,l),
(1533,670,l),
(1546,740,l),
(47,740,l),
(34,670,l),
(524,670,l),
(487,457,l),
(472,503,o),
(392,559,o),
(328,559,qs),
(265,559,o),
(157,503,o),
(83,399,o),
(71,330,qs),
(59,260,o),
(94,155,o),
(181,98,o),
(243,98,qs),
(309,98,o),
(410,155,o),
(442,202,q),
(406,0,l),
(486,0,l),
(543,322,ls),
(555,390,o),
(642,487,o),
(715,487,qs),
(778,487,o),
(841,401,o),
(828,330,qs),
(816,259,o),
(861,150,o),
(961,91,o),
(1029,91,qs),
(1097,91,o),
(1205,149,o),
(1239,196,q),
(1204,0,l)
);
},
{
closed = 1;
nodes = (
(219,-95,o),
(257,-63,o),
(261,-40,qs),
(265,-16,o),
(239,17,o),
(215,17,qs),
(191,17,o),
(153,-16,o),
(149,-40,qs),
(145,-63,o),
(171,-95,o),
(195,-95,qs)
);
},
{
closed = 1;
nodes = (
(214,168,o),
(142,255,o),
(155,330,qs),
(168,401,o),
(272,487,o),
(338,487,qs),
(389,487,o),
(451,441,o),
(471,368,o),
(464,328,qs),
(457,289,o),
(410,216,o),
(333,168,o),
(282,168,qs)
);
},
{
closed = 1;
nodes = (
(1174,512,o),
(1247,460,o),
(1274,377,o),
(1266,332,qs),
(1255,274,o),
(1216,228,q),
(986,468,l),
(1013,489,o),
(1081,512,o),
(1116,512,qs)
);
},
{
closed = 1;
nodes = (
(1004,153,o),
(928,195,o),
(893,276,o),
(902,330,qs),
(913,392,o),
(953,438,q),
(1186,198,l),
(1130,153,o),
(1055,153,qs)
);
}
);
userData = {
assembly = "NPUSHB[ ]	/* 134 values pushed */
92 91 83 82 45 31 15 12 6 0 10 15 4 1 76 11 1 5 12 13 12 5 13 128 0 9 10 8 2 2 1 9 2 103 0 1 20 1 16 4 1 16 105 7 1 0 14 1 4 15 0 4 105 19 1 15 0 6 3 15 6 105 21 1 17 0 3 12 17 3 105 0 12 5 13 12 89 0 12 12 13 97 18 1 13 12 13 81 90 90 80 80 66 66 54 54 90 98 90 97 80 89 80 88 66 79 66 78 74 72 54 65 54 64 60 58 53 52 51 50 49 48 19 38 35 19 37 35 19 36 34 22 6 31 
CALL[ ]	/* CallFunction */";
};
width = 1446;
}
);
note = dvKx_BA;
},
{
glyphname = dvKx_MA;
lastChange = "2022-10-20 15:44:45 +0000";
layers = (
{
layerId = m01;
shapes = (
{
closed = 1;
nodes = (
(688,555,o),
(595,501,o),
(567,456,q),
(604,670,l),
(1165,670,l),
(1127,454,l),
(1032,454,ls),
(961,454,o),
(909,423,q),
(900,485,o),
(818,555,o),
(751,555,qs)
);
},
{
closed = 1;
nodes = (
(219,-95,o),
(257,-63,o),
(261,-40,qs),
(265,-16,o),
(239,17,o),
(215,17,qs),
(191,17,o),
(153,-16,o),
(149,-40,qs),
(145,-63,o),
(171,-95,o),
(195,-95,qs)
);
},
{
closed = 1;
nodes = (
(214,168,o),
(142,255,o),
(155,330,qs),
(168,401,o),
(272,487,o),
(338,487,qs),
(389,487,o),
(451,441,o),
(471,368,o),
(464,328,qs),
(457,289,o),
(410,216,o),
(333,168,o),
(282,168,qs)
);
},
{
closed = 1;
nodes = (
(927,172,o),
(878,230,o),
(886,278,qs),
(895,327,o),
(970,385,o),
(1022,385,qs),
(1115,385,l),
(1101,304,ls),
(1090,242,o),
(1022,172,o),
(973,172,qs)
);
},
{
closed = 1;
nodes = (
(1388,454,l),
(1205,454,l),
(1243,670,l),
(1426,670,l)
);
},
{
closed = 1;
nodes = (
(543,322,ls),
(555,390,o),
(642,487,o),
(715,487,qs),
(775,487,o),
(838,409,o),
(831,343,q),
(814,313,o),
(808,278,qs),
(794,198,o),
(878,101,o),
(961,101,qs),
(1049,101,o),
(1162,208,o),
(1179,308,qs),
(1193,385,l),
(1376,385,l),
(1308,0,l),
(1392,0,l),
(1510,670,l),
(1641,670,l),
(1654,740,l),
(47,740,l),
(34,670,l),
(524,670,l),
(487,457,l),
(472,503,o),
(392,559,o),
(328,559,qs),
(265,559,o),
(157,503,o),
(83,399,o),
(71,330,qs),
(59,260,o),
(94,155,o),
(181,98,o),
(243,98,qs),
(309,98,o),
(410,155,o),
(442,202,q),
(406,0,l),
(486,0,l)
);
}
);
userData = {
assembly = "MPPEM[ ]	/* MeasurePixelPerEm */
PUSHB[ ]	/* 1 value pushed */
10 
LT[ ]	/* LessThan */
IF[ ]	/* If */
NPUSHB[ ]	/* 16 values pushed */
68 8 2 0 5 2 1 7 0 87 54 2 8 7 3 76 
ELSE[ ]	/* Else */
MPPEM[ ]	/* MeasurePixelPerEm */
PUSHB[ ]	/* 1 value pushed */
11 
LT[ ]	/* LessThan */
IF[ ]	/* If */
NPUSHB[ ]	/* 16 values pushed */
68 8 2 0 5 2 1 7 0 87 54 2 6 7 3 76 
ELSE[ ]	/* Else */
NPUSHB[ ]	/* 16 values pushed */
68 8 2 0 5 2 1 7 0 87 54 2 8 7 3 76 
EIF[ ]	/* EndIf */
EIF[ ]	/* EndIf */
MPPEM[ ]	/* MeasurePixelPerEm */
PUSHB[ ]	/* 1 value pushed */
9 
LT[ ]	/* LessThan */
IF[ ]	/* If */
NPUSHB[ ]	/* 82 values pushed */
26 20 2 16 3 4 3 16 4 128 0 14 15 13 25 10 4 1 12 14 1 103 0 12 2 5 12 89 21 1 2 19 1 5 0 2 5 105 9 1 0 17 1 7 8 0 7 103 24 1 8 6 11 8 89 23 1 6 18 1 11 3 6 11 105 0 3 16 4 3 89 0 3 3 4 97 22 1 4 3 4 81 
ELSE[ ]	/* Else */
MPPEM[ ]	/* MeasurePixelPerEm */
PUSHB[ ]	/* 1 value pushed */
10 
LT[ ]	/* LessThan */
IF[ ]	/* If */
NPUSHB[ ]	/* 83 values pushed */
26 20 2 16 3 4 3 16 4 128 0 14 15 13 25 10 4 1 12 14 1 103 0 12 2 5 12 89 21 1 2 19 1 5 0 2 5 105 9 1 0 17 1 7 8 0 7 103 24 1 8 0 18 11 8 18 105 23 1 6 0 11 3 6 11 105 0 3 16 4 3 89 0 3 3 4 97 22 1 4 3 4 81 
ELSE[ ]	/* Else */
MPPEM[ ]	/* MeasurePixelPerEm */
PUSHB[ ]	/* 1 value pushed */
11 
LT[ ]	/* LessThan */
IF[ ]	/* If */
NPUSHB[ ]	/* 72 values pushed */
26 20 2 16 3 4 3 16 4 128 0 14 15 13 25 10 4 1 2 14 1 103 12 21 2 2 19 1 5 0 2 5 105 9 1 0 17 1 7 6 0 7 103 24 8 23 3 6 18 1 11 3 6 11 105 0 3 16 4 3 89 0 3 3 4 97 22 1 4 3 4 81 
ELSE[ ]	/* Else */
NPUSHB[ ]	/* 82 values pushed */
26 20 2 16 3 4 3 16 4 128 0 14 15 13 25 10 4 1 12 14 1 103 0 12 2 5 12 89 21 1 2 19 1 5 0 2 5 105 9 1 0 17 1 7 8 0 7 103 24 1 8 6 11 8 89 23 1 6 18 1 11 3 6 11 105 0 3 16 4 3 89 0 3 3 4 97 22 1 4 3 4 81 
EIF[ ]	/* EndIf */
EIF[ ]	/* EndIf */
EIF[ ]	/* EndIf */
NPUSHB[ ]	/* 67 values pushed */
53 53 49 49 38 38 24 24 12 12 0 0 53 94 53 94 91 89 83 81 78 77 76 75 74 73 72 71 70 69 66 64 58 56 49 52 49 52 51 50 38 48 38 47 43 41 24 37 24 36 32 30 12 23 12 22 18 16 0 11 0 10 17 35 27 6 24 
CALL[ ]	/* CallFunction */";
};
width = 1549;
}
);
note = dvKx_MA;
},
{
glyphname = dvJx_JxA;
lastChange = "2022-10-20 15:44:45 +0000";
layers = (
{
layerId = m01;
shapes = (
{
closed = 1;
nodes = (
(224,-60,o),
(262,-28,o),
(266,-5,qs),
(270,19,o),
(244,52,o),
(220,52,qs),
(196,52,o),
(158,19,o),
(154,-5,qs),
(150,-28,o),
(176,-60,o),
(200,-60,qs)
);
},
{
closed = 1;
nodes = (
(793,-60,o),
(831,-28,o),
(835,-5,qs),
(839,19,o),
(813,52,o),
(789,52,qs),
(765,52,o),
(727,19,o),
(723,-5,qs),
(719,-28,o),
(745,-60,o),
(769,-60,qs)
);
},
{
closed = 1;
nodes = (
(1244,0,l),
(1362,670,l),
(1494,670,l),
(1507,740,l),
(44,740,l),
(31,670,l),
(1279,670,l),
(1249,499,l),
(978,499,l),
(949,334,ls),
(939,276,o),
(865,204,o),
(813,204,qs),
(763,204,o),
(717,276,o),
(727,334,qs),
(756,499,l),
(409,499,l),
(380,334,ls),
(370,276,o),
(296,204,o),
(244,204,qs),
(194,204,o),
(148,276,o),
(158,334,qs),
(187,499,l),
(103,499,l),
(74,332,ls),
(58,242,o),
(140,131,o),
(230,131,qs),
(320,131,o),
(445,242,o),
(461,332,qs),
(477,427,l),
(659,427,l),
(643,332,ls),
(627,242,o),
(709,131,o),
(799,131,qs),
(889,131,o),
(1014,242,o),
(1030,332,qs),
(1046,427,l),
(1236,427,l),
(1161,0,l)
);
}
);
userData = {
assembly = "NPUSHB[ ]	/* 103 values pushed */
0 16 0 1 0 16 1 128 0 14 15 1 13 8 14 13 103 12 10 2 8 6 1 4 9 8 4 103 11 1 9 7 1 5 0 9 5 105 2 1 0 16 1 0 89 2 1 0 0 1 97 18 3 17 3 1 0 1 81 12 12 0 0 69 68 67 66 65 64 63 62 61 60 57 55 52 51 48 46 43 42 39 37 34 33 30 28 25 24 12 23 12 22 18 16 0 11 0 10 36 19 6 23 
CALL[ ]	/* CallFunction */";
};
width = 1409;
}
);
note = dvJx_JxA;
},
{
glyphname = dvJx_YA;
lastChange = "2022-10-20 15:44:45 +0000";
layers = (
{
layerId = m01;
shapes = (
{
closed = 1;
nodes = (
(787,182,o),
(703,299,o),
(721,400,qs),
(721,405,l),
(816,410,o),
(935,501,o),
(951,587,qs),
(965,670,l),
(1166,670,l),
(1113,370,ls),
(1104,315,o),
(1036,229,o),
(937,182,o),
(881,182,qs)
);
},
{
closed = 1;
nodes = (
(1132,0,l),
(1250,670,l),
(1381,670,l),
(1394,740,l),
(44,740,l),
(31,670,l),
(882,670,l),
(870,601,ls),
(857,527,o),
(756,464,o),
(667,464,qs),
(403,464,l),
(380,334,ls),
(370,276,o),
(296,204,o),
(244,204,qs),
(194,204,o),
(148,276,o),
(158,334,qs),
(181,464,l),
(97,464,l),
(74,332,ls),
(58,242,o),
(140,131,o),
(230,131,qs),
(320,131,o),
(445,242,o),
(461,332,qs),
(472,394,l),
(603,394,l),
(638,394,l),
(619,263,o),
(732,112,o),
(853,112,qs),
(929,112,o),
(1048,170,o),
(1086,218,q),
(1048,0,l)
);
},
{
closed = 1;
nodes = (
(224,-60,o),
(262,-28,o),
(266,-5,qs),
(270,19,o),
(244,52,o),
(220,52,qs),
(196,52,o),
(158,19,o),
(154,-5,qs),
(150,-28,o),
(176,-60,o),
(200,-60,qs)
);
}
);
userData = {
assembly = "NPUSHB[ ]	/* 113 values pushed */
14 1 7 4 1 76 0 4 1 7 1 4 114 0 12 13 14 13 12 14 128 0 10 11 9 2 0 6 10 0 103 8 1 6 0 1 4 6 1 105 0 7 0 5 3 7 5 105 15 1 2 0 3 13 2 3 105 0 13 12 14 13 89 0 13 13 14 97 16 1 14 13 14 81 52 52 0 0 52 63 52 62 58 56 51 50 49 48 47 46 45 44 41 39 36 34 31 30 27 25 22 20 18 16 0 13 0 12 19 20 17 6 24 
CALL[ ]	/* CallFunction */";
};
width = 1297;
}
);
note = dvJx_YA;
},
{
glyphname = dvEyelash_YA;
lastChange = "2022-10-20 15:44:45 +0000";
layers = (
{
layerId = m01;
shapes = (
{
closed = 1;
nodes = (
(415,182,o),
(329,291,o),
(346,386,qs),
(347,393,l),
(545,401,o),
(578,587,qs),
(593,670,l),
(794,670,l),
(741,370,ls),
(731,315,o),
(664,229,o),
(565,182,o),
(509,182,qs)
);
},
{
closed = 1;
nodes = (
(759,0,l),
(877,670,l),
(1009,670,l),
(1021,740,l),
(38,740,l),
(26,670,l),
(510,670,l),
(498,601,ls),
(483,515,o),
(381,442,o),
(293,441,qs),
(226,442,o),
(137,506,o),
(149,573,q),
(71,573,l),
(55,476,o),
(169,380,o),
(262,375,q),
(245,253,o),
(359,112,o),
(480,112,qs),
(557,112,o),
(677,171,o),
(714,219,q),
(676,0,l)
);
}
);
userData = {
assembly = "NPUSHB[ ]	/* 89 values pushed */
13 1 2 4 1 76 0 5 0 6 0 5 6 128 0 4 1 2 1 4 114 0 10 3 10 134 0 8 9 7 2 0 5 8 0 103 0 6 0 1 4 6 1 105 11 1 2 3 3 2 89 11 1 2 2 3 97 0 3 2 3 81 0 0 37 36 35 34 33 32 31 30 27 25 23 22 20 19 17 15 0 12 0 11 18 20 12 6 24 
CALL[ ]	/* CallFunction */";
};
width = 929;
}
);
note = dvEyelash_YA;
},
{
glyphname = dvEyelash_HA;
lastChange = "2022-10-20 15:44:45 +0000";
layers = (
{
layerId = m01;
shapes = (
{
closed = 1;
nodes = (
(563,23,o),
(480,-34,o),
(422,-34,qs),
(352,-34,o),
(288,50,o),
(299,116,qs),
(311,181,o),
(405,267,o),
(475,267,qs),
(534,267,o),
(597,208,o),
(600,169,q),
(680,169,l),
(680,239,o),
(586,334,o),
(489,334,qs),
(461,334,o),
(432,329,q),
(402,338,o),
(370,381,o),
(375,411,qs),
(383,453,o),
(450,492,o),
(497,492,qs),
(680,492,l),
(711,670,l),
(852,670,l),
(864,740,l),
(47,740,l),
(35,670,l),
(632,670,l),
(611,553,l),
(480,553,ls),
(407,553,o),
(307,488,o),
(296,426,qs),
(289,387,o),
(303,357,q),
(278,353,o),
(261,353,qs),
(203,353,o),
(130,416,o),
(142,481,q),
(64,481,l),
(52,416,o),
(97,328,o),
(183,286,o),
(235,286,qs),
(298,286,o),
(349,310,q),
(359,305,l),
(303,278,o),
(229,180,o),
(218,117,qs),
(206,54,o),
(243,-46,o),
(338,-104,o),
(410,-104,qs),
(473,-104,o),
(576,-59,o),
(646,17,o),
(661,62,q),
(581,62,l)
);
}
);
userData = {
assembly = "NPUSHB[ ]	/* 111 values pushed */
24 1 3 2 44 12 11 3 1 9 2 76 0 2 8 3 8 2 3 128 0 10 11 13 11 10 13 128 14 1 13 12 11 13 12 126 0 6 7 1 5 4 6 5 103 0 4 0 8 2 4 8 103 0 3 0 1 11 3 1 105 0 9 0 11 10 9 11 105 0 12 0 0 12 89 0 12 12 0 97 0 0 12 0 81 0 0 0 62 0 62 60 58 54 52 50 49 47 45 33 17 17 17 37 34 19 40 35 15 6 31 
CALL[ ]	/* CallFunction */";
};
width = 764;
}
);
note = dvEyelash_HA;
},
{
glyphname = dvmII.aLong;
lastChange = "2022-10-20 15:44:45 +0000";
layers = (
{
layerId = m01;
shapes = (
{
closed = 1;
nodes = (
(-413,720,l),
(-408,749,ls),
(-393,834,o),
(-254,939,o),
(-94,939,qs),
(67,939,o),
(165,835,o),
(150,749,qs),
(149,740,l),
(15,740,l),
(2,670,l),
(134,670,l),
(16,0,l),
(100,0,l),
(218,670,l),
(349,670,l),
(362,740,l),
(231,740,l),
(233,754,ls),
(254,872,o),
(114,1009,o),
(-82,1009,qs),
(-275,1009,o),
(-466,871,o),
(-487,754,qs),
(-493,720,l)
);
}
);
userData = {
assembly = "NPUSHB[ ]	/* 51 values pushed */
0 7 1 2 1 7 2 128 0 3 2 3 134 0 0 0 6 1 0 6 105 5 1 1 7 2 1 87 5 1 1 1 2 95 4 1 2 1 2 79 19 35 17 17 17 17 19 34 8 6 30 
CALL[ ]	/* CallFunction */";
};
width = 294;
}
);
note = dvmII.aLong;
},
{
glyphname = dvmII_Anusvara;
lastChange = "2022-10-20 15:44:45 +0000";
layers = (
{
layerId = m01;
shapes = (
{
closed = 1;
nodes = (
(-68,720,l),
(-57,782,ls),
(-46,844,o),
(17,926,o),
(76,926,qs),
(134,926,o),
(168,844,o),
(157,782,qs),
(150,740,l),
(16,740,l),
(3,670,l),
(135,670,l),
(17,0,l),
(101,0,l),
(219,670,l),
(350,670,l),
(363,740,l),
(232,740,l),
(238,778,ls),
(256,878,o),
(189,996,o),
(89,996,qs),
(-10,996,o),
(-122,877,o),
(-140,778,qs),
(-150,720,l)
);
},
{
closed = 1;
nodes = (
(390,829,o),
(429,862,o),
(433,885,qs),
(437,908,o),
(410,941,o),
(387,941,qs),
(363,941,o),
(324,908,o),
(320,885,qs),
(316,862,o),
(343,829,o),
(367,829,qs)
);
}
);
userData = {
assembly = "NPUSHB[ ]	/* 67 values pushed */
0 7 1 2 1 7 2 128 0 3 2 3 134 0 0 0 6 9 0 6 105 0 8 10 1 9 1 8 9 105 5 1 1 7 2 1 87 5 1 1 1 2 95 4 1 2 1 2 79 26 26 26 37 26 36 37 19 35 17 17 17 17 19 34 11 6 31 
CALL[ ]	/* CallFunction */";
};
width = 294;
}
);
note = dvmII_Anusvara;
},
{
glyphname = dvmII_Reph;
lastChange = "2022-10-20 15:44:45 +0000";
layers = (
{
layerId = m01;
shapes = (
{
closed = 1;
nodes = (
(-68,720,l),
(-57,782,ls),
(-46,844,o),
(17,926,o),
(76,926,qs),
(134,926,o),
(168,844,o),
(157,782,qs),
(150,740,l),
(16,740,l),
(3,670,l),
(135,670,l),
(17,0,l),
(101,0,l),
(219,670,l),
(350,670,l),
(363,740,l),
(232,740,l),
(246,821,ls),
(254,865,o),
(300,915,o),
(336,915,qs),
(371,915,o),
(398,869,o),
(389,829,q),
(464,829,l),
(481,901,o),
(426,982,o),
(366,982,qs),
(321,982,o),
(256,940,o),
(237,905,q),
(209,996,o),
(89,996,qs),
(-10,996,o),
(-122,877,o),
(-140,778,qs),
(-150,720,l)
);
}
);
userData = {
assembly = "PUSHB[ ]	/* 6 values pushed */
5 1 2 3 1 76 
MPPEM[ ]	/* MeasurePixelPerEm */
PUSHB[ ]	/* 1 value pushed */
15 
LT[ ]	/* LessThan */
IF[ ]	/* If */
NPUSHB[ ]	/* 55 values pushed */
0 2 3 4 3 2 114 0 10 4 5 4 10 5 128 0 6 5 6 134 0 0 0 9 3 0 9 105 0 1 0 3 2 1 3 105 8 1 4 10 5 4 87 8 1 4 4 5 95 7 1 5 4 5 79 
ELSE[ ]	/* Else */
NPUSHB[ ]	/* 56 values pushed */
0 2 3 4 3 2 4 128 0 10 4 5 4 10 5 128 0 6 5 6 134 0 0 0 9 3 0 9 105 0 1 0 3 2 1 3 105 8 1 4 10 5 4 87 8 1 4 4 5 95 7 1 5 4 5 79 
EIF[ ]	/* EndIf */
NPUSHB[ ]	/* 16 values pushed */
37 36 33 31 17 17 17 17 19 34 18 35 34 11 6 31 
CALL[ ]	/* CallFunction */";
};
width = 294;
}
);
note = dvmII_Reph;
},
{
glyphname = dvmII_Reph_Anusvara;
lastChange = "2022-10-20 15:44:45 +0000";
layers = (
{
layerId = m01;
shapes = (
{
closed = 1;
nodes = (
(-68,720,l),
(-57,782,ls),
(-46,844,o),
(17,926,o),
(76,926,qs),
(134,926,o),
(168,844,o),
(157,782,qs),
(150,740,l),
(16,740,l),
(3,670,l),
(135,670,l),
(17,0,l),
(101,0,l),
(219,670,l),
(350,670,l),
(363,740,l),
(232,740,l),
(245,817,ls),
(254,867,o),
(310,924,o),
(351,924,qs),
(389,924,o),
(426,877,o),
(418,840,q),
(486,840,l),
(503,907,o),
(444,990,o),
(379,990,qs),
(331,990,o),
(258,945,o),
(236,907,q),
(208,996,o),
(89,996,qs),
(-10,996,o),
(-122,877,o),
(-140,778,qs),
(-150,720,l)
);
},
{
closed = 1;
nodes = (
(344,786,o),
(375,813,o),
(378,831,qs),
(381,850,o),
(360,876,o),
(341,876,qs),
(322,876,o),
(291,850,o),
(288,831,qs),
(285,813,o),
(306,786,o),
(325,786,qs)
);
}
);
userData = {
assembly = "NPUSHB[ ]	/* 94 values pushed */
5 1 11 3 1 76 0 2 11 12 11 2 12 128 0 10 4 5 4 10 5 128 0 6 5 6 134 0 0 1 3 0 89 0 1 9 1 3 11 1 3 105 0 11 13 1 12 4 11 12 105 8 1 4 10 5 4 87 8 1 4 4 5 95 7 1 5 4 5 79 38 38 38 49 38 48 44 42 37 36 33 31 17 17 17 17 19 34 18 35 34 14 6 31 
CALL[ ]	/* CallFunction */";
};
width = 294;
}
);
note = dvmII_Reph_Anusvara;
},
{
glyphname = dvmII_Anusvara.aLong;
lastChange = "2022-10-20 15:44:45 +0000";
layers = (
{
layerId = m01;
shapes = (
{
closed = 1;
nodes = (
(-413,720,l),
(-408,749,ls),
(-393,834,o),
(-254,939,o),
(-94,939,qs),
(67,939,o),
(165,835,o),
(150,749,qs),
(149,740,l),
(15,740,l),
(2,670,l),
(134,670,l),
(16,0,l),
(100,0,l),
(218,670,l),
(349,670,l),
(362,740,l),
(231,740,l),
(233,754,ls),
(254,872,o),
(114,1009,o),
(-82,1009,qs),
(-275,1009,o),
(-466,871,o),
(-487,754,qs),
(-493,720,l)
);
},
{
closed = 1;
nodes = (
(389,829,o),
(428,862,o),
(432,885,qs),
(436,908,o),
(409,941,o),
(386,941,qs),
(362,941,o),
(323,908,o),
(319,885,qs),
(315,862,o),
(342,829,o),
(366,829,qs)
);
}
);
userData = {
assembly = "NPUSHB[ ]	/* 67 values pushed */
0 7 1 2 1 7 2 128 0 3 2 3 134 0 0 0 6 9 0 6 105 0 8 10 1 9 1 8 9 105 5 1 1 7 2 1 87 5 1 1 1 2 95 4 1 2 1 2 79 26 26 26 37 26 36 37 19 35 17 17 17 17 19 34 11 6 31 
CALL[ ]	/* CallFunction */";
};
width = 294;
}
);
note = dvmII_Anusvara.aLong;
},
{
glyphname = dvmII_Reph.aLong;
lastChange = "2022-10-20 15:44:45 +0000";
layers = (
{
layerId = m01;
shapes = (
{
closed = 1;
nodes = (
(-413,720,l),
(-408,749,ls),
(-393,834,o),
(-254,939,o),
(-94,939,qs),
(67,939,o),
(165,835,o),
(150,749,qs),
(149,740,l),
(15,740,l),
(2,670,l),
(134,670,l),
(16,0,l),
(100,0,l),
(218,670,l),
(349,670,l),
(362,740,l),
(231,740,l),
(245,821,ls),
(253,865,o),
(298,915,o),
(334,915,qs),
(369,915,o),
(397,869,o),
(388,829,q),
(463,829,l),
(480,901,o),
(425,982,o),
(365,982,qs),
(312,982,o),
(241,927,o),
(225,882,q),
(173,1009,o),
(-82,1009,qs),
(-275,1009,o),
(-466,871,o),
(-487,754,qs),
(-493,720,l)
);
}
);
userData = {
assembly = "PUSHB[ ]	/* 6 values pushed */
5 1 2 3 1 76 
MPPEM[ ]	/* MeasurePixelPerEm */
PUSHB[ ]	/* 1 value pushed */
15 
LT[ ]	/* LessThan */
IF[ ]	/* If */
NPUSHB[ ]	/* 55 values pushed */
0 2 3 4 3 2 114 0 10 4 5 4 10 5 128 0 6 5 6 134 0 0 0 9 3 0 9 105 0 1 0 3 2 1 3 105 8 1 4 10 5 4 87 8 1 4 4 5 95 7 1 5 4 5 79 
ELSE[ ]	/* Else */
NPUSHB[ ]	/* 56 values pushed */
0 2 3 4 3 2 4 128 0 10 4 5 4 10 5 128 0 6 5 6 134 0 0 0 9 3 0 9 105 0 1 0 3 2 1 3 105 8 1 4 10 5 4 87 8 1 4 4 5 95 7 1 5 4 5 79 
EIF[ ]	/* EndIf */
NPUSHB[ ]	/* 16 values pushed */
37 36 33 31 17 17 17 17 19 34 18 35 34 11 6 31 
CALL[ ]	/* CallFunction */";
};
width = 294;
}
);
note = dvmII_Reph.aLong;
},
{
glyphname = dvmII_Reph_Anusvara.aLong;
lastChange = "2022-10-20 15:44:45 +0000";
layers = (
{
layerId = m01;
shapes = (
{
closed = 1;
nodes = (
(-413,720,l),
(-408,749,ls),
(-393,834,o),
(-254,939,o),
(-94,939,qs),
(67,939,o),
(165,835,o),
(150,749,qs),
(149,740,l),
(15,740,l),
(2,670,l),
(134,670,l),
(16,0,l),
(100,0,l),
(218,670,l),
(349,670,l),
(362,740,l),
(231,740,l),
(244,817,ls),
(253,867,o),
(309,924,o),
(350,924,qs),
(388,924,o),
(425,877,o),
(417,840,q),
(485,840,l),
(502,907,o),
(443,990,o),
(378,990,qs),
(323,990,o),
(242,931,o),
(224,884,q),
(173,1009,o),
(-82,1009,qs),
(-275,1009,o),
(-466,871,o),
(-487,754,qs),
(-493,720,l)
);
},
{
closed = 1;
nodes = (
(343,786,o),
(373,813,o),
(377,831,qs),
(380,850,o),
(359,876,o),
(340,876,qs),
(321,876,o),
(290,850,o),
(287,831,qs),
(283,813,o),
(305,786,o),
(324,786,qs)
);
}
);
userData = {
assembly = "NPUSHB[ ]	/* 95 values pushed */
5 1 11 3 1 76 0 2 11 12 11 2 12 128 0 10 4 5 4 10 5 128 0 6 5 6 134 0 0 0 9 3 0 9 105 0 1 0 3 11 1 3 105 0 11 13 1 12 4 11 12 105 8 1 4 10 5 4 87 8 1 4 4 5 95 7 1 5 4 5 79 38 38 38 49 38 48 44 42 37 36 33 31 17 17 17 17 19 34 18 35 34 14 6 31 
CALL[ ]	/* CallFunction */";
};
width = 294;
}
);
note = dvmII_Reph_Anusvara.aLong;
},
{
glyphname = dvmE_Anusvara;
lastChange = "2022-10-20 15:44:45 +0000";
layers = (
{
layerId = m01;
shapes = (
{
closed = 1;
nodes = (
(-174,849,o),
(-246,951,o),
(-326,981,o),
(-399,981,qs),
(-440,981,l),
(-452,913,l),
(-410,913,ls),
(-356,913,o),
(-298,891,o),
(-244,818,o),
(-207,736,q),
(-128,736,l)
);
},
{
closed = 1;
nodes = (
(-16,830,o),
(23,863,o),
(27,886,qs),
(31,909,o),
(4,942,o),
(-19,942,qs),
(-43,942,o),
(-82,909,o),
(-86,886,qs),
(-90,863,o),
(-63,830,o),
(-39,830,qs)
);
}
);
userData = {
assembly = "NPUSHB[ ]	/* 50 values pushed */
5 1 2 4 2 134 0 3 0 4 3 89 0 1 0 0 4 1 0 105 0 3 3 4 97 6 1 4 3 4 81 12 12 0 0 12 23 12 22 18 16 0 11 0 11 33 35 7 6 24 
CALL[ ]	/* CallFunction */";
};
width = 0;
}
);
note = dvmE_Anusvara;
},
{
glyphname = dvmE_Reph;
lastChange = "2022-10-20 15:44:45 +0000";
layers = (
{
layerId = m01;
shapes = (
{
closed = 1;
nodes = (
(-142,775,o),
(-135,815,qs),
(-126,863,o),
(-72,915,o),
(-32,915,qs),
(3,915,o),
(36,869,o),
(28,833,q),
(100,833,l),
(116,898,o),
(58,980,o),
(-5,980,qs),
(-73,980,o),
(-156,895,o),
(-166,835,qs),
(-168,827,l),
(-201,896,o),
(-264,961,o),
(-337,981,o),
(-399,981,qs),
(-440,981,l),
(-452,913,l),
(-410,913,ls),
(-356,913,o),
(-298,891,o),
(-244,818,o),
(-207,736,q),
(-128,736,l)
);
}
);
userData = {
assembly = "PUSHB[ ]	/* 6 values pushed */
11 1 5 3 1 76 
MPPEM[ ]	/* MeasurePixelPerEm */
PUSHB[ ]	/* 1 value pushed */
16 
LT[ ]	/* LessThan */
IF[ ]	/* If */
NPUSHB[ ]	/* 31 values pushed */
0 3 0 5 0 3 114 6 1 5 5 132 2 1 1 0 0 1 89 2 1 1 1 0 97 4 1 0 1 0 81 
ELSE[ ]	/* Else */
NPUSHB[ ]	/* 32 values pushed */
0 3 0 5 0 3 5 128 6 1 5 5 132 2 1 1 0 0 1 89 2 1 1 1 0 97 4 1 0 1 0 81 
EIF[ ]	/* EndIf */
NPUSHB[ ]	/* 14 values pushed */
0 0 0 27 0 27 34 18 38 33 35 7 6 27 
CALL[ ]	/* CallFunction */";
};
width = 0;
}
);
note = dvmE_Reph;
},
{
glyphname = dvmE_Reph_Anusvara;
lastChange = "2022-10-20 15:44:45 +0000";
layers = (
{
layerId = m01;
shapes = (
{
closed = 1;
nodes = (
(-143,779,o),
(-136,821,qs),
(-127,872,o),
(-60,930,o),
(-13,930,qs),
(30,930,o),
(71,878,o),
(66,837,q),
(125,837,l),
(138,904,o),
(74,985,o),
(6,985,qs),
(-68,985,o),
(-161,897,o),
(-171,835,qs),
(-172,834,l),
(-205,900,o),
(-266,963,o),
(-338,981,o),
(-400,981,qs),
(-441,981,l),
(-453,913,l),
(-411,913,ls),
(-357,913,o),
(-299,891,o),
(-244,818,o),
(-207,736,q),
(-128,736,l)
);
},
{
closed = 1;
nodes = (
(-25,788,o),
(6,815,o),
(9,833,qs),
(13,852,o),
(-9,878,o),
(-28,878,qs),
(-47,878,o),
(-77,852,o),
(-81,833,qs),
(-84,815,o),
(-63,788,o),
(-44,788,qs)
);
}
);
userData = {
assembly = "PUSHB[ ]	/* 6 values pushed */
11 1 7 3 1 76 
MPPEM[ ]	/* MeasurePixelPerEm */
PUSHB[ ]	/* 1 value pushed */
10 
LT[ ]	/* LessThan */
IF[ ]	/* If */
NPUSHB[ ]	/* 47 values pushed */
0 3 6 7 6 3 7 128 8 1 5 7 5 134 0 2 0 4 0 2 4 105 0 1 0 0 6 1 0 105 0 6 3 7 6 89 0 6 6 7 97 9 1 7 6 7 81 
ELSE[ ]	/* Else */
MPPEM[ ]	/* MeasurePixelPerEm */
PUSHB[ ]	/* 1 value pushed */
11 
LT[ ]	/* LessThan */
IF[ ]	/* If */
NPUSHB[ ]	/* 46 values pushed */
0 3 6 7 6 3 7 128 8 1 5 7 5 134 0 4 0 1 4 89 2 1 1 0 0 6 1 0 105 0 6 3 7 6 89 0 6 6 7 97 9 1 7 6 7 81 
ELSE[ ]	/* Else */
NPUSHB[ ]	/* 47 values pushed */
0 3 6 7 6 3 7 128 8 1 5 7 5 134 0 2 0 4 0 2 4 105 0 1 0 0 6 1 0 105 0 6 3 7 6 89 0 6 6 7 97 9 1 7 6 7 81 
EIF[ ]	/* EndIf */
EIF[ ]	/* EndIf */
NPUSHB[ ]	/* 22 values pushed */
28 28 0 0 28 39 28 38 34 32 0 27 0 27 34 18 38 33 35 10 6 27 
CALL[ ]	/* CallFunction */";
};
width = 0;
}
);
note = dvmE_Reph_Anusvara;
},
{
glyphname = dvmAI_Anusvara;
lastChange = "2022-10-20 15:44:45 +0000";
layers = (
{
layerId = m01;
shapes = (
{
closed = 1;
nodes = (
(-182,884,o),
(-250,1008,o),
(-324,1041,o),
(-398,1041,qs),
(-441,1041,l),
(-451,986,l),
(-407,986,ls),
(-356,986,o),
(-298,967,o),
(-243,891,o),
(-212,807,q),
(-253,847,o),
(-310,881,o),
(-369,889,o),
(-427,889,qs),
(-468,889,l),
(-478,835,l),
(-435,835,ls),
(-376,835,o),
(-316,824,o),
(-257,785,o),
(-205,737,q),
(-133,737,l)
);
},
{
closed = 1;
nodes = (
(-17,829,o),
(22,862,o),
(26,885,qs),
(30,908,o),
(3,941,o),
(-20,941,qs),
(-44,941,o),
(-83,908,o),
(-87,885,qs),
(-91,862,o),
(-64,829,o),
(-40,829,qs)
);
}
);
userData = {
assembly = "NPUSHB[ ]	/* 66 values pushed */
11 1 4 6 1 76 7 1 4 6 4 134 0 3 0 2 5 3 2 105 0 5 1 6 5 89 0 1 0 0 6 1 0 105 0 5 5 6 97 8 1 6 5 6 81 23 23 0 0 23 34 23 33 29 27 0 22 0 22 33 38 33 35 9 6 26 
CALL[ ]	/* CallFunction */";
};
width = 0;
}
);
note = dvmAI_Anusvara;
},
{
glyphname = dvmAI_Reph;
lastChange = "2022-10-20 15:44:45 +0000";
layers = (
{
layerId = m01;
shapes = (
{
closed = 1;
nodes = (
(-137,751,ls),
(-146,784,o),
(-140,815,qs),
(-132,863,o),
(-77,915,o),
(-37,915,qs),
(-2,915,o),
(30,869,o),
(22,833,q),
(87,833,l),
(103,898,o),
(48,980,o),
(-12,980,qs),
(-77,980,o),
(-157,900,o),
(-170,842,q),
(-206,936,o),
(-265,1019,o),
(-333,1041,o),
(-398,1041,qs),
(-441,1041,l),
(-451,986,l),
(-407,986,ls),
(-356,986,o),
(-298,967,o),
(-243,891,o),
(-212,807,q),
(-253,847,o),
(-310,881,o),
(-369,889,o),
(-427,889,qs),
(-468,889,l),
(-478,835,l),
(-435,835,ls),
(-376,835,o),
(-316,824,o),
(-257,785,o),
(-205,737,q),
(-133,737,l)
);
}
);
userData = {
assembly = "NPUSHB[ ]	/* 65 values pushed */
22 1 0 1 11 1 7 0 2 76 8 1 7 0 7 134 0 3 0 2 4 3 2 105 0 4 0 6 1 4 6 105 0 1 0 0 1 89 0 1 1 0 97 5 1 0 1 0 81 0 0 0 38 0 38 34 18 37 33 38 33 35 9 6 29 
CALL[ ]	/* CallFunction */";
};
width = 0;
}
);
note = dvmAI_Reph;
},
{
glyphname = dvmAI_Reph_Anusvara;
lastChange = "2022-10-20 15:44:45 +0000";
layers = (
{
layerId = m01;
shapes = (
{
closed = 1;
nodes = (
(-136,747,ls),
(-147,785,o),
(-141,819,qs),
(-132,872,o),
(-66,930,o),
(-18,930,qs),
(25,930,o),
(66,878,o),
(61,837,q),
(120,837,l),
(133,903,o),
(69,985,o),
(1,985,qs),
(-68,985,o),
(-159,906,o),
(-172,848,q),
(-207,939,o),
(-266,1019,o),
(-334,1041,o),
(-398,1041,qs),
(-441,1041,l),
(-451,986,l),
(-407,986,ls),
(-356,986,o),
(-298,967,o),
(-243,891,o),
(-212,807,q),
(-253,847,o),
(-310,881,o),
(-369,889,o),
(-427,889,qs),
(-468,889,l),
(-478,835,l),
(-435,835,ls),
(-376,835,o),
(-316,824,o),
(-257,785,o),
(-205,737,q),
(-133,737,l)
);
},
{
closed = 1;
nodes = (
(-32,788,o),
(-1,815,o),
(2,833,qs),
(5,852,o),
(-16,878,o),
(-35,878,qs),
(-54,878,o),
(-85,852,o),
(-88,833,qs),
(-91,815,o),
(-70,788,o),
(-51,788,qs)
);
}
);
userData = {
assembly = "NPUSHB[ ]	/* 82 values pushed */
22 1 0 8 11 1 9 0 2 76 10 1 7 9 7 134 0 3 0 2 4 3 2 105 0 4 0 6 1 4 6 105 0 8 0 9 8 89 0 1 5 1 0 9 1 0 105 0 8 8 9 97 11 1 9 8 9 81 39 39 0 0 39 50 39 49 45 43 0 38 0 38 34 18 37 33 38 33 35 12 6 29 
CALL[ ]	/* CallFunction */";
};
width = 0;
}
);
note = dvmAI_Reph_Anusvara;
},
{
glyphname = dvmO_Anusvara;
lastChange = "2022-10-20 15:44:45 +0000";
layers = (
{
layerId = m01;
shapes = (
{
closed = 1;
nodes = (
(103,0,l),
(221,670,l),
(352,670,l),
(364,740,l),
(230,740,l),
(185,851,o),
(113,952,o),
(32,981,o),
(-41,981,qs),
(-82,981,l),
(-94,913,l),
(-52,913,ls),
(1,913,o),
(60,892,o),
(113,820,o),
(150,740,q),
(17,740,l),
(5,670,l),
(137,670,l),
(19,0,l)
);
},
{
closed = 1;
nodes = (
(343,830,o),
(382,863,o),
(386,886,qs),
(390,909,o),
(363,942,o),
(340,942,qs),
(316,942,o),
(277,909,o),
(273,886,qs),
(269,863,o),
(296,830,o),
(320,830,qs)
);
}
);
userData = {
assembly = "NPUSHB[ ]	/* 58 values pushed */
0 6 0 6 134 0 3 0 2 8 3 2 105 0 7 9 1 8 1 7 8 105 4 1 1 0 0 1 87 4 1 1 1 0 95 5 1 0 1 0 79 20 20 20 31 20 30 37 17 17 19 33 35 17 16 10 6 30 
CALL[ ]	/* CallFunction */";
};
width = 294;
}
);
note = dvmO_Anusvara;
},
{
glyphname = dvmO_Reph;
lastChange = "2022-10-20 15:44:45 +0000";
layers = (
{
layerId = m01;
shapes = (
{
closed = 1;
nodes = (
(103,0,l),
(221,670,l),
(352,670,l),
(364,740,l),
(230,740,l),
(225,755,o),
(221,796,o),
(224,815,qs),
(233,863,o),
(287,915,o),
(327,915,qs),
(362,915,o),
(395,869,o),
(386,833,q),
(458,833,l),
(475,898,o),
(417,980,o),
(354,980,qs),
(286,980,o),
(203,895,o),
(193,835,qs),
(191,827,l),
(158,896,o),
(95,961,o),
(21,981,o),
(-41,981,qs),
(-82,981,l),
(-94,913,l),
(-52,913,ls),
(1,913,o),
(60,892,o),
(113,820,o),
(150,740,q),
(17,740,l),
(5,670,l),
(137,670,l),
(19,0,l)
);
}
);
userData = {
assembly = "PUSHB[ ]	/* 6 values pushed */
14 1 1 5 1 76 
MPPEM[ ]	/* MeasurePixelPerEm */
PUSHB[ ]	/* 1 value pushed */
16 
LT[ ]	/* LessThan */
IF[ ]	/* If */
NPUSHB[ ]	/* 41 values pushed */
0 5 2 1 2 5 114 0 9 0 9 134 4 1 3 6 1 2 5 3 2 105 7 1 1 0 0 1 87 7 1 1 1 0 95 8 1 0 1 0 79 
ELSE[ ]	/* Else */
NPUSHB[ ]	/* 42 values pushed */
0 5 2 1 2 5 1 128 0 9 0 9 134 4 1 3 6 1 2 5 3 2 105 7 1 1 0 0 1 87 7 1 1 1 0 95 8 1 0 1 0 79 
EIF[ ]	/* EndIf */
NPUSHB[ ]	/* 14 values pushed */
36 35 17 21 34 18 38 33 35 17 16 10 6 31 
CALL[ ]	/* CallFunction */";
};
width = 294;
}
);
note = dvmO_Reph;
},
{
glyphname = dvmO_Reph_Anusvara;
lastChange = "2022-10-20 15:44:45 +0000";
layers = (
{
layerId = m01;
shapes = (
{
closed = 1;
nodes = (
(102,0,l),
(220,670,l),
(351,670,l),
(364,740,l),
(230,740,l),
(216,779,o),
(223,821,qs),
(232,872,o),
(299,930,o),
(346,930,qs),
(389,930,o),
(430,878,o),
(425,837,q),
(484,837,l),
(497,904,o),
(433,985,o),
(365,985,qs),
(291,985,o),
(198,897,o),
(187,835,qs),
(187,834,l),
(154,900,o),
(93,963,o),
(21,981,o),
(-41,981,qs),
(-82,981,l),
(-94,913,l),
(-52,913,ls),
(1,913,o),
(59,892,o),
(113,820,o),
(150,740,q),
(17,740,l),
(4,670,l),
(136,670,l),
(18,0,l)
);
},
{
closed = 1;
nodes = (
(334,788,o),
(365,815,o),
(368,833,qs),
(371,852,o),
(350,878,o),
(331,878,qs),
(312,878,o),
(281,852,o),
(278,833,qs),
(275,815,o),
(296,788,o),
(315,788,qs)
);
}
);
userData = {
assembly = "PUSHB[ ]	/* 6 values pushed */
14 1 11 5 1 76 
MPPEM[ ]	/* MeasurePixelPerEm */
PUSHB[ ]	/* 1 value pushed */
10 
LT[ ]	/* LessThan */
IF[ ]	/* If */
NPUSHB[ ]	/* 57 values pushed */
0 5 10 11 10 5 11 128 0 9 0 9 134 0 4 0 6 2 4 6 105 0 3 0 2 10 3 2 105 0 10 12 1 11 1 10 11 105 7 1 1 0 0 1 87 7 1 1 1 0 95 8 1 0 1 0 79 
ELSE[ ]	/* Else */
MPPEM[ ]	/* MeasurePixelPerEm */
PUSHB[ ]	/* 1 value pushed */
11 
LT[ ]	/* LessThan */
IF[ ]	/* If */
NPUSHB[ ]	/* 56 values pushed */
0 5 10 11 10 5 11 128 0 9 0 9 134 0 6 2 3 6 89 4 1 3 0 2 10 3 2 105 0 10 12 1 11 1 10 11 105 7 1 1 0 0 1 87 7 1 1 1 0 95 8 1 0 1 0 79 
ELSE[ ]	/* Else */
NPUSHB[ ]	/* 57 values pushed */
0 5 10 11 10 5 11 128 0 9 0 9 134 0 4 0 6 2 4 6 105 0 3 0 2 10 3 2 105 0 10 12 1 11 1 10 11 105 7 1 1 0 0 1 87 7 1 1 1 0 95 8 1 0 1 0 79 
EIF[ ]	/* EndIf */
EIF[ ]	/* EndIf */
NPUSHB[ ]	/* 22 values pushed */
36 36 36 47 36 46 42 40 35 34 17 20 34 18 38 33 35 17 16 13 6 31 
CALL[ ]	/* CallFunction */";
};
width = 294;
}
);
note = dvmO_Reph_Anusvara;
},
{
glyphname = dvmAU_Anusvara;
lastChange = "2022-10-20 15:44:45 +0000";
layers = (
{
layerId = m01;
shapes = (
{
closed = 1;
nodes = (
(97,0,l),
(215,670,l),
(346,670,l),
(359,740,l),
(222,740,l),
(173,885,o),
(105,1009,o),
(32,1041,o),
(-42,1041,qs),
(-85,1041,l),
(-95,986,l),
(-51,986,ls),
(0,986,o),
(58,967,o),
(113,891,o),
(144,807,q),
(103,847,o),
(46,881,o),
(-13,889,o),
(-71,889,qs),
(-112,889,l),
(-122,835,l),
(-79,835,ls),
(-21,835,o),
(39,824,o),
(97,786,o),
(148,740,q),
(12,740,l),
(-1,670,l),
(131,670,l),
(13,0,l)
);
},
{
closed = 1;
nodes = (
(339,829,o),
(378,862,o),
(382,885,qs),
(386,908,o),
(359,941,o),
(336,941,qs),
(312,941,o),
(273,908,o),
(269,885,qs),
(265,862,o),
(292,829,o),
(316,829,qs)
);
}
);
userData = {
assembly = "NPUSHB[ ]	/* 75 values pushed */
14 1 1 10 1 76 0 8 0 8 134 0 5 0 4 9 5 4 105 0 3 0 2 10 3 2 105 0 9 11 1 10 1 9 10 105 6 1 1 0 0 1 87 6 1 1 1 0 95 7 1 0 1 0 79 31 31 31 42 31 41 37 35 17 17 19 33 38 33 35 17 16 12 6 31 
CALL[ ]	/* CallFunction */";
};
width = 294;
}
);
note = dvmAU_Anusvara;
},
{
glyphname = dvmAU_Reph;
lastChange = "2022-10-20 15:44:45 +0000";
layers = (
{
layerId = m01;
shapes = (
{
closed = 1;
nodes = (
(97,0,l),
(215,670,l),
(346,670,l),
(359,740,l),
(222,740,l),
(222,741,o),
(219,751,qs),
(210,784,o),
(216,815,qs),
(224,863,o),
(279,915,o),
(319,915,qs),
(354,915,o),
(386,869,o),
(378,833,q),
(443,833,l),
(459,898,o),
(404,980,o),
(344,980,qs),
(279,980,o),
(199,900,o),
(186,842,q),
(150,936,o),
(91,1019,o),
(23,1041,o),
(-42,1041,qs),
(-85,1041,l),
(-95,986,l),
(-51,986,ls),
(0,986,o),
(58,967,o),
(113,891,o),
(144,807,q),
(103,847,o),
(46,881,o),
(-13,889,o),
(-71,889,qs),
(-112,889,l),
(-122,835,l),
(-79,835,ls),
(-21,835,o),
(39,824,o),
(97,786,o),
(148,740,q),
(12,740,l),
(-1,670,l),
(131,670,l),
(13,0,l)
);
}
);
userData = {
assembly = "NPUSHB[ ]	/* 77 values pushed */
25 1 2 3 14 1 1 2 2 76 0 11 0 11 134 0 5 0 4 6 5 4 105 0 6 0 8 3 6 8 105 0 3 7 1 2 1 3 2 105 9 1 1 0 0 1 87 9 1 1 1 0 95 10 1 0 1 0 79 47 46 45 44 43 41 34 18 37 33 38 33 35 17 16 12 6 31 
CALL[ ]	/* CallFunction */";
};
width = 294;
}
);
note = dvmAU_Reph;
},
{
glyphname = dvmAU_Reph_Anusvara;
lastChange = "2022-10-20 15:44:45 +0000";
layers = (
{
layerId = m01;
shapes = (
{
closed = 1;
nodes = (
(97,0,l),
(215,670,l),
(346,670,l),
(359,740,l),
(222,740,l),
(220,747,ls),
(209,785,o),
(215,819,qs),
(224,872,o),
(290,930,o),
(338,930,qs),
(381,930,o),
(422,878,o),
(417,837,q),
(476,837,l),
(489,903,o),
(425,985,o),
(357,985,qs),
(288,985,o),
(197,906,o),
(184,848,q),
(149,939,o),
(90,1019,o),
(22,1041,o),
(-42,1041,qs),
(-85,1041,l),
(-95,986,l),
(-51,986,ls),
(0,986,o),
(58,967,o),
(113,891,o),
(144,807,q),
(103,847,o),
(46,881,o),
(-13,889,o),
(-71,889,qs),
(-112,889,l),
(-122,835,l),
(-79,835,ls),
(-21,835,o),
(39,824,o),
(97,786,o),
(148,740,q),
(12,740,l),
(-1,670,l),
(131,670,l),
(13,0,l)
);
},
{
closed = 1;
nodes = (
(324,788,o),
(355,815,o),
(358,833,qs),
(361,852,o),
(340,878,o),
(321,878,qs),
(302,878,o),
(271,852,o),
(268,833,qs),
(265,815,o),
(286,788,o),
(305,788,qs)
);
}
);
userData = {
assembly = "NPUSHB[ ]	/* 94 values pushed */
25 1 2 12 14 1 13 2 2 76 0 11 0 11 134 0 5 0 4 6 5 4 105 0 6 0 8 3 6 8 105 0 3 7 1 2 13 3 2 105 0 12 14 1 13 1 12 13 105 9 1 1 0 0 1 87 9 1 1 1 0 95 10 1 0 1 0 79 47 47 47 58 47 57 53 51 46 45 44 43 42 41 34 18 37 33 38 33 35 17 16 15 6 31 
CALL[ ]	/* CallFunction */";
};
width = 294;
}
);
note = dvmAU_Reph_Anusvara;
},
{
glyphname = dvmEcandra_Anusvara;
lastChange = "2022-10-20 15:44:45 +0000";
layers = (
{
layerId = m01;
shapes = (
{
closed = 1;
nodes = (
(-102,818,o),
(-2,865,o),
(58,945,o),
(66,994,q),
(-2,994,l),
(-10,948,o),
(-92,879,o),
(-157,879,qs),
(-222,879,o),
(-280,948,o),
(-272,994,q),
(-341,994,l),
(-349,945,o),
(-317,865,o),
(-234,818,o),
(-168,818,qs)
);
},
{
closed = 1;
nodes = (
(-121,982,o),
(-93,1006,o),
(-90,1023,qs),
(-87,1040,o),
(-106,1065,o),
(-124,1065,qs),
(-141,1065,o),
(-170,1040,o),
(-173,1023,qs),
(-176,1006,o),
(-156,982,o),
(-139,982,qs)
);
}
);
userData = {
assembly = "NPUSHB[ ]	/* 55 values pushed */
2 1 0 4 5 4 0 5 128 0 4 7 1 5 1 4 5 105 0 1 3 3 1 89 0 1 1 3 97 6 1 3 1 3 81 16 16 0 0 16 27 16 26 22 20 0 15 0 14 18 34 19 8 6 25 
CALL[ ]	/* CallFunction */";
};
width = 0;
}
);
note = dvmEcandra_Anusvara;
},
{
glyphname = dvmOcandra_Anusvara;
lastChange = "2022-10-20 15:44:45 +0000";
layers = (
{
layerId = m01;
shapes = (
{
closed = 1;
nodes = (
(11,0,l),
(95,0,l),
(213,670,l),
(344,670,l),
(357,740,l),
(10,740,l),
(-3,670,l),
(129,670,l)
);
},
{
closed = 1;
nodes = (
(263,818,o),
(363,865,o),
(423,945,o),
(431,994,q),
(363,994,l),
(355,948,o),
(273,879,o),
(208,879,qs),
(143,879,o),
(85,948,o),
(93,994,q),
(24,994,l),
(16,945,o),
(48,865,o),
(131,818,o),
(197,818,qs)
);
},
{
closed = 1;
nodes = (
(244,982,o),
(272,1006,o),
(275,1023,qs),
(278,1040,o),
(259,1065,o),
(241,1065,qs),
(224,1065,o),
(195,1040,o),
(192,1023,qs),
(189,1006,o),
(209,982,o),
(226,982,qs)
);
}
);
userData = {
assembly = "NPUSHB[ ]	/* 82 values pushed */
6 1 4 8 9 8 4 9 128 0 2 1 2 134 0 8 12 1 9 5 8 9 105 0 5 11 1 7 0 5 7 105 0 0 1 1 0 87 0 0 0 1 95 10 3 2 1 0 1 79 24 24 8 8 0 0 24 35 24 34 30 28 8 23 8 22 19 18 16 14 12 11 0 7 0 7 17 17 17 13 6 25 
CALL[ ]	/* CallFunction */";
};
width = 294;
}
);
note = dvmOcandra_Anusvara;
},
{
glyphname = dvRA_mU;
lastChange = "2022-10-20 15:44:45 +0000";
layers = (
{
layerId = m01;
shapes = (
{
closed = 1;
nodes = (
(162,348,l),
(163,352,l),
(170,352,l)
);
},
{
closed = 1;
nodes = (
(27,670,l),
(413,670,l),
(397,581,ls),
(368,414,o),
(197,414,qs),
(92,414,l),
(55,207,ls),
(38,109,o),
(118,-9,o),
(215,-9,qs),
(304,-9,o),
(426,100,o),
(443,193,qs),
(445,207,l),
(365,207,l),
(362,191,ls),
(352,133,o),
(279,63,o),
(226,63,qs),
(170,63,o),
(125,139,o),
(136,202,qs),
(161,345,l),
(581,345,ls),
(637,345,o),
(693,290,o),
(684,240,qs),
(675,191,o),
(607,138,o),
(556,138,qs),
(527,138,o),
(506,145,q),
(494,76,l),
(527,70,o),
(551,70,qs),
(633,70,o),
(746,160,o),
(759,236,qs),
(774,321,o),
(686,414,o),
(588,414,qs),
(392,414,l),
(461,475,o),
(480,581,qs),
(496,670,l),
(930,670,l),
(942,740,l),
(39,740,l)
);
}
);
userData = {
assembly = "NPUSHB[ ]	/* 85 values pushed */
2 1 4 1 18 1 3 6 17 1 2 3 3 76 0 6 4 3 4 6 3 128 11 1 10 9 1 0 1 10 0 103 8 1 1 0 4 6 1 4 103 0 3 0 2 5 3 2 105 0 5 7 7 5 89 0 5 5 7 97 0 7 5 7 81 3 3 3 50 3 50 49 48 35 35 19 35 36 35 36 35 20 12 6 31 
CALL[ ]	/* CallFunction */";
};
width = 829;
}
);
note = dvRA_mU;
},
{
glyphname = dvRA_mUU;
lastChange = "2022-10-20 15:44:45 +0000";
layers = (
{
layerId = m01;
shapes = (
{
closed = 1;
nodes = (
(162,348,l),
(163,352,l),
(170,352,l)
);
},
{
closed = 1;
nodes = (
(27,670,l),
(413,670,l),
(397,581,ls),
(368,414,o),
(197,414,qs),
(92,414,l),
(55,207,ls),
(38,109,o),
(118,-9,o),
(215,-9,qs),
(304,-9,o),
(426,100,o),
(443,193,qs),
(445,207,l),
(365,207,l),
(362,191,ls),
(352,133,o),
(279,63,o),
(226,63,qs),
(170,63,o),
(125,139,o),
(136,202,qs),
(161,345,l),
(468,345,ls),
(537,345,o),
(600,278,o),
(588,215,qs),
(571,118,l),
(649,118,l),
(667,216,ls),
(683,311,o),
(593,414,o),
(489,414,qs),
(392,414,l),
(461,475,o),
(480,581,qs),
(496,670,l),
(834,670,l),
(846,740,l),
(39,740,l)
);
}
);
userData = {
assembly = "NPUSHB[ ]	/* 74 values pushed */
2 1 3 1 1 76 0 5 3 2 3 5 2 128 0 2 4 3 2 4 126 10 1 9 8 1 0 1 9 0 103 7 1 1 0 3 5 1 3 103 0 4 6 6 4 89 0 4 4 6 97 0 6 4 6 81 3 3 3 42 3 42 18 35 35 19 35 35 19 35 20 11 6 31 
CALL[ ]	/* CallFunction */";
};
width = 753;
}
);
note = dvRA_mUU;
},
{
glyphname = dvmI.a01;
lastChange = "2022-10-20 15:44:45 +0000";
layers = (
{
layerId = m01;
shapes = (
{
closed = 1;
nodes = (
(219,670,l),
(350,670,l),
(363,740,l),
(231,740,l),
(249,843,o),
(401,927,o),
(498,927,qs),
(555,927,o),
(654,890,o),
(709,804,o),
(697,736,qs),
(694,720,l),
(776,720,l),
(779,737,ls),
(794,822,o),
(729,939,o),
(596,996,o),
(510,996,qs),
(374,996,o),
(173,870,o),
(148,740,q),
(16,740,l),
(3,670,l),
(135,670,l),
(17,0,l),
(101,0,l)
);
}
);
userData = {
assembly = "NPUSHB[ ]	/* 57 values pushed */
0 3 1 0 1 3 0 128 8 1 7 0 7 134 0 2 0 4 1 2 4 105 5 1 1 3 0 1 87 5 1 1 1 0 95 6 1 0 1 0 79 0 0 0 25 0 25 17 18 36 20 34 17 17 9 6 29 
CALL[ ]	/* CallFunction */";
};
width = 294;
}
);
note = dvmI.a01;
},
{
glyphname = dvmI.a02;
lastChange = "2022-10-20 15:44:45 +0000";
layers = (
{
layerId = m01;
shapes = (
{
closed = 1;
nodes = (
(219,670,l),
(350,670,l),
(363,740,l),
(231,740,l),
(249,843,o),
(409,928,o),
(523,928,qs),
(634,928,o),
(768,835,o),
(751,735,qs),
(748,719,l),
(829,719,l),
(832,737,ls),
(847,822,o),
(779,939,o),
(634,997,o),
(535,997,qs),
(381,997,o),
(173,872,o),
(148,740,q),
(16,740,l),
(3,670,l),
(135,670,l),
(17,0,l),
(101,0,l)
);
}
);
userData = {
assembly = "NPUSHB[ ]	/* 57 values pushed */
0 3 1 0 1 3 0 128 8 1 7 0 7 134 0 2 0 4 1 2 4 105 5 1 1 3 0 1 87 5 1 1 1 0 95 6 1 0 1 0 79 0 0 0 24 0 24 17 18 35 20 34 17 17 9 6 29 
CALL[ ]	/* CallFunction */";
};
width = 294;
}
);
note = dvmI.a02;
},
{
glyphname = dvmI.a03;
lastChange = "2022-10-20 15:44:45 +0000";
layers = (
{
layerId = m01;
shapes = (
{
closed = 1;
nodes = (
(219,670,l),
(350,670,l),
(362,740,l),
(230,740,l),
(249,844,o),
(416,929,o),
(549,929,qs),
(680,929,o),
(822,836,o),
(804,733,qs),
(802,719,l),
(884,719,l),
(887,735,ls),
(909,864,o),
(732,998,o),
(561,998,qs),
(389,998,o),
(173,873,o),
(147,740,q),
(15,740,l),
(3,670,l),
(135,670,l),
(17,0,l),
(101,0,l)
);
}
);
userData = {
assembly = "NPUSHB[ ]	/* 57 values pushed */
0 3 1 0 1 3 0 128 8 1 7 0 7 134 0 2 0 4 1 2 4 105 5 1 1 3 0 1 87 5 1 1 1 0 95 6 1 0 1 0 79 0 0 0 23 0 23 17 18 35 19 34 17 17 9 6 29 
CALL[ ]	/* CallFunction */";
};
width = 294;
}
);
note = dvmI.a03;
},
{
glyphname = dvmI.a04;
lastChange = "2022-10-20 15:44:45 +0000";
layers = (
{
layerId = m01;
shapes = (
{
closed = 1;
nodes = (
(219,670,l),
(350,670,l),
(362,740,l),
(230,740,l),
(249,844,o),
(424,930,o),
(574,930,qs),
(723,930,o),
(875,835,o),
(857,732,qs),
(855,718,l),
(937,718,l),
(940,735,ls),
(962,864,o),
(777,999,o),
(587,999,qs),
(397,999,o),
(174,874,o),
(147,740,q),
(15,740,l),
(3,670,l),
(135,670,l),
(17,0,l),
(101,0,l)
);
}
);
userData = {
assembly = "NPUSHB[ ]	/* 57 values pushed */
0 3 1 0 1 3 0 128 8 1 7 0 7 134 0 2 0 4 1 2 4 105 5 1 1 3 0 1 87 5 1 1 1 0 95 6 1 0 1 0 79 0 0 0 23 0 23 17 18 35 19 34 17 17 9 6 29 
CALL[ ]	/* CallFunction */";
};
width = 294;
}
);
note = dvmI.a04;
},
{
glyphname = dvmI.a05;
lastChange = "2022-10-20 15:44:45 +0000";
layers = (
{
layerId = m01;
shapes = (
{
closed = 1;
nodes = (
(219,670,l),
(350,670,l),
(362,740,l),
(230,740,l),
(249,845,o),
(431,931,o),
(599,931,qs),
(767,931,o),
(929,836,o),
(911,732,qs),
(908,717,l),
(990,717,l),
(993,734,ls),
(1016,865,o),
(821,1000,o),
(612,1000,qs),
(404,1000,o),
(174,875,o),
(147,740,q),
(15,740,l),
(3,670,l),
(135,670,l),
(17,0,l),
(101,0,l)
);
}
);
userData = {
assembly = "NPUSHB[ ]	/* 57 values pushed */
0 3 1 0 1 3 0 128 8 1 7 0 7 134 0 2 0 4 1 2 4 105 5 1 1 3 0 1 87 5 1 1 1 0 95 6 1 0 1 0 79 0 0 0 23 0 23 17 18 35 19 34 17 17 9 6 29 
CALL[ ]	/* CallFunction */";
};
width = 294;
}
);
note = dvmI.a05;
},
{
glyphname = dvmI.a06;
lastChange = "2022-10-20 15:44:45 +0000";
layers = (
{
layerId = m01;
shapes = (
{
closed = 1;
nodes = (
(219,670,l),
(350,670,l),
(362,740,l),
(230,740,l),
(244,812,o),
(340,896,o),
(502,932,o),
(625,932,qs),
(811,932,o),
(982,836,o),
(964,731,qs),
(961,716,l),
(1043,716,l),
(1046,732,ls),
(1069,865,o),
(866,1001,o),
(639,1001,qs),
(413,1001,o),
(174,876,o),
(147,740,q),
(15,740,l),
(3,670,l),
(135,670,l),
(17,0,l),
(101,0,l)
);
}
);
userData = {
assembly = "NPUSHB[ ]	/* 57 values pushed */
0 3 1 0 1 3 0 128 8 1 7 0 7 134 0 2 0 4 1 2 4 105 5 1 1 3 0 1 87 5 1 1 1 0 95 6 1 0 1 0 79 0 0 0 24 0 24 17 19 35 19 34 17 17 9 6 29 
CALL[ ]	/* CallFunction */";
};
width = 294;
}
);
note = dvmI.a06;
},
{
glyphname = dvmI.a07;
lastChange = "2022-10-20 15:44:45 +0000";
layers = (
{
layerId = m01;
shapes = (
{
closed = 1;
nodes = (
(219,670,l),
(350,670,l),
(362,740,l),
(230,740,l),
(244,812,o),
(342,895,o),
(515,932,o),
(651,932,qs),
(856,932,o),
(1037,836,o),
(1018,730,qs),
(1016,717,l),
(1098,716,l),
(1101,731,ls),
(1148,1001,o),
(665,1001,qs),
(502,1001,o),
(286,946,o),
(165,831,o),
(147,740,q),
(15,740,l),
(3,670,l),
(135,670,l),
(17,0,l),
(101,0,l)
);
}
);
userData = {
assembly = "NPUSHB[ ]	/* 57 values pushed */
0 3 1 0 1 3 0 128 8 1 7 0 7 134 0 2 0 4 1 2 4 105 5 1 1 3 0 1 87 5 1 1 1 0 95 6 1 0 1 0 79 0 0 0 24 0 24 17 19 35 18 35 17 17 9 6 29 
CALL[ ]	/* CallFunction */";
};
width = 294;
}
);
note = dvmI.a07;
},
{
glyphname = dvmI.a08;
lastChange = "2022-10-20 15:44:45 +0000";
layers = (
{
layerId = m01;
shapes = (
{
closed = 1;
nodes = (
(219,670,l),
(350,670,l),
(362,740,l),
(230,740,l),
(245,812,o),
(344,896,o),
(528,933,o),
(676,933,qs),
(900,933,o),
(1091,835,o),
(1072,729,qs),
(1070,717,l),
(1151,716,l),
(1154,731,ls),
(1177,865,o),
(955,1002,o),
(691,1002,qs),
(514,1002,o),
(288,947,o),
(165,832,o),
(147,740,q),
(15,740,l),
(3,670,l),
(135,670,l),
(17,0,l),
(101,0,l)
);
}
);
userData = {
assembly = "NPUSHB[ ]	/* 57 values pushed */
0 3 1 0 1 3 0 128 8 1 7 0 7 134 0 2 0 4 1 2 4 105 5 1 1 3 0 1 87 5 1 1 1 0 95 6 1 0 1 0 79 0 0 0 25 0 25 17 19 35 19 35 17 17 9 6 29 
CALL[ ]	/* CallFunction */";
};
width = 294;
}
);
note = dvmI.a08;
},
{
glyphname = dvmI.a09;
lastChange = "2022-10-20 15:44:45 +0000";
layers = (
{
layerId = m01;
shapes = (
{
closed = 1;
nodes = (
(219,670,l),
(350,670,l),
(362,740,l),
(230,740,l),
(245,812,o),
(347,896,o),
(541,934,o),
(701,934,qs),
(864,934,o),
(1059,890,o),
(1137,799,o),
(1125,727,qs),
(1123,716,l),
(1205,715,l),
(1207,730,ls),
(1231,865,o),
(998,1003,o),
(715,1003,qs),
(527,1003,o),
(291,948,o),
(166,833,o),
(147,740,q),
(15,740,l),
(3,670,l),
(135,670,l),
(17,0,l),
(101,0,l)
);
}
);
userData = {
assembly = "NPUSHB[ ]	/* 57 values pushed */
0 3 1 0 1 3 0 128 8 1 7 0 7 134 0 2 0 4 1 2 4 105 5 1 1 3 0 1 87 5 1 1 1 0 95 6 1 0 1 0 79 0 0 0 26 0 26 17 19 36 19 35 17 17 9 6 29 
CALL[ ]	/* CallFunction */";
};
width = 294;
}
);
note = dvmI.a09;
},
{
glyphname = dvmI.a10;
lastChange = "2022-10-20 15:44:45 +0000";
layers = (
{
layerId = m01;
shapes = (
{
closed = 1;
nodes = (
(219,670,l),
(350,670,l),
(362,740,l),
(230,740,l),
(245,812,o),
(349,897,o),
(555,935,o),
(727,935,qs),
(903,935,o),
(1109,890,o),
(1191,799,o),
(1179,727,qs),
(1177,715,l),
(1258,714,l),
(1261,729,ls),
(1285,865,o),
(1044,1004,o),
(742,1004,qs),
(541,1004,o),
(293,948,o),
(166,833,o),
(147,740,q),
(15,740,l),
(3,670,l),
(135,670,l),
(16,0,l),
(100,0,l)
);
}
);
userData = {
assembly = "NPUSHB[ ]	/* 57 values pushed */
0 3 1 0 1 3 0 128 8 1 7 0 7 134 0 2 0 4 1 2 4 105 5 1 1 3 0 1 87 5 1 1 1 0 95 6 1 0 1 0 79 0 0 0 26 0 26 17 19 36 19 35 17 17 9 6 29 
CALL[ ]	/* CallFunction */";
};
width = 294;
}
);
note = dvmI.a10;
},
{
glyphname = dvmI.a11;
lastChange = "2022-10-20 15:44:45 +0000";
layers = (
{
layerId = m01;
shapes = (
{
closed = 1;
nodes = (
(219,670,l),
(350,670,l),
(362,740,l),
(230,740,l),
(245,812,o),
(351,897,o),
(567,936,o),
(752,936,qs),
(941,936,o),
(1160,890,o),
(1246,798,o),
(1233,726,qs),
(1231,714,l),
(1312,713,l),
(1315,728,ls),
(1331,819,o),
(1236,941,o),
(985,1005,o),
(768,1005,qs),
(555,1005,o),
(296,948,o),
(166,833,o),
(147,740,q),
(15,740,l),
(3,670,l),
(135,670,l),
(16,0,l),
(100,0,l)
);
}
);
userData = {
assembly = "NPUSHB[ ]	/* 57 values pushed */
0 3 1 0 1 3 0 128 8 1 7 0 7 134 0 2 0 4 1 2 4 105 5 1 1 3 0 1 87 5 1 1 1 0 95 6 1 0 1 0 79 0 0 0 27 0 27 17 19 36 20 35 17 17 9 6 29 
CALL[ ]	/* CallFunction */";
};
width = 294;
}
);
note = dvmI.a11;
},
{
glyphname = dvmI.a12;
lastChange = "2022-10-20 15:44:45 +0000";
layers = (
{
layerId = m01;
shapes = (
{
closed = 1;
nodes = (
(218,670,l),
(349,670,l),
(362,740,l),
(230,740,l),
(244,811,o),
(353,896,o),
(583,937,o),
(779,937,qs),
(980,937,o),
(1211,890,o),
(1300,797,o),
(1287,725,qs),
(1285,714,l),
(1366,713,l),
(1368,726,ls),
(1384,817,o),
(1287,940,o),
(1024,1006,o),
(794,1006,qs),
(568,1006,o),
(298,949,o),
(166,834,o),
(147,740,q),
(15,740,l),
(2,670,l),
(134,670,l),
(16,0,l),
(100,0,l)
);
}
);
userData = {
assembly = "NPUSHB[ ]	/* 57 values pushed */
0 3 1 0 1 3 0 128 8 1 7 0 7 134 0 2 0 4 1 2 4 105 5 1 1 3 0 1 87 5 1 1 1 0 95 6 1 0 1 0 79 0 0 0 27 0 27 17 19 36 20 35 17 17 9 6 29 
CALL[ ]	/* CallFunction */";
};
width = 294;
}
);
note = dvmI.a12;
},
{
glyphname = dvmI.a13;
lastChange = "2022-10-20 15:44:45 +0000";
layers = (
{
layerId = m01;
shapes = (
{
closed = 1;
nodes = (
(218,670,l),
(349,670,l),
(362,740,l),
(230,740,l),
(244,812,o),
(355,897,o),
(595,938,o),
(804,938,qs),
(1018,938,o),
(1261,890,o),
(1352,797,o),
(1339,724,qs),
(1337,713,l),
(1420,713,l),
(1422,726,ls),
(1438,818,o),
(1338,941,o),
(1062,1007,o),
(819,1007,qs),
(582,1007,o),
(301,949,o),
(166,834,o),
(147,740,q),
(15,740,l),
(2,670,l),
(134,670,l),
(16,0,l),
(100,0,l)
);
}
);
userData = {
assembly = "NPUSHB[ ]	/* 57 values pushed */
0 3 1 0 1 3 0 128 8 1 7 0 7 134 0 2 0 4 1 2 4 105 5 1 1 3 0 1 87 5 1 1 1 0 95 6 1 0 1 0 79 0 0 0 27 0 27 17 19 36 20 35 17 17 9 6 29 
CALL[ ]	/* CallFunction */";
};
width = 294;
}
);
note = dvmI.a13;
},
{
glyphname = dvmI.a14;
lastChange = "2022-10-20 15:44:45 +0000";
layers = (
{
layerId = m01;
shapes = (
{
closed = 1;
nodes = (
(218,670,l),
(349,670,l),
(362,740,l),
(230,740,l),
(245,811,o),
(358,897,o),
(610,939,o),
(829,939,qs),
(1056,939,o),
(1311,890,o),
(1405,795,o),
(1392,722,qs),
(1391,713,l),
(1474,712,l),
(1476,724,ls),
(1492,817,o),
(1389,941,o),
(1101,1008,o),
(846,1008,qs),
(595,1008,o),
(303,950,o),
(166,834,o),
(147,740,q),
(15,740,l),
(2,670,l),
(134,670,l),
(16,0,l),
(100,0,l)
);
}
);
userData = {
assembly = "NPUSHB[ ]	/* 57 values pushed */
0 3 1 0 1 3 0 128 8 1 7 0 7 134 0 2 0 4 1 2 4 105 5 1 1 3 0 1 87 5 1 1 1 0 95 6 1 0 1 0 79 0 0 0 27 0 27 17 19 36 20 35 17 17 9 6 29 
CALL[ ]	/* CallFunction */";
};
width = 294;
}
);
note = dvmI.a14;
},
{
glyphname = dvmI.a15;
lastChange = "2022-10-20 15:44:45 +0000";
layers = (
{
layerId = m01;
shapes = (
{
closed = 1;
nodes = (
(218,670,l),
(349,670,l),
(362,740,l),
(230,740,l),
(245,812,o),
(360,898,o),
(622,940,o),
(856,940,qs),
(1096,940,o),
(1363,890,o),
(1460,795,o),
(1447,722,qs),
(1446,712,l),
(1527,711,l),
(1530,724,ls),
(1546,816,o),
(1440,941,o),
(1140,1009,o),
(872,1009,qs),
(609,1009,o),
(306,950,o),
(166,834,o),
(147,740,q),
(15,740,l),
(2,670,l),
(134,670,l),
(16,0,l),
(100,0,l)
);
}
);
userData = {
assembly = "NPUSHB[ ]	/* 57 values pushed */
0 3 1 0 1 3 0 128 8 1 7 0 7 134 0 2 0 4 1 2 4 105 5 1 1 3 0 1 87 5 1 1 1 0 95 6 1 0 1 0 79 0 0 0 27 0 27 17 19 36 20 35 17 17 9 6 29 
CALL[ ]	/* CallFunction */";
};
width = 294;
}
);
note = dvmI.a15;
},
{
glyphname = dvmI.a16;
lastChange = "2022-10-20 15:44:45 +0000";
layers = (
{
layerId = m01;
shapes = (
{
closed = 1;
nodes = (
(218,670,l),
(349,670,l),
(361,740,l),
(229,740,l),
(245,811,o),
(363,897,o),
(637,941,o),
(881,941,qs),
(1134,941,o),
(1413,890,o),
(1513,795,o),
(1500,722,qs),
(1498,711,l),
(1581,711,l),
(1583,723,ls),
(1600,816,o),
(1491,941,o),
(1178,1010,o),
(897,1010,qs),
(622,1010,o),
(308,951,o),
(166,834,o),
(146,740,q),
(14,740,l),
(2,670,l),
(134,670,l),
(16,0,l),
(100,0,l)
);
}
);
userData = {
assembly = "NPUSHB[ ]	/* 57 values pushed */
0 3 1 0 1 3 0 128 8 1 7 0 7 134 0 2 0 4 1 2 4 105 5 1 1 3 0 1 87 5 1 1 1 0 95 6 1 0 1 0 79 0 0 0 27 0 27 17 19 36 20 35 17 17 9 6 29 
CALL[ ]	/* CallFunction */";
};
width = 294;
}
);
note = dvmI.a16;
},
{
glyphname = dvmI.a17;
lastChange = "2022-10-20 15:44:45 +0000";
layers = (
{
layerId = m01;
shapes = (
{
closed = 1;
nodes = (
(218,670,l),
(349,670,l),
(361,740,l),
(229,740,l),
(245,811,o),
(365,898,o),
(650,942,o),
(906,942,qs),
(1171,942,o),
(1464,890,o),
(1567,794,o),
(1554,720,qs),
(1552,711,l),
(1634,710,l),
(1636,721,ls),
(1653,815,o),
(1541,942,o),
(1217,1011,o),
(923,1011,qs),
(636,1011,o),
(311,951,o),
(166,835,o),
(146,740,q),
(14,740,l),
(2,670,l),
(134,670,l),
(16,0,l),
(100,0,l)
);
}
);
userData = {
assembly = "NPUSHB[ ]	/* 57 values pushed */
0 3 1 0 1 3 0 128 8 1 7 0 7 134 0 2 0 4 1 2 4 105 5 1 1 3 0 1 87 5 1 1 1 0 95 6 1 0 1 0 79 0 0 0 27 0 27 17 19 36 20 35 17 17 9 6 29 
CALL[ ]	/* CallFunction */";
};
width = 294;
}
);
note = dvmI.a17;
},
{
glyphname = dvmI.a18;
lastChange = "2022-10-20 15:44:45 +0000";
layers = (
{
layerId = m01;
shapes = (
{
closed = 1;
nodes = (
(218,670,l),
(349,670,l),
(361,740,l),
(229,740,l),
(245,812,o),
(369,898,o),
(664,943,o),
(932,943,qs),
(1210,943,o),
(1514,890,o),
(1620,792,o),
(1608,719,qs),
(1606,711,l),
(1688,710,l),
(1690,721,ls),
(1706,815,o),
(1592,941,o),
(1255,1012,o),
(948,1012,qs),
(649,1012,o),
(312,951,o),
(166,835,o),
(146,740,q),
(14,740,l),
(2,670,l),
(134,670,l),
(16,0,l),
(100,0,l)
);
}
);
userData = {
assembly = "NPUSHB[ ]	/* 57 values pushed */
0 3 1 0 1 3 0 128 8 1 7 0 7 134 0 2 0 4 1 2 4 105 5 1 1 3 0 1 87 5 1 1 1 0 95 6 1 0 1 0 79 0 0 0 27 0 27 17 19 36 20 35 17 17 9 6 29 
CALL[ ]	/* CallFunction */";
};
width = 294;
}
);
note = dvmI.a18;
},
{
glyphname = dvmI.a19;
lastChange = "2022-10-20 15:44:45 +0000";
layers = (
{
layerId = m01;
shapes = (
{
closed = 1;
nodes = (
(218,670,l),
(349,670,l),
(361,740,l),
(229,740,l),
(245,811,o),
(371,898,o),
(678,944,o),
(957,944,qs),
(1248,944,o),
(1565,890,o),
(1674,792,o),
(1661,718,qs),
(1660,710,l),
(1743,709,l),
(1745,721,ls),
(1761,815,o),
(1644,942,o),
(1294,1013,o),
(974,1013,qs),
(663,1013,o),
(316,952,o),
(166,835,o),
(146,740,q),
(14,740,l),
(2,670,l),
(134,670,l),
(16,0,l),
(100,0,l)
);
}
);
userData = {
assembly = "NPUSHB[ ]	/* 57 values pushed */
0 3 1 0 1 3 0 128 8 1 7 0 7 134 0 2 0 4 1 2 4 105 5 1 1 3 0 1 87 5 1 1 1 0 95 6 1 0 1 0 79 0 0 0 27 0 27 17 19 36 20 35 17 17 9 6 29 
CALL[ ]	/* CallFunction */";
};
width = 294;
}
);
note = dvmI.a19;
},
{
glyphname = dvmI.a20;
lastChange = "2022-10-20 15:44:45 +0000";
layers = (
{
layerId = m01;
shapes = (
{
closed = 1;
nodes = (
(218,670,l),
(349,670,l),
(361,740,l),
(229,740,l),
(245,811,o),
(374,898,o),
(692,945,o),
(982,945,qs),
(1286,945,o),
(1616,890,o),
(1727,791,o),
(1714,717,qs),
(1713,710,l),
(1796,709,l),
(1797,719,ls),
(1814,814,o),
(1694,942,o),
(1333,1014,o),
(1000,1014,qs),
(677,1014,o),
(317,952,o),
(166,835,o),
(146,740,q),
(14,740,l),
(2,670,l),
(134,670,l),
(16,0,l),
(100,0,l)
);
}
);
userData = {
assembly = "NPUSHB[ ]	/* 57 values pushed */
0 3 1 0 1 3 0 128 8 1 7 0 7 134 0 2 0 4 1 2 4 105 5 1 1 3 0 1 87 5 1 1 1 0 95 6 1 0 1 0 79 0 0 0 27 0 27 17 19 36 20 35 17 17 9 6 29 
CALL[ ]	/* CallFunction */";
};
width = 294;
}
);
note = dvmI.a20;
},
{
glyphname = dvmI.a21;
lastChange = "2022-10-20 15:44:45 +0000";
layers = (
{
layerId = m01;
shapes = (
{
closed = 1;
nodes = (
(218,670,l),
(349,670,l),
(361,740,l),
(229,740,l),
(245,811,o),
(376,898,o),
(705,945,o),
(1008,945,qs),
(1324,945,o),
(1666,890,o),
(1781,790,o),
(1768,716,qs),
(1767,709,l),
(1849,708,l),
(1851,718,ls),
(1868,813,o),
(1745,941,o),
(1372,1014,o),
(1026,1014,qs),
(690,1014,o),
(320,952,o),
(166,835,o),
(146,740,q),
(14,740,l),
(2,670,l),
(134,670,l),
(16,0,l),
(100,0,l)
);
}
);
userData = {
assembly = "NPUSHB[ ]	/* 57 values pushed */
0 3 1 0 1 3 0 128 8 1 7 0 7 134 0 2 0 4 1 2 4 105 5 1 1 3 0 1 87 5 1 1 1 0 95 6 1 0 1 0 79 0 0 0 27 0 27 17 19 36 20 35 17 17 9 6 29 
CALL[ ]	/* CallFunction */";
};
width = 294;
}
);
note = dvmI.a21;
},
{
glyphname = dvmI.a22;
lastChange = "2022-10-20 15:44:45 +0000";
layers = (
{
layerId = m01;
shapes = (
{
closed = 1;
nodes = (
(218,670,l),
(349,670,l),
(361,740,l),
(229,740,l),
(245,811,o),
(378,898,o),
(718,946,o),
(1033,946,qs),
(1362,946,o),
(1716,889,o),
(1835,789,o),
(1822,715,qs),
(1821,709,l),
(1902,707,l),
(1904,717,ls),
(1921,812,o),
(1794,941,o),
(1410,1015,o),
(1052,1015,qs),
(704,1015,o),
(323,953,o),
(166,836,o),
(146,740,q),
(14,740,l),
(2,670,l),
(134,670,l),
(16,0,l),
(100,0,l)
);
}
);
userData = {
assembly = "NPUSHB[ ]	/* 57 values pushed */
0 3 1 0 1 3 0 128 8 1 7 0 7 134 0 2 0 4 1 2 4 105 5 1 1 3 0 1 87 5 1 1 1 0 95 6 1 0 1 0 79 0 0 0 27 0 27 17 19 36 20 35 17 17 9 6 29 
CALL[ ]	/* CallFunction */";
};
width = 294;
}
);
note = dvmI.a22;
},
{
glyphname = dvmI.a23;
lastChange = "2022-10-20 15:44:45 +0000";
layers = (
{
layerId = m01;
shapes = (
{
closed = 1;
nodes = (
(218,670,l),
(349,670,l),
(361,740,l),
(229,740,l),
(245,811,o),
(382,898,o),
(733,947,o),
(1059,947,qs),
(1401,947,o),
(1767,890,o),
(1889,789,o),
(1875,714,qs),
(1874,708,l),
(1957,707,l),
(1959,716,ls),
(1976,812,o),
(1847,942,o),
(1450,1016,o),
(1078,1016,qs),
(719,1016,o),
(326,953,o),
(167,835,o),
(146,740,q),
(14,740,l),
(2,670,l),
(134,670,l),
(15,0,l),
(99,0,l)
);
}
);
userData = {
assembly = "NPUSHB[ ]	/* 57 values pushed */
0 3 1 0 1 3 0 128 8 1 7 0 7 134 0 2 0 4 1 2 4 105 5 1 1 3 0 1 87 5 1 1 1 0 95 6 1 0 1 0 79 0 0 0 27 0 27 17 19 36 20 35 17 17 9 6 29 
CALL[ ]	/* CallFunction */";
};
width = 294;
}
);
note = dvmI.a23;
},
{
glyphname = dvmI.a24;
lastChange = "2022-10-20 15:44:45 +0000";
layers = (
{
layerId = m01;
shapes = (
{
closed = 1;
nodes = (
(217,670,l),
(348,670,l),
(361,740,l),
(229,740,l),
(245,811,o),
(384,899,o),
(747,948,o),
(1085,948,qs),
(1439,948,o),
(1817,890,o),
(1942,788,o),
(1929,713,qs),
(1928,707,l),
(2011,706,l),
(2012,715,ls),
(2029,811,o),
(1897,942,o),
(1489,1017,o),
(1105,1017,qs),
(733,1017,o),
(328,953,o),
(167,836,o),
(146,740,q),
(14,740,l),
(1,670,l),
(133,670,l),
(15,0,l),
(99,0,l)
);
}
);
userData = {
assembly = "NPUSHB[ ]	/* 57 values pushed */
0 3 1 0 1 3 0 128 8 1 7 0 7 134 0 2 0 4 1 2 4 105 5 1 1 3 0 1 87 5 1 1 1 0 95 6 1 0 1 0 79 0 0 0 27 0 27 17 19 36 20 35 17 17 9 6 29 
CALL[ ]	/* CallFunction */";
};
width = 294;
}
);
note = dvmI.a24;
},
{
glyphname = exclam;
lastChange = "2022-10-20 15:44:45 +0000";
layers = (
{
layerId = m01;
shapes = (
{
closed = 1;
nodes = (
(50,188,o),
(55,182,o),
(59,182,qs),
(175,182,ls),
(179,182,o),
(186,188,o),
(187,192,qs),
(288,702,ls),
(290,712,o),
(280,712,qs),
(142,712,ls),
(132,712,o),
(130,702,qs),
(51,192,ls)
);
},
{
closed = 1;
nodes = (
(194,87,o),
(152,133,o),
(113,133,qs),
(74,133,o),
(12,86,o),
(7,56,qs),
(2,26,o),
(46,-21,o),
(85,-21,qs),
(124,-21,o),
(183,25,o),
(189,56,qs)
);
}
);
userData = {
assembly = "PUSHB[ ]	/* 6 values pushed */
6 1 1 0 1 76 
MPPEM[ ]	/* MeasurePixelPerEm */
PUSHB[ ]	/* 1 value pushed */
24 
LT[ ]	/* LessThan */
IF[ ]	/* If */
NPUSHB[ ]	/* 21 values pushed */
0 1 1 0 95 0 0 0 28 77 0 3 3 2 97 0 2 2 29 2 78 
ELSE[ ]	/* Else */
NPUSHB[ ]	/* 18 values pushed */
0 3 0 2 3 2 101 0 1 1 0 95 0 0 0 28 1 78 
EIF[ ]	/* EndIf */
PUSHB[ ]	/* 7 values pushed */
36 37 36 49 4 8 26 
CALL[ ]	/* CallFunction */";
};
width = 298;
}
);
note = exclam;
unicode = 33;
},
{
glyphname = quotedbl;
lastChange = "2022-10-20 15:44:45 +0000";
layers = (
{
layerId = m01;
shapes = (
{
closed = 1;
nodes = (
(-2,593,o),
(4,587,o),
(8,587,qs),
(91,587,ls),
(95,587,o),
(102,593,o),
(102,597,qs),
(147,795,ls),
(149,806,o),
(139,806,qs),
(35,806,ls),
(25,806,o),
(23,795,qs),
(-2,597,ls)
);
},
{
closed = 1;
nodes = (
(153,593,o),
(159,587,o),
(163,587,qs),
(246,587,ls),
(250,587,o),
(257,593,o),
(257,597,qs),
(302,795,ls),
(304,806,o),
(294,806,qs),
(190,806,ls),
(180,806,o),
(178,795,qs),
(153,597,ls)
);
}
);
userData = {
assembly = "NPUSHB[ ]	/* 33 values pushed */
20 6 2 1 0 1 76 2 1 0 1 1 0 87 2 1 0 0 1 95 3 1 1 0 1 79 36 53 36 49 4 8 26 
CALL[ ]	/* CallFunction */";
};
width = 292;
}
);
note = quotedbl;
unicode = 34;
},
{
glyphname = numbersign;
lastChange = "2022-10-20 15:44:45 +0000";
layers = (
{
layerId = m01;
shapes = (
{
closed = 1;
nodes = (
(479,305,o),
(457,290,o),
(445,290,qs),
(349,290,ls),
(330,290,o),
(312,316,o),
(320,336,qs),
(353,423,ls),
(357,435,o),
(379,450,o),
(391,450,qs),
(487,450,ls),
(506,450,o),
(524,424,o),
(516,404,qs),
(483,317,ls)
);
},
{
closed = 1;
nodes = (
(358,-2,o),
(364,-10,o),
(369,-10,qs),
(474,-10,ls),
(477,-10,o),
(484,-5,o),
(485,-2,qs),
(550,164,ls),
(554,176,o),
(575,190,o),
(587,190,qs),
(707,190,ls),
(717,190,o),
(719,200,qs),
(733,280,ls),
(735,290,o),
(725,290,qs),
(646,290,ls),
(627,290,o),
(609,316,o),
(617,336,qs),
(650,423,ls),
(654,435,o),
(676,450,o),
(688,450,qs),
(809,450,ls),
(819,450,o),
(821,460,qs),
(835,540,ls),
(837,550,o),
(827,550,qs),
(748,550,ls),
(729,550,o),
(710,577,o),
(718,596,qs),
(773,737,ls),
(775,742,o),
(769,750,o),
(764,750,qs),
(659,750,ls),
(656,750,o),
(649,745,o),
(648,742,qs),
(583,576,ls),
(579,564,o),
(558,550,o),
(546,550,qs),
(451,550,ls),
(432,550,o),
(413,577,o),
(421,596,qs),
(476,737,ls),
(478,742,o),
(472,750,o),
(467,750,qs),
(362,750,ls),
(359,750,o),
(352,745,o),
(351,742,qs),
(286,576,ls),
(282,564,o),
(261,550,o),
(249,550,qs),
(112,550,ls),
(102,550,o),
(100,540,qs),
(86,460,ls),
(84,450,o),
(94,450,qs),
(190,450,ls),
(209,450,o),
(227,424,o),
(219,404,qs),
(186,317,ls),
(182,305,o),
(160,290,o),
(148,290,qs),
(9,290,ls),
(-1,290,o),
(-3,280,qs),
(-17,200,ls),
(-19,190,o),
(-9,190,qs),
(88,190,ls),
(107,190,o),
(126,163,o),
(118,144,qs),
(63,3,ls),
(61,-2,o),
(67,-10,o),
(72,-10,qs),
(177,-10,ls),
(180,-10,o),
(187,-5,o),
(188,-2,qs),
(253,164,ls),
(257,176,o),
(278,190,o),
(290,190,qs),
(385,190,ls),
(404,190,o),
(423,163,o),
(415,144,qs),
(360,3,ls)
);
}
);
userData = {
assembly = "MPPEM[ ]	/* MeasurePixelPerEm */
PUSHB[ ]	/* 1 value pushed */
27 
LT[ ]	/* LessThan */
IF[ ]	/* If */
NPUSHB[ ]	/* 39 values pushed */
13 5 2 1 14 4 2 2 3 1 2 103 10 1 8 8 30 77 12 6 2 0 0 7 95 11 9 2 7 7 31 77 15 1 3 3 29 3 78 
ELSE[ ]	/* Else */
MPPEM[ ]	/* MeasurePixelPerEm */
PUSHB[ ]	/* 1 value pushed */
31 
LT[ ]	/* LessThan */
IF[ ]	/* If */
NPUSHB[ ]	/* 37 values pushed */
11 9 2 7 12 6 2 0 1 7 0 104 13 5 2 1 14 4 2 2 3 1 2 103 10 1 8 8 30 77 15 1 3 3 29 3 78 
ELSE[ ]	/* Else */
MPPEM[ ]	/* MeasurePixelPerEm */
PUSHB[ ]	/* 1 value pushed */
50 
LT[ ]	/* LessThan */
IF[ ]	/* If */
NPUSHB[ ]	/* 37 values pushed */
10 1 8 7 8 133 11 9 2 7 12 6 2 0 1 7 0 104 13 5 2 1 14 4 2 2 3 1 2 103 15 1 3 3 29 3 78 
ELSE[ ]	/* Else */
NPUSHB[ ]	/* 46 values pushed */
10 1 8 7 8 133 15 1 3 2 3 134 11 9 2 7 12 6 2 0 1 7 0 104 13 5 2 1 2 2 1 87 13 5 2 1 1 2 95 14 4 2 2 1 2 79 
EIF[ ]	/* EndIf */
EIF[ ]	/* EndIf */
EIF[ ]	/* EndIf */
NPUSHB[ ]	/* 26 values pushed */
116 114 109 106 103 100 95 92 89 86 80 78 73 70 37 51 53 51 54 37 53 53 50 16 8 31 
CALL[ ]	/* CallFunction */";
};
width = 840;
}
);
note = numbersign;
unicode = 35;
},
{
glyphname = dollar;
lastChange = "2022-10-20 15:44:45 +0000";
layers = (
{
layerId = m01;
shapes = (
{
closed = 1;
nodes = (
(168,-97,o),
(178,-97,qs),
(252,-97,ls),
(262,-97,o),
(264,-87,qs),
(277,-14,l),
(344,-6,o),
(448,56,o),
(510,143,o),
(519,191,qs),
(530,255,o),
(486,334,o),
(407,374,o),
(348,390,q),
(387,610,l),
(410,598,o),
(433,553,o),
(432,526,qs),
(432,517,o),
(440,517,qs),
(557,517,ls),
(562,517,o),
(570,524,o),
(569,528,q),
(574,602,o),
(488,701,o),
(405,713,q),
(418,788,ls),
(420,798,o),
(410,798,qs),
(336,798,ls),
(326,798,o),
(324,788,qs),
(311,713,l),
(214,702,o),
(83,592,o),
(68,512,qs),
(57,448,o),
(101,370,o),
(180,329,o),
(240,313,q),
(200,85,l),
(171,96,o),
(146,147,o),
(148,182,q),
(148,191,o),
(140,191,qs),
(23,191,ls),
(19,191,o),
(12,185,o),
(11,181,qs),
(-2,103,o),
(93,-1,o),
(183,-14,q),
(170,-87,ls)
);
},
{
closed = 1;
nodes = (
(380,147,o),
(331,92,o),
(294,82,q),
(330,286,l),
(364,272,o),
(394,227,o),
(387,186,qs)
);
},
{
closed = 1;
nodes = (
(217,601,o),
(294,617,q),
(259,418,l),
(224,432,o),
(195,477,o),
(202,517,qs)
);
}
);
userData = {
assembly = "NPUSHB[ ]	/* 63 values pushed */
65 39 27 20 4 2 1 64 57 40 13 4 0 2 58 48 12 3 0 5 3 0 3 76 0 2 1 0 1 2 0 128 0 0 3 1 0 3 126 0 1 2 3 1 87 0 1 1 3 95 0 3 1 3 79 53 50 39 63 37 4 8 25 
CALL[ ]	/* CallFunction */";
};
width = 622;
}
);
note = dollar;
unicode = 36;
},
{
glyphname = percent;
lastChange = "2022-10-20 15:44:45 +0000";
layers = (
{
layerId = m01;
shapes = (
{
closed = 1;
nodes = (
(46,487,o),
(125,400,o),
(197,400,qs),
(270,400,o),
(378,487,o),
(391,560,qs),
(404,632,o),
(326,719,o),
(253,719,qs),
(181,719,o),
(72,632,o),
(59,560,qs)
);
},
{
closed = 1;
nodes = (
(266,643,o),
(287,604,o),
(279,560,qs),
(264,476,o),
(210,476,qs),
(157,476,o),
(172,560,qs),
(180,605,o),
(214,643,o),
(240,643,qs)
);
},
{
closed = 1;
nodes = (
(51,2,o),
(56,-10,o),
(64,-10,qs),
(167,-10,ls),
(173,-10,o),
(175,-6,qs),
(701,689,ls),
(706,696,o),
(701,708,o),
(693,708,qs),
(590,708,ls),
(584,708,o),
(582,704,qs),
(56,9,ls)
);
},
{
closed = 1;
nodes = (
(355,66,o),
(434,-22,o),
(506,-22,qs),
(578,-22,o),
(686,66,o),
(699,138,qs),
(712,211,o),
(634,298,o),
(562,298,qs),
(489,298,o),
(381,211,o),
(368,138,qs)
);
},
{
closed = 1;
nodes = (
(574,221,o),
(595,182,o),
(587,138,qs),
(579,94,o),
(544,56,o),
(518,56,qs),
(492,56,o),
(471,94,o),
(479,138,qs),
(487,182,o),
(522,221,o),
(548,221,qs)
);
}
);
userData = {
assembly = "MPPEM[ ]	/* MeasurePixelPerEm */
PUSHB[ ]	/* 1 value pushed */
20 
LT[ ]	/* LessThan */
IF[ ]	/* If */
NPUSHB[ ]	/* 41 values pushed */
0 2 0 1 6 2 1 105 0 6 11 1 9 8 6 9 106 10 1 3 3 0 97 4 1 0 0 28 77 0 8 8 5 97 7 1 5 5 29 5 78 
ELSE[ ]	/* Else */
MPPEM[ ]	/* MeasurePixelPerEm */
PUSHB[ ]	/* 1 value pushed */
22 
LT[ ]	/* LessThan */
IF[ ]	/* If */
NPUSHB[ ]	/* 45 values pushed */
0 2 0 1 6 2 1 105 0 6 11 1 9 8 6 9 106 10 1 3 3 0 97 4 1 0 0 28 77 0 5 5 29 77 0 8 8 7 97 0 7 7 29 7 78 
ELSE[ ]	/* Else */
MPPEM[ ]	/* MeasurePixelPerEm */
PUSHB[ ]	/* 1 value pushed */
50 
LT[ ]	/* LessThan */
IF[ ]	/* If */
NPUSHB[ ]	/* 46 values pushed */
0 2 0 1 6 2 1 105 0 6 11 1 9 8 6 9 106 0 8 0 7 8 7 101 0 4 4 28 77 10 1 3 3 0 97 0 0 0 28 77 0 5 5 29 5 78 
ELSE[ ]	/* Else */
NPUSHB[ ]	/* 49 values pushed */
0 5 8 7 8 5 7 128 0 2 0 1 6 2 1 105 0 6 11 1 9 8 6 9 106 0 8 0 7 8 7 101 0 4 4 28 77 10 1 3 3 0 97 0 0 0 28 3 78 
EIF[ ]	/* EndIf */
EIF[ ]	/* EndIf */
EIF[ ]	/* EndIf */
NPUSHB[ ]	/* 28 values pushed */
48 48 12 12 48 59 48 58 54 52 45 43 39 37 32 31 25 24 12 21 12 20 38 36 33 12 8 25 
CALL[ ]	/* CallFunction */";
};
width = 759;
}
);
note = percent;
unicode = 37;
},
{
glyphname = ampersand;
lastChange = "2022-10-20 15:44:45 +0000";
layers = (
{
layerId = m01;
shapes = (
{
closed = 1;
nodes = (
(548,538,o),
(552,547,q),
(563,597,o),
(531,676,o),
(450,721,o),
(391,721,qs),
(330,721,o),
(229,678,o),
(166,603,o),
(157,556,qs),
(151,519,o),
(166,457,o),
(190,419,q),
(103,384,o),
(3,271,o),
(-9,200,qs),
(-21,134,o),
(27,34,o),
(137,-22,o),
(215,-22,qs),
(357,-22,o),
(472,71,q),
(536,-8,ls),
(538,-10,o),
(541,-10,qs),
(664,-10,ls),
(675,-10,o),
(685,8,o),
(678,15,qs),
(561,157,l),
(599,204,o),
(607,215,qs),
(712,353,ls),
(717,360,o),
(712,372,o),
(704,372,qs),
(593,372,ls),
(587,372,o),
(584,368,qs),
(496,253,l),
(490,245,l),
(333,436,ls),
(305,473,o),
(283,527,o),
(288,556,qs),
(294,590,o),
(338,626,o),
(370,626,qs),
(400,626,o),
(429,588,o),
(421,549,qs),
(420,544,o),
(425,538,o),
(429,538,qs),
(540,538,ls)
);
},
{
closed = 1;
nodes = (
(173,76,o),
(112,145,o),
(122,203,qs),
(131,252,o),
(193,320,o),
(249,343,q),
(405,152,l),
(360,111,o),
(280,76,o),
(233,76,qs)
);
}
);
userData = {
assembly = "NPUSHB[ ]	/* 21 values pushed */
52 1 5 0 41 1 1 5 58 57 24 13 4 6 1 32 1 2 6 4 76 
MPPEM[ ]	/* MeasurePixelPerEm */
PUSHB[ ]	/* 1 value pushed */
20 
LT[ ]	/* LessThan */
IF[ ]	/* If */
NPUSHB[ ]	/* 43 values pushed */
7 1 5 0 1 0 5 1 128 0 0 0 4 97 0 4 4 28 77 0 1 1 2 97 3 1 2 2 29 77 8 1 6 6 2 97 3 1 2 2 29 2 78 
ELSE[ ]	/* Else */
MPPEM[ ]	/* MeasurePixelPerEm */
PUSHB[ ]	/* 1 value pushed */
22 
LT[ ]	/* LessThan */
IF[ ]	/* If */
NPUSHB[ ]	/* 41 values pushed */
7 1 5 0 1 0 5 1 128 0 0 0 4 97 0 4 4 28 77 0 1 1 2 95 0 2 2 29 77 8 1 6 6 3 97 0 3 3 29 3 78 
ELSE[ ]	/* Else */
MPPEM[ ]	/* MeasurePixelPerEm */
PUSHB[ ]	/* 1 value pushed */
50 
LT[ ]	/* LessThan */
IF[ ]	/* If */
NPUSHB[ ]	/* 38 values pushed */
7 1 5 0 1 0 5 1 128 8 1 6 0 3 6 3 101 0 0 0 4 97 0 4 4 28 77 0 1 1 2 95 0 2 2 29 2 78 
ELSE[ ]	/* Else */
NPUSHB[ ]	/* 36 values pushed */
7 1 5 0 1 0 5 1 128 0 1 0 2 3 1 2 103 8 1 6 0 3 6 3 101 0 0 0 4 97 0 4 4 28 0 78 
EIF[ ]	/* EndIf */
EIF[ ]	/* EndIf */
EIF[ ]	/* EndIf */
NPUSHB[ ]	/* 20 values pushed */
55 55 0 0 55 64 55 63 0 54 0 53 44 36 41 26 37 9 8 27 
CALL[ ]	/* CallFunction */";
};
width = 739;
}
);
note = ampersand;
unicode = 38;
},
{
glyphname = quotesingle;
lastChange = "2022-10-20 15:44:45 +0000";
layers = (
{
layerId = m01;
shapes = (
{
closed = 1;
nodes = (
(10,592,o),
(15,587,o),
(19,587,qs),
(102,587,ls),
(106,587,o),
(113,592,o),
(113,596,qs),
(160,795,ls),
(162,806,o),
(152,806,qs),
(44,806,ls),
(34,806,o),
(32,795,qs),
(10,596,ls)
);
}
);
userData = {
assembly = "NPUSHB[ ]	/* 27 values pushed */
6 1 1 0 1 76 0 0 1 1 0 87 0 0 0 1 95 0 1 0 1 79 36 49 2 8 24 
CALL[ ]	/* CallFunction */";
};
width = 159;
}
);
note = quotesingle;
unicode = 39;
},
{
glyphname = parenleft;
lastChange = "2022-10-20 15:44:45 +0000";
layers = (
{
layerId = m01;
shapes = (
{
closed = 1;
nodes = (
(325,-196,o),
(327,-186,qs),
(328,-179,ls),
(329,-176,o),
(327,-174,qs),
(244,-72,o),
(187,210,o),
(215,366,qs),
(243,527,o),
(407,820,o),
(535,922,q),
(538,924,o),
(539,928,qs),
(540,934,ls),
(540,938,o),
(536,944,o),
(532,944,qs),
(419,944,ls),
(416,944,o),
(413,942,qs),
(283,838,o),
(117,537,o),
(87,366,qs),
(57,199,o),
(112,-93,o),
(198,-194,qs),
(199,-196,o),
(202,-196,qs),
(315,-196,ls)
);
}
);
userData = {
assembly = "NPUSHB[ ]	/* 34 values pushed */
26 15 2 1 0 1 76 0 0 1 1 0 87 0 0 0 1 95 2 1 1 0 1 79 0 0 0 28 0 27 56 3 8 23 
CALL[ ]	/* CallFunction */";
};
width = 454;
}
);
note = parenleft;
unicode = 40;
},
{
glyphname = parenright;
lastChange = "2022-10-20 15:44:45 +0000";
layers = (
{
layerId = m01;
shapes = (
{
closed = 1;
nodes = (
(58,-196,o),
(61,-194,qs),
(183,-93,o),
(340,199,o),
(370,366,qs),
(400,537,o),
(340,838,o),
(246,942,qs),
(245,944,o),
(242,944,qs),
(129,944,ls),
(125,944,o),
(117,938,o),
(117,934,qs),
(116,928,ls),
(115,924,o),
(118,922,q),
(210,820,o),
(270,527,o),
(242,366,qs),
(214,210,o),
(57,-72,o),
(-62,-174,qs),
(-64,-176,o),
(-65,-179,qs),
(-66,-186,ls),
(-68,-196,o),
(-58,-196,qs),
(55,-196,ls)
);
}
);
userData = {
assembly = "NPUSHB[ ]	/* 34 values pushed */
13 1 0 1 1 76 0 1 0 0 1 87 0 1 1 0 95 2 1 0 1 0 79 1 0 18 16 0 28 1 26 3 8 22 
CALL[ ]	/* CallFunction */";
};
width = 454;
}
);
note = parenright;
unicode = 41;
},
{
glyphname = asterisk;
lastChange = "2022-10-20 15:44:45 +0000";
layers = (
{
layerId = m01;
shapes = (
{
closed = 1;
nodes = (
(336,736,o),
(331,744,o),
(326,744,qs),
(232,744,ls),
(227,744,o),
(218,736,o),
(219,732,q),
(212,646,ls),
(212,636,o),
(195,627,o),
(188,633,qs),
(116,693,l),
(56,611,ls),
(54,607,o),
(55,598,o),
(59,596,qs),
(139,561,ls),
(149,557,o),
(146,538,o),
(136,534,qs),
(41,498,ls),
(37,496,o),
(32,487,o),
(34,482,q),
(63,410,ls),
(64,406,o),
(73,404,o),
(77,407,qs),
(157,458,ls),
(166,464,o),
(180,456,o),
(177,446,qs),
(153,362,l),
(152,358,o),
(157,350,o),
(162,350,qs),
(255,350,ls),
(260,350,o),
(269,358,o),
(268,362,q),
(274,446,ls),
(275,456,o),
(292,465,o),
(298,459,qs),
(359,408,ls),
(363,405,o),
(373,407,o),
(376,411,qs),
(429,483,l),
(432,488,o),
(431,496,o),
(426,498,qs),
(344,534,ls),
(335,539,o),
(338,556,o),
(348,560,qs),
(443,597,l),
(447,598,o),
(452,608,o),
(450,612,qs),
(425,682,ls),
(424,686,o),
(414,688,o),
(409,685,qs),
(329,634,ls),
(320,628,o),
(307,637,o),
(310,647,qs),
(335,732,ls)
);
}
);
userData = {
assembly = "NPUSHB[ ]	/* 10 values pushed */
61 56 44 28 8 5 0 1 1 76 
MPPEM[ ]	/* MeasurePixelPerEm */
PUSHB[ ]	/* 1 value pushed */
31 
LT[ ]	/* LessThan */
IF[ ]	/* If */
NPUSHB[ ]	/* 11 values pushed */
0 0 0 1 95 0 1 1 30 0 78 
ELSE[ ]	/* Else */
NPUSHB[ ]	/* 16 values pushed */
0 1 0 0 1 87 0 1 1 0 95 0 0 1 0 79 
EIF[ ]	/* EndIf */
PUSHB[ ]	/* 7 values pushed */
65 63 32 30 2 8 22 
CALL[ ]	/* CallFunction */";
};
width = 486;
}
);
note = asterisk;
unicode = 42;
},
{
glyphname = plus;
lastChange = "2022-10-20 15:44:45 +0000";
layers = (
{
layerId = m01;
shapes = (
{
closed = 1;
nodes = (
(326,631,o),
(324,621,qs),
(292,439,ls),
(290,429,o),
(273,414,o),
(262,414,qs),
(85,414,ls),
(75,414,o),
(74,404,qs),
(60,327,ls),
(58,317,o),
(68,317,qs),
(245,317,ls),
(256,317,o),
(268,303,o),
(266,292,qs),
(234,111,ls),
(232,101,o),
(242,101,qs),
(347,101,ls),
(357,101,o),
(359,111,qs),
(391,292,ls),
(393,303,o),
(410,317,o),
(420,317,qs),
(598,317,ls),
(608,317,o),
(610,327,qs),
(624,404,ls),
(625,414,o),
(615,414,qs),
(437,414,ls),
(427,414,o),
(415,429,o),
(417,439,qs),
(449,621,ls),
(451,631,o),
(441,631,qs),
(336,631,ls)
);
}
);
userData = {
assembly = "NPUSHB[ ]	/* 47 values pushed */
6 1 0 1 3 0 87 5 1 1 4 1 2 3 1 2 103 6 1 0 0 3 95 0 3 0 3 79 1 0 34 31 28 25 21 18 14 11 8 5 0 39 1 38 7 8 22 
CALL[ ]	/* CallFunction */";
};
width = 683;
}
);
note = plus;
unicode = 43;
},
{
glyphname = comma;
lastChange = "2022-10-20 15:44:45 +0000";
layers = (
{
layerId = m01;
shapes = (
{
closed = 1;
nodes = (
(-47,-144,o),
(-41,-153,o),
(-35,-153,qs),
(44,-153,ls),
(51,-153,o),
(53,-147,q),
(211,120,ls),
(214,126,o),
(209,136,o),
(202,136,qs),
(86,136,ls),
(78,136,o),
(76,129,q),
(-44,-139,l)
);
}
);
userData = {
assembly = "NPUSHB[ ]	/* 21 values pushed */
0 0 1 1 0 87 0 0 0 1 95 0 1 0 1 79 22 18 2 8 24 
CALL[ ]	/* CallFunction */";
};
width = 198;
}
);
note = comma;
unicode = 44;
},
{
glyphname = hyphen;
lastChange = "2022-10-20 15:44:45 +0000";
layers = (
{
layerId = m01;
shapes = (
{
closed = 1;
nodes = (
(29,271,o),
(39,271,qs),
(458,271,ls),
(468,271,o),
(470,281,qs),
(484,358,ls),
(486,368,o),
(476,368,qs),
(57,368,ls),
(47,368,o),
(45,358,qs),
(31,281,ls)
);
}
);
userData = {
assembly = "NPUSHB[ ]	/* 21 values pushed */
0 0 1 1 0 87 0 0 0 1 95 0 1 0 1 79 51 49 2 8 24 
CALL[ ]	/* CallFunction */";
};
width = 551;
}
);
note = hyphen;
unicode = 45;
},
{
glyphname = period;
lastChange = "2022-10-20 15:44:45 +0000";
layers = (
{
layerId = m01;
shapes = (
{
closed = 1;
nodes = (
(191,85,o),
(153,128,o),
(119,128,qs),
(84,128,o),
(29,85,o),
(24,56,qs),
(19,27,o),
(58,-16,o),
(93,-16,qs),
(127,-16,o),
(181,27,o),
(186,56,qs)
);
}
);
userData = {
assembly = "MPPEM[ ]	/* MeasurePixelPerEm */
PUSHB[ ]	/* 1 value pushed */
31 
LT[ ]	/* LessThan */
IF[ ]	/* If */
NPUSHB[ ]	/* 11 values pushed */
0 1 1 0 97 0 0 0 29 0 78 
ELSE[ ]	/* Else */
NPUSHB[ ]	/* 16 values pushed */
0 1 0 0 1 89 0 1 1 0 97 0 0 1 0 81 
EIF[ ]	/* EndIf */
PUSHB[ ]	/* 5 values pushed */
36 33 2 8 24 
CALL[ ]	/* CallFunction */";
};
width = 210;
}
);
note = period;
unicode = 46;
},
{
glyphname = slash;
lastChange = "2022-10-20 15:44:45 +0000";
layers = (
{
layerId = m01;
shapes = (
{
closed = 1;
nodes = (
(-65,-172,o),
(-60,-180,o),
(-55,-180,qs),
(54,-180,ls),
(62,-180,o),
(64,-173,q),
(533,938,ls),
(535,944,o),
(530,952,o),
(525,952,qs),
(415,952,ls),
(407,952,o),
(405,945,q),
(-63,-166,ls)
);
}
);
userData = {
assembly = "NPUSHB[ ]	/* 14 values pushed */
0 0 1 0 133 0 1 1 118 22 18 2 8 24 
CALL[ ]	/* CallFunction */";
};
width = 476;
}
);
note = slash;
unicode = 47;
},
{
glyphname = zero;
lastChange = "2022-10-20 15:44:45 +0000";
layers = (
{
layerId = m01;
shapes = (
{
closed = 1;
nodes = (
(0,188,o),
(89,-20,o),
(246,-20,qs),
(403,-20,o),
(563,188,o),
(595,369,qs),
(627,548,o),
(539,754,o),
(382,754,qs),
(225,754,o),
(64,548,o),
(32,369,qs)
);
},
{
closed = 1;
nodes = (
(430,281,o),
(391,168,o),
(321,103,o),
(267,103,qs),
(212,103,o),
(166,168,o),
(167,281,o),
(182,369,qs),
(197,454,o),
(237,566,o),
(306,631,o),
(361,631,qs),
(415,631,o),
(461,566,o),
(460,454,o),
(445,369,qs)
);
}
);
userData = {
assembly = "MPPEM[ ]	/* MeasurePixelPerEm */
PUSHB[ ]	/* 1 value pushed */
25 
LT[ ]	/* LessThan */
IF[ ]	/* If */
NPUSHB[ ]	/* 21 values pushed */
0 2 2 0 97 0 0 0 30 77 0 3 3 1 97 0 1 1 29 1 78 
ELSE[ ]	/* Else */
MPPEM[ ]	/* MeasurePixelPerEm */
PUSHB[ ]	/* 1 value pushed */
31 
LT[ ]	/* LessThan */
IF[ ]	/* If */
NPUSHB[ ]	/* 18 values pushed */
0 3 0 1 3 1 101 0 2 2 0 97 0 0 0 30 2 78 
ELSE[ ]	/* Else */
NPUSHB[ ]	/* 24 values pushed */
0 0 0 2 3 0 2 105 0 3 1 1 3 89 0 3 3 1 97 0 1 3 1 81 
EIF[ ]	/* EndIf */
EIF[ ]	/* EndIf */
PUSHB[ ]	/* 7 values pushed */
38 37 36 33 4 8 26 
CALL[ ]	/* CallFunction */";
};
width = 628;
}
);
note = zero;
unicode = 48;
},
{
glyphname = one;
lastChange = "2022-10-20 15:44:45 +0000";
layers = (
{
layerId = m01;
shapes = (
{
closed = 1;
nodes = (
(175,-10,l),
(299,688,ls),
(302,708,o),
(280,733,o),
(257,733,qs),
(127,733,l),
(65,630,l),
(146,630,ls),
(157,630,o),
(164,619,o),
(162,605,qs),
(53,-10,l)
);
}
);
userData = {
assembly = "MPPEM[ ]	/* MeasurePixelPerEm */
PUSHB[ ]	/* 1 value pushed */
31 
LT[ ]	/* LessThan */
IF[ ]	/* If */
NPUSHB[ ]	/* 16 values pushed */
0 0 0 1 95 0 1 1 28 77 0 2 2 29 2 78 
ELSE[ ]	/* Else */
MPPEM[ ]	/* MeasurePixelPerEm */
PUSHB[ ]	/* 1 value pushed */
50 
LT[ ]	/* LessThan */
IF[ ]	/* If */
NPUSHB[ ]	/* 14 values pushed */
0 1 0 0 2 1 0 103 0 2 2 29 2 78 
ELSE[ ]	/* Else */
NPUSHB[ ]	/* 21 values pushed */
0 2 0 2 134 0 1 0 0 1 87 0 1 1 0 95 0 0 1 0 79 
EIF[ ]	/* EndIf */
EIF[ ]	/* EndIf */
PUSHB[ ]	/* 6 values pushed */
19 33 34 3 8 25 
CALL[ ]	/* CallFunction */";
};
width = 320;
}
);
note = one;
unicode = 49;
},
{
glyphname = two;
lastChange = "2022-10-20 15:44:45 +0000";
layers = (
{
layerId = m01;
shapes = (
{
closed = 1;
nodes = (
(-44,4,o),
(-23,-12,o),
(-7,-12,qs),
(454,-12,ls),
(470,-12,o),
(497,4,o),
(500,18,qs),
(505,49,ls),
(509,72,o),
(479,104,o),
(450,104,qs),
(160,104,l),
(160,86,o),
(163,76,o),
(168,78,q),
(277,156,o),
(428,280,o),
(553,439,o),
(567,522,qs),
(580,593,o),
(536,699,o),
(432,756,o),
(355,756,qs),
(282,756,o),
(157,699,o),
(67,590,o),
(50,513,qs),
(46,499,o),
(67,482,o),
(83,482,qs),
(128,482,ls),
(156,482,o),
(195,509,o),
(204,531,qs),
(224,585,o),
(286,638,o),
(335,638,qs),
(391,638,o),
(427,578,o),
(417,518,qs),
(405,452,o),
(286,315,o),
(122,187,o),
(-17,89,q),
(-31,77,o),
(-33,65,qs),
(-41,18,ls)
);
}
);
userData = {
assembly = "NPUSHB[ ]	/* 10 values pushed */
19 1 1 0 31 1 4 3 2 76 
MPPEM[ ]	/* MeasurePixelPerEm */
PUSHB[ ]	/* 1 value pushed */
31 
LT[ ]	/* LessThan */
IF[ ]	/* If */
NPUSHB[ ]	/* 29 values pushed */
0 1 0 3 0 1 3 128 0 0 0 2 97 0 2 2 30 77 0 3 3 4 95 0 4 4 29 4 78 
ELSE[ ]	/* Else */
MPPEM[ ]	/* MeasurePixelPerEm */
PUSHB[ ]	/* 1 value pushed */
41 
LT[ ]	/* LessThan */
IF[ ]	/* If */
NPUSHB[ ]	/* 27 values pushed */
0 1 0 3 0 1 3 128 0 2 0 0 1 2 0 105 0 3 3 4 95 0 4 4 29 4 78 
ELSE[ ]	/* Else */
NPUSHB[ ]	/* 32 values pushed */
0 1 0 3 0 1 3 128 0 2 0 0 1 2 0 105 0 3 4 4 3 87 0 3 3 4 95 0 4 3 4 79 
EIF[ ]	/* EndIf */
EIF[ ]	/* EndIf */
PUSHB[ ]	/* 8 values pushed */
53 42 37 52 40 5 8 27 
CALL[ ]	/* CallFunction */";
};
width = 575;
}
);
note = two;
unicode = 50;
},
{
glyphname = three;
lastChange = "2022-10-20 15:44:45 +0000";
layers = (
{
layerId = m01;
shapes = (
{
closed = 1;
nodes = (
(172,521,o),
(210,546,o),
(219,566,qs),
(240,603,o),
(298,639,o),
(342,639,qs),
(445,639,o),
(428,542,qs),
(418,486,o),
(339,441,o),
(254,440,qs),
(230,440,o),
(195,412,o),
(190,385,qs),
(189,379,ls),
(185,353,o),
(209,324,o),
(233,324,qs),
(325,324,o),
(394,271,o),
(382,203,qs),
(363,92,o),
(250,92,qs),
(199,92,o),
(146,138,o),
(139,183,qs),
(137,202,o),
(108,228,o),
(81,228,qs),
(36,228,ls),
(19,228,o),
(-10,210,o),
(-10,195,qs),
(-16,91,o),
(117,-25,o),
(230,-25,qs),
(312,-25,o),
(439,33,o),
(517,133,o),
(528,195,qs),
(542,277,o),
(471,383,o),
(393,402,q),
(390,384,l),
(406,385,o),
(414,378,qs),
(418,375,o),
(423,374,o),
(430,377,qs),
(490,401,o),
(567,493,o),
(578,551,qs),
(588,609,o),
(545,702,o),
(443,757,o),
(366,757,qs),
(256,757,o),
(92,648,o),
(64,554,qs),
(60,539,o),
(81,521,o),
(98,521,qs),
(145,521,ls)
);
}
);
userData = {
assembly = "PUSHB[ ]	/* 6 values pushed */
19 1 2 7 1 76 
MPPEM[ ]	/* MeasurePixelPerEm */
PUSHB[ ]	/* 1 value pushed */
31 
LT[ ]	/* LessThan */
IF[ ]	/* If */
NPUSHB[ ]	/* 51 values pushed */
9 1 0 8 7 8 0 7 128 0 2 7 6 7 2 6 128 0 4 6 5 6 4 5 128 0 7 0 6 4 7 6 105 0 5 0 3 5 3 101 0 8 8 1 97 0 1 1 30 8 78 
ELSE[ ]	/* Else */
NPUSHB[ ]	/* 57 values pushed */
9 1 0 8 7 8 0 7 128 0 2 7 6 7 2 6 128 0 4 6 5 6 4 5 128 0 1 0 8 0 1 8 105 0 7 0 6 4 7 6 105 0 5 3 3 5 89 0 5 5 3 97 0 3 5 3 81 
EIF[ ]	/* EndIf */
NPUSHB[ ]	/* 25 values pushed */
1 0 57 55 52 50 45 43 40 38 34 31 27 25 18 17 7 5 0 62 1 61 10 8 22 
CALL[ ]	/* CallFunction */";
};
width = 589;
}
);
note = three;
unicode = 51;
},
{
glyphname = four;
lastChange = "2022-10-20 15:44:45 +0000";
layers = (
{
layerId = m01;
shapes = (
{
closed = 1;
nodes = (
(316,-4,o),
(337,-20,o),
(353,-20,qs),
(423,-20,ls),
(439,-20,o),
(466,-4,o),
(469,10,qs),
(494,151,ls),
(493,146,o),
(484,141,q),
(552,141,ls),
(568,141,o),
(595,157,o),
(597,171,qs),
(607,230,ls),
(610,244,o),
(589,260,o),
(573,260,qs),
(518,260,ls),
(514,260,o),
(514,266,o),
(515,275,qs),
(591,706,ls),
(594,720,o),
(573,736,o),
(557,736,qs),
(466,736,ls),
(454,736,o),
(428,727,o),
(423,717,q),
(1,248,ls),
(-6,241,o),
(-13,230,o),
(-14,223,qs),
(-23,171,ls),
(-25,157,o),
(-4,141,o),
(12,141,qs),
(350,141,l),
(343,146,o),
(344,151,qs),
(319,10,ls)
);
},
{
closed = 1;
nodes = (
(142,247,o),
(155,238,o),
(158,241,q),
(434,554,l),
(437,573,o),
(434,595,o),
(427,603,o),
(427,600,qs),
(365,250,ls),
(366,255,o),
(375,260,q),
(143,260,l)
);
}
);
userData = {
assembly = "NPUSHB[ ]	/* 13 values pushed */
49 45 2 2 1 50 7 0 3 0 2 2 76 
MPPEM[ ]	/* MeasurePixelPerEm */
PUSHB[ ]	/* 1 value pushed */
25 
LT[ ]	/* LessThan */
IF[ ]	/* If */
NPUSHB[ ]	/* 22 values pushed */
6 5 2 2 3 1 0 4 2 0 105 0 1 1 28 77 0 4 4 29 4 78 
ELSE[ ]	/* Else */
NPUSHB[ ]	/* 27 values pushed */
0 1 2 4 1 87 6 5 2 2 3 1 0 4 2 0 105 0 1 1 4 97 0 4 1 4 81 
EIF[ ]	/* EndIf */
NPUSHB[ ]	/* 14 values pushed */
42 42 42 53 42 53 53 37 38 57 34 7 8 27 
CALL[ ]	/* CallFunction */";
};
width = 629;
}
);
note = four;
unicode = 52;
},
{
glyphname = five;
lastChange = "2022-10-20 15:44:45 +0000";
layers = (
{
layerId = m01;
shapes = (
{
closed = 1;
nodes = (
(166,744,ls),
(150,744,o),
(123,728,o),
(120,714,qs),
(52,326,ls),
(49,312,o),
(71,296,o),
(87,296,qs),
(155,296,ls),
(167,296,o),
(194,308,o),
(199,320,q),
(224,356,o),
(287,391,o),
(329,391,qs),
(396,391,o),
(445,322,o),
(432,248,qs),
(419,174,o),
(342,95,o),
(276,95,qs),
(225,95,o),
(170,141,o),
(164,189,q),
(164,202,o),
(140,216,o),
(127,216,qs),
(58,216,ls),
(39,216,o),
(14,198,o),
(13,181,q),
(15,90,o),
(140,-22,o),
(254,-22,qs),
(345,-22,o),
(482,50,o),
(566,174,o),
(579,250,qs),
(591,314,o),
(561,432,o),
(457,509,o),
(363,509,qs),
(309,509,o),
(204,469,o),
(173,440,q),
(169,432,o),
(189,422,o),
(213,426,o),
(215,434,qs),
(250,634,ls),
(249,629,o),
(240,624,q),
(534,624,ls),
(563,624,o),
(605,656,o),
(609,679,qs),
(621,744,l)
);
}
);
userData = {
assembly = "PUSHB[ ]	/* 6 values pushed */
7 1 5 1 1 76 
MPPEM[ ]	/* MeasurePixelPerEm */
PUSHB[ ]	/* 1 value pushed */
22 
LT[ ]	/* LessThan */
IF[ ]	/* If */
NPUSHB[ ]	/* 44 values pushed */
0 6 5 3 5 6 3 128 0 3 4 5 3 4 126 0 1 0 5 6 1 5 105 0 0 0 7 95 0 7 7 30 77 0 4 4 2 97 0 2 2 29 2 78 
ELSE[ ]	/* Else */
MPPEM[ ]	/* MeasurePixelPerEm */
PUSHB[ ]	/* 1 value pushed */
31 
LT[ ]	/* LessThan */
IF[ ]	/* If */
NPUSHB[ ]	/* 41 values pushed */
0 6 5 3 5 6 3 128 0 3 4 5 3 4 126 0 1 0 5 6 1 5 105 0 4 0 2 4 2 101 0 0 0 7 95 0 7 7 30 0 78 
ELSE[ ]	/* Else */
NPUSHB[ ]	/* 47 values pushed */
0 6 5 3 5 6 3 128 0 3 4 5 3 4 126 0 7 0 0 1 7 0 103 0 1 0 5 6 1 5 105 0 4 2 2 4 89 0 4 4 2 97 0 2 4 2 81 
EIF[ ]	/* EndIf */
EIF[ ]	/* EndIf */
NPUSHB[ ]	/* 11 values pushed */
37 52 36 36 52 38 41 34 8 8 30 
CALL[ ]	/* CallFunction */";
};
width = 628;
}
);
note = five;
unicode = 53;
},
{
glyphname = six;
lastChange = "2022-10-20 15:44:45 +0000";
layers = (
{
layerId = m01;
shapes = (
{
closed = 1;
nodes = (
(584,531,o),
(612,550,o),
(613,566,qs),
(612,648,o),
(505,758,o),
(398,758,qs),
(250,758,o),
(76,556,o),
(44,371,qs),
(22,249,o),
(42,78,o),
(154,-22,o),
(269,-22,qs),
(355,-22,o),
(488,48,o),
(568,166,o),
(581,238,qs),
(595,318,o),
(552,436,o),
(447,499,o),
(371,499,qs),
(325,499,o),
(236,473,o),
(199,449,q),
(226,555,o),
(310,642,o),
(376,642,qs),
(419,642,o),
(457,612,o),
(465,575,qs),
(468,556,o),
(499,531,o),
(525,531,qs),
(567,531,ls)
);
},
{
closed = 1;
nodes = (
(395,382,o),
(446,309,o),
(433,235,qs),
(420,166,o),
(344,94,o),
(285,94,qs),
(215,94,o),
(159,174,o),
(171,245,qs),
(184,315,o),
(271,382,o),
(331,382,qs)
);
}
);
userData = {
assembly = "PUSHB[ ]	/* 6 values pushed */
9 1 6 2 1 76 
MPPEM[ ]	/* MeasurePixelPerEm */
PUSHB[ ]	/* 1 value pushed */
22 
LT[ ]	/* LessThan */
IF[ ]	/* If */
NPUSHB[ ]	/* 39 values pushed */
7 1 0 1 2 1 0 2 128 0 2 8 1 6 5 2 6 105 0 1 1 4 97 0 4 4 30 77 0 5 5 3 97 0 3 3 29 3 78 
ELSE[ ]	/* Else */
MPPEM[ ]	/* MeasurePixelPerEm */
PUSHB[ ]	/* 1 value pushed */
31 
LT[ ]	/* LessThan */
IF[ ]	/* If */
NPUSHB[ ]	/* 36 values pushed */
7 1 0 1 2 1 0 2 128 0 2 8 1 6 5 2 6 105 0 5 0 3 5 3 101 0 1 1 4 97 0 4 4 30 1 78 
ELSE[ ]	/* Else */
NPUSHB[ ]	/* 42 values pushed */
7 1 0 1 2 1 0 2 128 0 4 0 1 0 4 1 105 0 2 8 1 6 5 2 6 105 0 5 3 3 5 89 0 5 5 3 97 0 3 5 3 81 
EIF[ ]	/* EndIf */
EIF[ ]	/* EndIf */
NPUSHB[ ]	/* 25 values pushed */
34 34 1 0 34 45 34 44 40 38 28 26 21 19 13 11 7 5 0 33 1 32 9 8 22 
CALL[ ]	/* CallFunction */";
};
width = 635;
}
);
note = six;
unicode = 54;
},
{
glyphname = seven;
lastChange = "2022-10-20 15:44:45 +0000";
layers = (
{
layerId = m01;
shapes = (
{
closed = 1;
nodes = (
(94,741,o),
(67,725,o),
(65,711,qs),
(59,678,ls),
(55,655,o),
(85,623,o),
(114,623,qs),
(420,623,ls),
(424,623,o),
(422,617,o),
(417,610,q),
(54,20,ls),
(42,0,o),
(64,-20,o),
(83,-20,qs),
(154,-20,ls),
(165,-20,o),
(191,-10,o),
(196,0,qs),
(572,623,ls),
(588,649,o),
(592,674,qs),
(595,687,ls),
(599,711,o),
(569,741,o),
(539,741,qs),
(110,741,ls)
);
}
);
userData = {
assembly = "MPPEM[ ]	/* MeasurePixelPerEm */
PUSHB[ ]	/* 1 value pushed */
25 
LT[ ]	/* LessThan */
IF[ ]	/* If */
NPUSHB[ ]	/* 17 values pushed */
0 2 2 0 95 3 1 0 0 30 77 0 1 1 29 1 78 
ELSE[ ]	/* Else */
NPUSHB[ ]	/* 23 values pushed */
0 1 2 1 134 3 1 0 2 2 0 87 3 1 0 0 2 95 0 2 0 2 79 
EIF[ ]	/* EndIf */
NPUSHB[ ]	/* 13 values pushed */
1 0 20 18 12 9 0 26 1 25 4 8 22 
CALL[ ]	/* CallFunction */";
};
width = 546;
}
);
note = seven;
unicode = 55;
},
{
glyphname = eight;
lastChange = "2022-10-20 15:44:45 +0000";
layers = (
{
layerId = m01;
shapes = (
{
closed = 1;
nodes = (
(87,351,o),
(12,256,o),
(1,195,qs),
(-11,125,o),
(41,19,o),
(161,-40,o),
(245,-40,qs),
(329,-40,o),
(469,19,o),
(561,125,o),
(573,195,qs),
(584,256,o),
(542,350,o),
(493,378,q),
(544,406,o),
(606,490,o),
(616,542,qs),
(626,600,o),
(580,697,o),
(469,754,o),
(385,754,qs),
(301,754,o),
(170,697,o),
(91,601,o),
(81,542,qs),
(61,433,o),
(145,378,q)
);
},
{
closed = 1;
nodes = (
(271,426,o),
(218,479,o),
(227,530,qs),
(236,586,o),
(306,638,o),
(365,638,qs),
(425,638,o),
(476,587,o),
(466,531,qs),
(457,480,o),
(384,426,o),
(327,426,qs)
);
},
{
closed = 1;
nodes = (
(445,316,o),
(424,198,qs),
(414,139,o),
(331,76,o),
(265,76,qs),
(198,76,o),
(139,139,o),
(149,198,qs),
(160,261,o),
(242,316,o),
(308,316,qs)
);
}
);
userData = {
assembly = "PUSHB[ ]	/* 7 values pushed */
26 12 2 5 3 1 76 
MPPEM[ ]	/* MeasurePixelPerEm */
PUSHB[ ]	/* 1 value pushed */
31 
LT[ ]	/* LessThan */
IF[ ]	/* If */
NPUSHB[ ]	/* 28 values pushed */
6 1 3 7 1 5 4 3 5 105 0 4 0 1 4 1 101 0 2 2 0 97 0 0 0 30 2 78 
ELSE[ ]	/* Else */
NPUSHB[ ]	/* 34 values pushed */
0 0 0 2 3 0 2 105 6 1 3 7 1 5 4 3 5 105 0 4 1 1 4 89 0 4 4 1 97 0 1 4 1 81 
EIF[ ]	/* EndIf */
NPUSHB[ ]	/* 20 values pushed */
39 39 27 27 39 49 39 48 45 43 27 38 27 37 43 44 36 8 8 25 
CALL[ ]	/* CallFunction */";
};
width = 631;
}
);
note = eight;
unicode = 56;
},
{
glyphname = nine;
lastChange = "2022-10-20 15:44:45 +0000";
layers = (
{
layerId = m01;
shapes = (
{
closed = 1;
nodes = (
(62,214,o),
(34,196,o),
(33,181,qs),
(29,94,o),
(137,-21,o),
(250,-21,qs),
(354,-21,o),
(492,72,o),
(572,245,o),
(595,375,qs),
(628,561,o),
(536,757,o),
(380,757,qs),
(295,757,o),
(162,691,o),
(79,574,o),
(66,499,qs),
(52,419,o),
(99,304,o),
(207,243,o),
(283,243,qs),
(324,243,o),
(405,265,o),
(438,285,q),
(413,178,o),
(337,95,o),
(276,95,qs),
(231,95,o),
(187,130,o),
(180,170,qs),
(177,189,o),
(147,214,o),
(121,214,qs),
(79,214,ls)
);
},
{
closed = 1;
nodes = (
(189,360,o),
(213,501,qs),
(225,569,o),
(302,641,o),
(361,641,qs),
(425,641,o),
(478,565,o),
(465,494,qs),
(454,428,o),
(376,360,o),
(319,360,qs)
);
}
);
userData = {
assembly = "PUSHB[ ]	/* 6 values pushed */
9 1 2 6 1 76 
MPPEM[ ]	/* MeasurePixelPerEm */
PUSHB[ ]	/* 1 value pushed */
24 
LT[ ]	/* LessThan */
IF[ ]	/* If */
NPUSHB[ ]	/* 39 values pushed */
7 1 0 2 1 2 0 1 128 8 1 6 0 2 0 6 2 105 0 5 5 3 97 0 3 3 30 77 0 1 1 4 97 0 4 4 29 4 78 
ELSE[ ]	/* Else */
MPPEM[ ]	/* MeasurePixelPerEm */
PUSHB[ ]	/* 1 value pushed */
31 
LT[ ]	/* LessThan */
IF[ ]	/* If */
NPUSHB[ ]	/* 36 values pushed */
7 1 0 2 1 2 0 1 128 8 1 6 0 2 0 6 2 105 0 1 0 4 1 4 101 0 5 5 3 97 0 3 3 30 5 78 
ELSE[ ]	/* Else */
NPUSHB[ ]	/* 42 values pushed */
7 1 0 2 1 2 0 1 128 0 3 0 5 6 3 5 105 8 1 6 0 2 0 6 2 105 0 1 4 4 1 89 0 1 1 4 97 0 4 1 4 81 
EIF[ ]	/* EndIf */
EIF[ ]	/* EndIf */
NPUSHB[ ]	/* 25 values pushed */
34 34 1 0 34 44 34 43 40 38 28 26 21 19 13 11 7 5 0 33 1 32 9 8 22 
CALL[ ]	/* CallFunction */";
};
width = 630;
}
);
note = nine;
unicode = 57;
},
{
glyphname = colon;
lastChange = "2022-10-20 15:44:45 +0000";
layers = (
{
layerId = m01;
shapes = (
{
closed = 1;
nodes = (
(153,85,o),
(115,128,o),
(81,128,qs),
(46,128,o),
(-9,85,o),
(-14,56,qs),
(-19,27,o),
(21,-16,o),
(56,-16,qs),
(90,-16,o),
(143,27,o),
(148,56,qs)
);
},
{
closed = 1;
nodes = (
(229,513,o),
(190,556,o),
(156,556,qs),
(121,556,o),
(67,513,o),
(62,484,qs),
(57,455,o),
(96,412,o),
(131,412,qs),
(165,412,o),
(219,455,o),
(224,484,qs)
);
}
);
userData = {
assembly = "MPPEM[ ]	/* MeasurePixelPerEm */
PUSHB[ ]	/* 1 value pushed */
31 
LT[ ]	/* LessThan */
IF[ ]	/* If */
NPUSHB[ ]	/* 21 values pushed */
0 2 2 3 97 0 3 3 31 77 0 1 1 0 97 0 0 0 29 0 78 
ELSE[ ]	/* Else */
MPPEM[ ]	/* MeasurePixelPerEm */
PUSHB[ ]	/* 1 value pushed */
41 
LT[ ]	/* LessThan */
IF[ ]	/* If */
NPUSHB[ ]	/* 18 values pushed */
0 1 0 0 1 0 101 0 2 2 3 97 0 3 3 31 2 78 
ELSE[ ]	/* Else */
NPUSHB[ ]	/* 24 values pushed */
0 3 0 2 1 3 2 105 0 1 0 0 1 89 0 1 1 0 97 0 0 1 0 81 
EIF[ ]	/* EndIf */
EIF[ ]	/* EndIf */
PUSHB[ ]	/* 7 values pushed */
36 36 36 33 4 8 26 
CALL[ ]	/* CallFunction */";
};
width = 213;
}
);
note = colon;
unicode = 58;
},
{
glyphname = semicolon;
lastChange = "2022-10-20 15:44:45 +0000";
layers = (
{
layerId = m01;
shapes = (
{
closed = 1;
nodes = (
(265,514,o),
(227,557,o),
(193,557,qs),
(158,557,o),
(103,514,o),
(98,485,qs),
(93,456,o),
(132,413,o),
(167,413,qs),
(201,413,o),
(255,456,o),
(260,485,qs)
);
},
{
closed = 1;
nodes = (
(-63,-153,l),
(37,-153,l),
(208,136,l),
(67,136,l)
);
}
);
userData = {
assembly = "MPPEM[ ]	/* MeasurePixelPerEm */
PUSHB[ ]	/* 1 value pushed */
44 
LT[ ]	/* LessThan */
IF[ ]	/* If */
NPUSHB[ ]	/* 19 values pushed */
4 1 3 0 2 3 2 99 0 0 0 1 97 0 1 1 31 0 78 
ELSE[ ]	/* Else */
NPUSHB[ ]	/* 26 values pushed */
0 1 0 0 3 1 0 105 4 1 3 2 2 3 87 4 1 3 3 2 95 0 2 3 2 79 
EIF[ ]	/* EndIf */
NPUSHB[ ]	/* 12 values pushed */
12 12 12 15 12 15 20 36 33 5 8 25 
CALL[ ]	/* CallFunction */";
};
width = 264;
}
);
note = semicolon;
unicode = 59;
},
{
glyphname = less;
lastChange = "2022-10-20 15:44:45 +0000";
layers = (
{
layerId = m01;
shapes = (
{
closed = 1;
nodes = (
(229,355,o),
(233,377,o),
(242,385,qs),
(483,580,ls),
(492,588,o),
(488,605,o),
(477,605,qs),
(359,605,ls),
(356,605,o),
(354,603,qs),
(86,385,ls),
(77,377,o),
(73,355,o),
(80,347,qs),
(270,128,ls),
(272,126,o),
(275,126,qs),
(393,126,ls),
(404,126,o),
(414,144,o),
(407,151,qs),
(236,347,ls)
);
}
);
userData = {
assembly = "NPUSHB[ ]	/* 21 values pushed */
0 1 0 0 1 87 0 1 1 0 95 0 0 1 0 79 71 34 2 8 24 
CALL[ ]	/* CallFunction */";
};
width = 555;
}
);
note = less;
unicode = 60;
},
{
glyphname = equal;
lastChange = "2022-10-20 15:44:45 +0000";
layers = (
{
layerId = m01;
shapes = (
{
closed = 1;
nodes = (
(53,210,o),
(63,210,qs),
(603,210,ls),
(613,210,o),
(615,220,qs),
(629,297,ls),
(631,307,o),
(621,307,qs),
(81,307,ls),
(71,307,o),
(69,297,qs),
(55,220,ls)
);
},
{
closed = 1;
nodes = (
(91,425,o),
(101,425,qs),
(641,425,ls),
(651,425,o),
(653,435,qs),
(667,512,ls),
(669,522,o),
(659,522,qs),
(119,522,ls),
(109,522,o),
(107,512,qs),
(93,435,ls)
);
}
);
userData = {
assembly = "NPUSHB[ ]	/* 31 values pushed */
0 2 0 3 0 2 3 103 0 0 1 1 0 87 0 0 0 1 95 0 1 0 1 79 51 51 51 49 4 8 26 
CALL[ ]	/* CallFunction */";
};
width = 723;
}
);
note = equal;
unicode = 61;
},
{
glyphname = greater;
lastChange = "2022-10-20 15:44:45 +0000";
layers = (
{
layerId = m01;
shapes = (
{
closed = 1;
nodes = (
(34,144,o),
(38,126,o),
(48,126,qs),
(166,126,ls),
(169,126,o),
(171,128,qs),
(439,347,ls),
(448,355,o),
(452,377,o),
(445,385,qs),
(255,603,ls),
(253,605,o),
(250,605,qs),
(132,605,ls),
(122,605,o),
(112,588,o),
(118,580,q),
(289,385,ls),
(296,377,o),
(292,355,o),
(283,347,qs),
(42,151,ls)
);
}
);
userData = {
assembly = "NPUSHB[ ]	/* 21 values pushed */
0 0 1 1 0 87 0 0 0 1 95 0 1 0 1 79 71 38 2 8 24 
CALL[ ]	/* CallFunction */";
};
width = 539;
}
);
note = greater;
unicode = 62;
},
{
glyphname = question;
lastChange = "2022-10-20 15:44:45 +0000";
layers = (
{
layerId = m01;
shapes = (
{
closed = 1;
nodes = (
(169,495,o),
(171,506,qs),
(181,562,o),
(250,620,o),
(304,620,qs),
(357,620,o),
(406,558,o),
(395,500,qs),
(386,445,o),
(329,387,o),
(243,367,o),
(181,367,qs),
(132,367,l),
(106,199,ls),
(106,195,o),
(111,189,o),
(115,189,qs),
(214,189,ls),
(218,189,o),
(225,195,o),
(225,199,qs),
(243,284,l),
(354,289,o),
(504,396,o),
(522,500,qs),
(534,565,o),
(490,663,o),
(391,716,o),
(320,716,qs),
(250,716,o),
(131,663,o),
(55,567,o),
(44,505,qs),
(44,501,o),
(49,495,o),
(53,495,qs),
(159,495,ls)
);
},
{
closed = 1;
nodes = (
(225,85,o),
(187,128,o),
(153,128,qs),
(118,128,o),
(63,85,o),
(58,56,qs),
(53,27,o),
(92,-16,o),
(127,-16,qs),
(161,-16,o),
(215,27,o),
(220,56,qs)
);
}
);
userData = {
assembly = "PUSHB[ ]	/* 6 values pushed */
15 1 2 1 1 76 
MPPEM[ ]	/* MeasurePixelPerEm */
PUSHB[ ]	/* 1 value pushed */
31 
LT[ ]	/* LessThan */
IF[ ]	/* If */
NPUSHB[ ]	/* 46 values pushed */
8 1 5 4 3 4 5 3 128 0 1 3 2 3 1 2 128 0 3 0 2 7 3 2 103 0 4 4 0 97 0 0 0 28 77 0 7 7 6 97 0 6 6 29 6 78 
ELSE[ ]	/* Else */
NPUSHB[ ]	/* 43 values pushed */
8 1 5 4 3 4 5 3 128 0 1 3 2 3 1 2 128 0 3 0 2 7 3 2 103 0 7 0 6 7 6 101 0 4 4 0 97 0 0 0 28 4 78 
EIF[ ]	/* EndIf */
NPUSHB[ ]	/* 18 values pushed */
0 0 46 44 40 38 0 36 0 35 37 36 35 21 38 9 8 27 
CALL[ ]	/* CallFunction */";
};
width = 524;
}
);
note = question;
unicode = 63;
},
{
glyphname = at;
lastChange = "2022-10-20 15:44:45 +0000";
layers = (
{
layerId = m01;
shapes = (
{
closed = 1;
nodes = (
(755,-17,o),
(880,77,o),
(961,226,o),
(975,307,qs),
(993,409,o),
(928,565,o),
(769,651,o),
(653,651,qs),
(503,651,o),
(238,513,o),
(62,276,o),
(36,133,qs),
(18,30,o),
(86,-125,o),
(242,-209,o),
(355,-209,qs),
(411,-209,o),
(523,-188,o),
(572,-169,qs),
(581,-165,o),
(580,-159,q),
(579,-128,ls),
(579,-108,o),
(550,-92,o),
(528,-100,qs),
(462,-124,o),
(388,-124,qs),
(253,-124,o),
(130,11,o),
(154,141,qs),
(175,262,o),
(312,456,o),
(514,567,o),
(627,567,qs),
(763,567,o),
(883,431,o),
(860,302,qs),
(851,247,o),
(804,137,o),
(742,65,o),
(709,65,qs),
(685,65,o),
(680,105,o),
(694,148,qs),
(783,405,ls),
(790,423,o),
(773,449,o),
(754,449,qs),
(688,449,ls),
(685,449,o),
(679,444,o),
(678,441,qs),
(670,422,l),
(635,459,o),
(561,459,qs),
(483,459,o),
(348,377,o),
(257,242,o),
(243,165,qs),
(228,81,o),
(310,-17,o),
(394,-17,qs),
(441,-17,o),
(535,18,o),
(574,49,q),
(581,18,o),
(636,-17,o),
(681,-17,qs)
);
},
{
closed = 1;
nodes = (
(600,197,o),
(546,118,o),
(475,74,o),
(437,74,qs),
(395,74,o),
(362,128,o),
(371,179,qs),
(379,229,o),
(430,316,o),
(503,369,o),
(545,369,qs),
(592,369,o),
(626,303,o),
(612,248,qs)
);
}
);
userData = {
assembly = "MPPEM[ ]	/* MeasurePixelPerEm */
PUSHB[ ]	/* 1 value pushed */
24 
LT[ ]	/* LessThan */
IF[ ]	/* If */
NPUSHB[ ]	/* 18 values pushed */
14 1 9 1 81 1 3 9 2 1 0 3 46 1 6 5 4 76 
ELSE[ ]	/* Else */
MPPEM[ ]	/* MeasurePixelPerEm */
PUSHB[ ]	/* 1 value pushed */
27 
LT[ ]	/* LessThan */
IF[ ]	/* If */
NPUSHB[ ]	/* 18 values pushed */
14 1 9 2 81 1 3 9 2 1 0 3 46 1 6 5 4 76 
ELSE[ ]	/* Else */
NPUSHB[ ]	/* 18 values pushed */
14 1 9 2 81 1 10 9 2 1 0 3 46 1 6 5 4 76 
EIF[ ]	/* EndIf */
EIF[ ]	/* EndIf */
MPPEM[ ]	/* MeasurePixelPerEm */
PUSHB[ ]	/* 1 value pushed */
24 
LT[ ]	/* LessThan */
IF[ ]	/* If */
NPUSHB[ ]	/* 38 values pushed */
0 7 0 4 1 7 4 105 2 1 1 0 9 3 1 9 105 0 5 0 6 5 6 101 10 1 3 3 0 98 11 8 2 0 0 29 0 78 
ELSE[ ]	/* Else */
MPPEM[ ]	/* MeasurePixelPerEm */
PUSHB[ ]	/* 1 value pushed */
27 
LT[ ]	/* LessThan */
IF[ ]	/* If */
NPUSHB[ ]	/* 45 values pushed */
0 2 1 9 1 2 9 128 0 7 0 4 1 7 4 105 0 1 0 9 3 1 9 105 0 5 0 6 5 6 101 10 1 3 3 0 98 11 8 2 0 0 29 0 78 
ELSE[ ]	/* Else */
MPPEM[ ]	/* MeasurePixelPerEm */
PUSHB[ ]	/* 1 value pushed */
29 
LT[ ]	/* LessThan */
IF[ ]	/* If */
NPUSHB[ ]	/* 56 values pushed */
0 2 1 9 1 2 9 128 0 7 0 4 1 7 4 105 0 1 0 9 10 1 9 105 0 5 0 6 5 6 101 0 10 10 0 97 11 8 2 0 0 29 77 0 3 3 0 98 11 8 2 0 0 29 0 78 
ELSE[ ]	/* Else */
NPUSHB[ ]	/* 56 values pushed */
0 2 1 9 1 2 9 128 0 7 0 4 1 7 4 105 0 1 0 9 10 1 9 105 0 10 3 0 10 89 0 3 11 8 2 0 5 3 0 106 0 5 6 6 5 89 0 5 5 6 97 0 6 5 6 81 
EIF[ ]	/* EndIf */
EIF[ ]	/* EndIf */
EIF[ ]	/* EndIf */
NPUSHB[ ]	/* 21 values pushed */
0 0 78 76 71 69 0 67 0 66 38 41 37 37 37 52 37 36 12 8 30 
CALL[ ]	/* CallFunction */";
};
width = 1013;
}
);
note = at;
unicode = 64;
},
{
glyphname = A;
lastChange = "2022-10-20 15:44:45 +0000";
layers = (
{
layerId = m01;
shapes = (
{
closed = 1;
nodes = (
(455,22,o),
(487,0,o),
(512,0,qs),
(615,0,l),
(484,672,ls),
(480,691,o),
(448,713,o),
(423,713,qs),
(378,713,ls),
(353,713,o),
(313,691,o),
(303,672,qs),
(-67,0,l),
(36,0,ls),
(61,0,o),
(101,22,o),
(111,41,qs),
(167,143,ls),
(172,151,o),
(181,151,qs),
(421,151,ls),
(430,151,o),
(431,143,qs),
(451,41,ls)
);
},
{
closed = 1;
nodes = (
(408,262,o),
(397,262,qs),
(243,262,ls),
(232,262,o),
(237,272,qs),
(353,485,ls),
(356,491,o),
(366,491,o),
(367,485,qs),
(407,272,ls)
);
}
);
userData = {
assembly = "NPUSHB[ ]	/* 28 values pushed */
0 4 0 0 1 4 0 104 0 2 2 28 77 3 1 1 1 29 1 78 56 35 51 36 49 5 8 27 
CALL[ ]	/* CallFunction */";
};
width = 674;
}
);
note = A;
unicode = 65;
},
{
glyphname = B;
lastChange = "2022-10-20 15:44:45 +0000";
layers = (
{
layerId = m01;
shapes = (
{
closed = 1;
nodes = (
(408,160,o),
(344,112,o),
(286,112,qs),
(155,112,l),
(187,298,ls),
(189,306,o),
(191,312,o),
(195,312,qs),
(318,312,ls),
(375,312,o),
(426,262,o),
(417,210,qs)
);
},
{
closed = 1;
nodes = (
(444,468,o),
(387,424,o),
(333,424,qs),
(210,424,l),
(239,591,ls),
(240,599,o),
(242,605,o),
(246,605,qs),
(362,605,ls),
(418,605,o),
(461,561,o),
(453,515,qs)
);
},
{
closed = 1;
nodes = (
(576,255,o),
(532,346,o),
(486,372,q),
(590,424,o),
(607,525,qs),
(617,578,o),
(573,665,o),
(469,717,o),
(390,717,qs),
(150,717,ls),
(134,717,o),
(107,701,o),
(105,688,qs),
(-11,29,ls),
(-13,16,o),
(8,0,o),
(24,0,qs),
(274,0,ls),
(352,0,o),
(478,54,o),
(556,145,o),
(566,201,qs)
);
}
);
userData = {
assembly = "NPUSHB[ ]	/* 44 values pushed */
42 1 0 3 1 76 0 3 0 0 1 3 0 103 0 2 2 5 95 0 5 5 28 77 0 1 1 4 95 0 4 4 29 4 78 53 53 36 36 36 33 6 8 28 
CALL[ ]	/* CallFunction */";
};
width = 613;
}
);
note = B;
unicode = 66;
},
{
glyphname = C;
lastChange = "2022-10-20 15:44:45 +0000";
layers = (
{
layerId = m01;
shapes = (
{
closed = 1;
nodes = (
(-5,259,o),
(65,93,o),
(221,0,o),
(327,0,qs),
(446,0,o),
(650,108,o),
(709,202,qs),
(720,221,o),
(698,240,o),
(679,240,qs),
(611,240,ls),
(588,240,o),
(551,222,o),
(538,207,qs),
(501,159,o),
(408,115,o),
(347,115,qs),
(282,115,o),
(190,173,o),
(152,285,o),
(166,362,qs),
(180,440,o),
(257,552,o),
(369,610,o),
(435,610,qs),
(496,610,o),
(573,565,o),
(593,517,qs),
(601,502,o),
(631,484,o),
(654,484,qs),
(722,484,ls),
(741,484,o),
(770,503,o),
(765,522,qs),
(740,617,o),
(574,726,o),
(455,726,qs),
(350,726,o),
(160,632,o),
(31,466,o),
(13,362,qs)
);
}
);
userData = {
assembly = "NPUSHB[ ]	/* 45 values pushed */
0 1 2 4 2 1 4 128 0 4 3 2 4 3 126 0 2 2 0 97 0 0 0 34 77 0 3 3 5 97 0 5 5 29 5 78 36 52 38 36 52 34 6 8 28 
CALL[ ]	/* CallFunction */";
};
width = 772;
}
);
note = C;
unicode = 67;
},
{
glyphname = D;
lastChange = "2022-10-20 15:44:45 +0000";
layers = (
{
layerId = m01;
shapes = (
{
closed = 1;
nodes = (
(146,717,o),
(105,686,o),
(101,663,qs),
(-11,29,ls),
(-13,16,o),
(8,0,o),
(24,0,qs),
(231,0,ls),
(353,0,o),
(549,87,o),
(675,248,o),
(694,357,qs),
(713,466,o),
(645,628,o),
(479,717,o),
(357,717,qs),
(175,717,ls)
);
},
{
closed = 1;
nodes = (
(154,107,o),
(153,102,qs),
(239,592,ls),
(241,600,o),
(243,606,o),
(247,606,qs),
(338,606,ls),
(461,606,o),
(562,480,o),
(541,357,qs),
(519,235,o),
(375,112,o),
(251,112,qs),
(147,112,l)
);
}
);
userData = {
assembly = "NPUSHB[ ]	/* 48 values pushed */
28 1 1 2 1 76 0 3 3 0 95 4 1 0 0 28 77 5 1 2 2 1 95 0 1 1 29 1 78 18 17 1 0 24 22 17 30 18 30 10 7 0 16 1 15 6 8 22 
CALL[ ]	/* CallFunction */";
};
width = 707;
}
);
note = D;
unicode = 68;
},
{
glyphname = E;
lastChange = "2022-10-20 15:44:45 +0000";
layers = (
{
layerId = m01;
shapes = (
{
closed = 1;
nodes = (
(545,718,o),
(535,718,qs),
(120,718,ls),
(114,718,o),
(110,714,o),
(109,708,qs),
(-15,10,ls),
(-16,4,o),
(-12,0,o),
(-6,0,qs),
(409,0,ls),
(419,0,o),
(420,10,qs),
(429,58,ls),
(433,81,o),
(402,112,o),
(373,112,qs),
(164,112,ls),
(154,112,o),
(156,122,qs),
(187,297,ls),
(189,306,o),
(199,306,qs),
(433,306,ls),
(443,306,o),
(444,316,qs),
(461,409,ls),
(462,418,o),
(452,418,qs),
(218,418,ls),
(208,418,o),
(210,428,qs),
(240,596,ls),
(242,606,o),
(252,606,qs),
(461,606,ls),
(490,606,o),
(531,637,o),
(535,660,qs),
(544,708,ls)
);
}
);
userData = {
assembly = "NPUSHB[ ]	/* 44 values pushed */
33 1 0 5 1 76 0 1 0 2 3 1 2 103 0 0 0 5 95 0 5 5 28 77 0 3 3 4 95 0 4 4 29 4 78 54 36 51 51 51 50 6 8 28 
CALL[ ]	/* CallFunction */";
};
width = 513;
}
);
note = E;
unicode = 69;
},
{
glyphname = F;
lastChange = "2022-10-20 15:44:45 +0000";
layers = (
{
layerId = m01;
shapes = (
{
closed = 1;
nodes = (
(-35,0,o),
(-25,0,qs),
(106,0,ls),
(116,0,o),
(118,10,qs),
(171,315,ls),
(170,310,o),
(162,305,q),
(406,305,ls),
(416,305,o),
(417,315,qs),
(434,407,ls),
(435,416,o),
(425,416,qs),
(181,416,l),
(188,412,o),
(188,407,qs),
(217,572,ls),
(220,589,o),
(242,606,o),
(258,606,qs),
(461,606,ls),
(490,606,o),
(531,637,o),
(535,660,qs),
(543,707,ls),
(545,717,o),
(535,717,qs),
(126,717,ls),
(110,717,o),
(88,699,o),
(85,683,qs),
(-33,10,ls)
);
}
);
userData = {
assembly = "NPUSHB[ ]	/* 38 values pushed */
15 1 3 2 1 76 0 2 0 3 4 2 3 103 0 1 1 0 95 0 0 0 28 77 0 4 4 29 4 78 52 35 37 52 50 5 8 27 
CALL[ ]	/* CallFunction */";
};
width = 504;
}
);
note = F;
unicode = 70;
},
{
glyphname = G;
lastChange = "2022-10-20 15:44:45 +0000";
layers = (
{
layerId = m01;
shapes = (
{
closed = 1;
nodes = (
(351,725,o),
(160,631,o),
(31,466,o),
(13,362,qs),
(-5,259,o),
(65,93,o),
(223,0,o),
(329,0,qs),
(429,0,o),
(608,86,o),
(734,233,o),
(758,321,q),
(768,378,ls),
(770,392,o),
(749,407,o),
(733,407,qs),
(403,407,ls),
(374,407,o),
(332,376,o),
(329,354,qs),
(320,307,ls),
(318,297,o),
(328,297,qs),
(615,297,l),
(613,307,o),
(605,314,o),
(598,311,o),
(597,308,qs),
(568,215,o),
(440,118,o),
(350,118,qs),
(284,118,o),
(191,176,o),
(153,286,o),
(166,362,qs),
(179,438,o),
(257,549,o),
(370,607,o),
(436,607,qs),
(502,607,o),
(583,551,o),
(603,491,qs),
(604,484,o),
(612,484,qs),
(760,484,ls),
(765,484,o),
(771,489,o),
(771,494,q),
(760,565,o),
(674,669,o),
(540,725,o),
(457,725,qs)
);
}
);
userData = {
assembly = "NPUSHB[ ]	/* 59 values pushed */
39 1 3 4 1 76 0 0 1 4 1 0 4 128 0 4 0 3 2 4 3 103 0 1 1 6 97 7 1 6 6 34 77 0 2 2 5 97 0 5 5 29 5 78 0 0 0 51 0 50 38 52 38 38 36 37 8 8 28 
CALL[ ]	/* CallFunction */";
};
width = 778;
}
);
note = G;
unicode = 71;
},
{
glyphname = H;
lastChange = "2022-10-20 15:44:45 +0000";
layers = (
{
layerId = m01;
shapes = (
{
closed = 1;
nodes = (
(434,23,o),
(462,0,o),
(485,0,qs),
(571,0,ls),
(581,0,o),
(583,10,qs),
(705,707,ls),
(707,717,o),
(697,717,qs),
(566,717,ls),
(556,717,o),
(554,707,qs),
(510,453,ls),
(507,438,o),
(486,419,o),
(469,419,qs),
(219,419,ls),
(209,419,o),
(210,429,qs),
(253,673,ls),
(257,694,o),
(229,717,o),
(206,717,qs),
(120,717,ls),
(110,717,o),
(108,707,qs),
(-14,10,ls),
(-16,0,o),
(-6,0,qs),
(125,0,ls),
(135,0,o),
(137,10,qs),
(183,273,ls),
(186,290,o),
(208,307,o),
(224,307,qs),
(474,307,ls),
(484,307,o),
(482,298,qs),
(438,44,ls)
);
}
);
userData = {
assembly = "NPUSHB[ ]	/* 30 values pushed */
0 3 0 0 1 3 0 103 4 1 2 2 28 77 5 1 1 1 29 1 78 51 52 52 51 52 49 6 8 28 
CALL[ ]	/* CallFunction */";
};
width = 691;
}
);
note = H;
unicode = 72;
},
{
glyphname = I;
lastChange = "2022-10-20 15:44:45 +0000";
layers = (
{
layerId = m01;
shapes = (
{
closed = 1;
nodes = (
(-13,18,o),
(3,0,o),
(19,0,qs),
(125,0,ls),
(135,0,o),
(137,10,qs),
(255,683,ls),
(258,699,o),
(243,717,o),
(226,717,qs),
(120,717,ls),
(110,717,o),
(108,707,qs),
(-10,34,ls)
);
}
);
userData = {
assembly = "NPUSHB[ ]	/* 16 values pushed */
0 0 0 28 77 0 1 1 29 1 78 52 49 2 8 24 
CALL[ ]	/* CallFunction */";
};
width = 246;
}
);
note = I;
unicode = 73;
},
{
glyphname = J;
lastChange = "2022-10-20 15:44:45 +0000";
layers = (
{
layerId = m01;
shapes = (
{
closed = 1;
nodes = (
(263,117,o),
(192,117,qs),
(160,117,o),
(135,146,o),
(134,180,qs),
(131,227,o),
(76,227,qs),
(28,227,ls),
(12,227,o),
(-15,212,o),
(-17,199,qs),
(-30,108,o),
(73,0,o),
(172,0,qs),
(238,0,o),
(348,50,o),
(420,142,o),
(430,201,qs),
(519,707,ls),
(521,717,o),
(511,717,qs),
(434,717,ls),
(405,717,o),
(364,686,o),
(360,664,qs),
(278,201,ls)
);
}
);
userData = {
assembly = "MPPEM[ ]	/* MeasurePixelPerEm */
PUSHB[ ]	/* 1 value pushed */
11 
LT[ ]	/* LessThan */
IF[ ]	/* If */
NPUSHB[ ]	/* 23 values pushed */
0 2 0 3 3 2 114 0 0 0 28 77 0 3 3 1 98 0 1 1 29 1 78 
ELSE[ ]	/* Else */
NPUSHB[ ]	/* 24 values pushed */
0 2 0 3 0 2 3 128 0 0 0 28 77 0 3 3 1 98 0 1 1 29 1 78 
EIF[ ]	/* EndIf */
PUSHB[ ]	/* 7 values pushed */
35 52 37 50 4 8 26 
CALL[ ]	/* CallFunction */";
};
width = 530;
}
);
note = J;
unicode = 74;
},
{
glyphname = K;
lastChange = "2022-10-20 15:44:45 +0000";
layers = (
{
layerId = m01;
shapes = (
{
closed = 1;
nodes = (
(263,367,o),
(271,374,qs),
(617,672,ls),
(634,686,o),
(631,706,o),
(609,717,o),
(597,717,qs),
(525,717,ls),
(487,717,o),
(456,693,q),
(209,468,ls),
(204,463,o),
(197,465,o),
(198,472,qs),
(232,663,ls),
(236,686,o),
(205,717,o),
(176,717,qs),
(100,717,ls),
(90,717,o),
(88,707,qs),
(-27,54,ls),
(-31,31,o),
(0,0,o),
(29,0,qs),
(105,0,ls),
(115,0,o),
(117,10,qs),
(157,241,ls),
(159,248,o),
(167,250,o),
(170,245,qs),
(344,16,l),
(345,8,o),
(368,0,o),
(379,0,qs),
(474,0,ls),
(496,0,o),
(524,24,o),
(510,45,qs),
(268,360,ls)
);
}
);
userData = {
assembly = "NPUSHB[ ]	/* 26 values pushed */
26 1 0 2 1 76 3 1 2 2 28 77 1 1 0 0 29 0 78 56 52 56 50 4 8 26 
CALL[ ]	/* CallFunction */";
};
width = 599;
}
);
note = K;
unicode = 75;
},
{
glyphname = L;
lastChange = "2022-10-20 15:44:45 +0000";
layers = (
{
layerId = m01;
shapes = (
{
closed = 1;
nodes = (
(83,717,o),
(81,707,qs),
(-38,29,ls),
(-40,16,o),
(-19,0,o),
(-3,0,qs),
(312,0,ls),
(328,0,o),
(355,16,o),
(357,29,qs),
(370,101,ls),
(371,111,o),
(361,111,qs),
(163,111,ls),
(148,111,o),
(131,131,o),
(134,146,qs),
(225,663,ls),
(229,686,o),
(198,717,o),
(169,717,qs),
(93,717,ls)
);
}
);
userData = {
assembly = "NPUSHB[ ]	/* 30 values pushed */
3 1 0 0 28 77 0 1 1 2 96 0 2 2 29 2 78 1 0 16 13 9 6 0 21 1 20 4 8 22 
CALL[ ]	/* CallFunction */";
};
width = 432;
}
);
note = L;
unicode = 76;
},
{
glyphname = M;
lastChange = "2022-10-20 15:44:45 +0000";
layers = (
{
layerId = m01;
shapes = (
{
closed = 1;
nodes = (
(-14,9,o),
(-7,0,o),
(-1,0,qs),
(70,0,ls),
(99,0,o),
(141,31,o),
(145,53,qs),
(204,389,l),
(306,23,ls),
(311,8,o),
(323,0,o),
(339,0,qs),
(397,0,ls),
(413,0,o),
(429,8,o),
(438,23,qs),
(668,387,l),
(610,53,ls),
(606,31,o),
(636,0,o),
(665,0,qs),
(736,0,ls),
(742,0,o),
(753,9,o),
(754,15,qs),
(874,697,ls),
(875,703,o),
(868,712,o),
(862,712,qs),
(779,712,ls),
(755,712,o),
(713,693,o),
(703,675,q),
(431,246,ls),
(422,232,o),
(396,232,o),
(393,246,qs),
(271,675,l),
(267,693,o),
(233,712,o),
(209,712,qs),
(125,712,ls),
(119,712,o),
(108,703,o),
(107,697,qs),
(-13,15,ls)
);
}
);
userData = {
assembly = "NPUSHB[ ]	/* 40 values pushed */
37 28 0 3 1 0 20 1 3 1 2 76 2 1 0 0 28 77 0 1 1 3 95 5 4 2 3 3 29 3 78 38 54 54 36 20 50 6 8 28 
CALL[ ]	/* CallFunction */";
};
width = 861;
}
);
note = M;
unicode = 77;
},
{
glyphname = N;
lastChange = "2022-10-20 15:44:45 +0000";
layers = (
{
layerId = m01;
shapes = (
{
closed = 1;
nodes = (
(576,718,o),
(566,709,o),
(565,703,qs),
(473,181,ls),
(473,186,o),
(510,201,q),
(267,686,ls),
(260,700,o),
(227,718,o),
(204,718,qs),
(125,718,ls),
(119,718,o),
(109,709,o),
(108,703,qs),
(-7,54,ls),
(-11,31,o),
(20,0,o),
(49,0,qs),
(125,0,ls),
(135,0,o),
(136,10,qs),
(230,538,ls),
(229,533,o),
(192,518,q),
(435,32,ls),
(442,18,o),
(475,0,o),
(498,0,qs),
(582,0,ls),
(592,0,o),
(593,10,qs),
(709,664,ls),
(713,687,o),
(682,718,o),
(653,718,qs),
(582,718,ls)
);
}
);
userData = {
assembly = "NPUSHB[ ]	/* 38 values pushed */
32 29 21 11 4 1 0 1 76 3 4 2 0 0 28 77 2 1 1 1 29 1 78 1 0 26 23 18 15 8 5 0 35 1 34 5 8 22 
CALL[ ]	/* CallFunction */";
};
width = 700;
}
);
note = N;
unicode = 78;
},
{
glyphname = O;
lastChange = "2022-10-20 15:44:45 +0000";
layers = (
{
layerId = m01;
shapes = (
{
closed = 1;
nodes = (
(791,467,o),
(720,631,o),
(563,725,o),
(457,725,qs),
(351,725,o),
(160,631,o),
(31,467,o),
(13,363,qs),
(-5,258,o),
(66,94,o),
(223,0,o),
(329,0,qs),
(435,0,o),
(626,94,o),
(755,258,o),
(773,363,qs)
);
},
{
closed = 1;
nodes = (
(180,441,o),
(257,552,o),
(371,610,o),
(437,610,qs),
(503,610,o),
(595,552,o),
(634,441,o),
(620,363,qs),
(606,285,o),
(529,174,o),
(415,115,o),
(349,115,qs),
(283,115,o),
(191,174,o),
(152,285,o),
(166,363,qs)
);
}
);
userData = {
assembly = "NPUSHB[ ]	/* 28 values pushed */
0 3 3 1 97 0 1 1 34 77 0 2 2 0 97 0 0 0 29 0 78 38 38 38 34 4 8 26 
CALL[ ]	/* CallFunction */";
};
width = 786;
}
);
note = O;
unicode = 79;
},
{
glyphname = P;
lastChange = "2022-10-20 15:44:45 +0000";
layers = (
{
layerId = m01;
shapes = (
{
closed = 1;
nodes = (
(235,570,ls),
(238,585,o),
(262,605,o),
(277,605,qs),
(345,605,ls),
(410,605,o),
(455,556,o),
(445,499,qs),
(435,444,o),
(373,395,o),
(308,395,qs),
(204,395,l)
);
},
{
closed = 1;
nodes = (
(609,560,o),
(565,660,o),
(453,717,o),
(365,717,qs),
(175,717,ls),
(146,717,o),
(105,686,o),
(101,663,qs),
(-14,10,ls),
(-16,0,o),
(-6,0,qs),
(70,0,ls),
(99,0,o),
(140,31,o),
(144,54,qs),
(185,283,l),
(289,283,ls),
(381,283,o),
(513,342,o),
(588,441,o),
(598,499,qs)
);
}
);
userData = {
assembly = "NPUSHB[ ]	/* 42 values pushed */
5 1 0 0 2 3 0 2 103 0 1 1 4 95 0 4 4 28 77 0 3 3 29 3 78 1 0 29 26 22 19 16 14 8 5 0 11 1 11 6 8 22 
CALL[ ]	/* CallFunction */";
};
width = 579;
}
);
note = P;
unicode = 80;
},
{
glyphname = Q;
lastChange = "2022-10-20 15:44:45 +0000";
layers = (
{
layerId = m01;
shapes = (
{
closed = 1;
nodes = (
(191,439,o),
(268,552,o),
(382,610,o),
(448,610,qs),
(514,610,o),
(606,552,o),
(645,439,o),
(631,361,qs),
(617,283,o),
(539,171,o),
(426,112,o),
(360,112,qs),
(294,112,o),
(201,171,o),
(163,283,o),
(177,361,qs)
);
},
{
closed = 1;
nodes = (
(802,465,o),
(731,631,o),
(574,725,o),
(468,725,qs),
(362,725,o),
(171,631,o),
(42,465,o),
(24,361,qs),
(5,256,o),
(76,90,o),
(233,-4,o),
(339,-4,qs),
(397,-4,o),
(443,8,q),
(443,7,o),
(427,13,q),
(525,-101,ls),
(545,-125,o),
(586,-125,qs),
(662,-125,ls),
(674,-125,o),
(700,-115,o),
(709,-95,o),
(697,-80,qs),
(558,81,l),
(544,69,l),
(644,106,o),
(766,261,o),
(784,361,qs)
);
}
);
userData = {
assembly = "NPUSHB[ ]	/* 42 values pushed */
28 19 18 3 3 0 1 76 0 2 3 2 134 0 1 1 4 97 0 4 4 34 77 0 0 0 3 97 0 3 3 29 3 78 38 37 59 38 34 5 8 27 
CALL[ ]	/* CallFunction */";
};
width = 788;
}
);
note = Q;
unicode = 81;
},
{
glyphname = R;
lastChange = "2022-10-20 15:44:45 +0000";
layers = (
{
layerId = m01;
shapes = (
{
closed = 1;
nodes = (
(429,443,o),
(363,387,o),
(301,387,qs),
(189,387,l),
(196,382,o),
(195,377,qs),
(229,570,ls),
(232,585,o),
(256,605,o),
(271,605,qs),
(339,605,ls),
(404,605,o),
(449,555,o),
(439,498,qs)
);
},
{
closed = 1;
nodes = (
(140,717,o),
(99,686,o),
(95,663,qs),
(-20,10,ls),
(-22,0,o),
(-12,0,qs),
(119,0,ls),
(129,0,o),
(131,10,qs),
(179,287,ls),
(179,282,o),
(170,277,q),
(237,277,l),
(234,280,o),
(341,33,q),
(348,19,o),
(381,0,o),
(403,0,qs),
(506,0,ls),
(514,0,o),
(523,12,o),
(520,18,qs),
(394,304,ls),
(392,309,o),
(371,308,o),
(359,295,o),
(366,284,q),
(466,306,o),
(579,423,o),
(593,498,qs),
(603,559,o),
(560,659,o),
(447,717,o),
(359,717,qs),
(169,717,ls)
);
}
);
userData = {
assembly = "NPUSHB[ ]	/* 63 values pushed */
7 1 3 1 21 1 5 3 2 76 0 3 1 5 1 3 5 128 0 1 0 5 4 1 5 103 0 0 0 2 95 7 1 2 2 28 77 6 1 4 4 29 4 78 15 14 43 40 36 34 31 28 24 23 14 48 15 47 37 49 8 8 24 
CALL[ ]	/* CallFunction */";
};
width = 608;
}
);
note = R;
unicode = 82;
},
{
glyphname = S;
lastChange = "2022-10-20 15:44:45 +0000";
layers = (
{
layerId = m01;
shapes = (
{
closed = 1;
nodes = (
(546,283,o),
(494,371,o),
(408,411,o),
(338,428,qs),
(292,440,o),
(238,460,o),
(207,495,o),
(212,524,qs),
(221,571,o),
(283,614,o),
(332,612,qs),
(405,611,o),
(421,554,qs),
(426,537,o),
(456,515,o),
(481,515,qs),
(539,515,ls),
(556,515,o),
(584,532,o),
(585,548,qs),
(585,600,o),
(530,681,o),
(427,726,o),
(356,726,qs),
(279,726,o),
(151,674,o),
(69,580,o),
(59,521,qs),
(45,445,o),
(97,359,o),
(183,321,o),
(253,304,qs),
(300,292,o),
(355,272,o),
(385,235,o),
(380,205,qs),
(372,161,o),
(308,113,o),
(254,113,qs),
(207,113,o),
(163,148,o),
(157,181,qs),
(154,201,o),
(125,225,o),
(98,225,qs),
(43,225,ls),
(27,225,o),
(0,209,o),
(-2,196,qs),
(-9,138,o),
(48,49,o),
(160,0,o),
(234,0,qs),
(315,0,o),
(445,60,o),
(524,156,o),
(533,209,qs)
);
}
);
userData = {
assembly = "NPUSHB[ ]	/* 45 values pushed */
0 4 5 1 5 4 1 128 0 1 2 5 1 2 126 0 5 5 3 97 0 3 3 34 77 0 2 2 0 97 0 0 0 29 0 78 35 53 45 36 53 34 6 8 28 
CALL[ ]	/* CallFunction */";
};
width = 587;
}
);
note = S;
unicode = 83;
},
{
glyphname = T;
lastChange = "2022-10-20 15:44:45 +0000";
layers = (
{
layerId = m01;
shapes = (
{
closed = 1;
nodes = (
(48,606,o),
(58,606,qs),
(204,606,ls),
(221,606,o),
(236,589,o),
(233,572,qs),
(134,10,ls),
(132,0,o),
(142,0,qs),
(273,0,ls),
(283,0,o),
(285,10,qs),
(384,572,ls),
(387,589,o),
(409,606,o),
(425,606,qs),
(570,606,ls),
(580,606,o),
(581,616,qs),
(597,707,ls),
(599,717,o),
(589,717,qs),
(77,717,ls),
(67,717,o),
(65,707,qs),
(49,616,ls)
);
}
);
userData = {
assembly = "NPUSHB[ ]	/* 24 values pushed */
3 1 1 1 0 95 0 0 0 28 77 0 2 2 29 2 78 52 52 51 49 4 8 26 
CALL[ ]	/* CallFunction */";
};
width = 541;
}
);
note = T;
unicode = 84;
},
{
glyphname = U;
lastChange = "2022-10-20 15:44:45 +0000";
layers = (
{
layerId = m01;
shapes = (
{
closed = 1;
nodes = (
(14,184,o),
(70,61,o),
(192,0,o),
(274,0,qs),
(356,0,o),
(500,61,o),
(599,184,o),
(615,274,qs),
(691,707,ls),
(693,717,o),
(683,717,qs),
(607,717,ls),
(578,717,o),
(537,686,o),
(533,664,qs),
(464,273,ls),
(449,188,o),
(365,116,o),
(295,116,qs),
(225,116,o),
(166,188,o),
(181,273,qs),
(250,664,ls),
(254,686,o),
(223,717,o),
(194,717,qs),
(118,717,ls),
(108,717,o),
(106,707,qs),
(30,274,ls)
);
}
);
userData = {
assembly = "NPUSHB[ ]	/* 24 values pushed */
2 1 0 0 28 77 0 1 1 3 97 0 3 3 29 3 78 37 53 37 49 4 8 26 
CALL[ ]	/* CallFunction */";
};
width = 675;
}
);
note = U;
unicode = 85;
},
{
glyphname = V;
lastChange = "2022-10-20 15:44:45 +0000";
layers = (
{
layerId = m01;
shapes = (
{
closed = 1;
nodes = (
(332,236,o),
(300,236,o),
(297,252,qs),
(210,696,ls),
(208,705,o),
(185,717,o),
(173,717,qs),
(64,717,ls),
(58,717,o),
(50,708,o),
(50,701,qs),
(191,39,ls),
(194,21,o),
(227,0,o),
(252,0,qs),
(297,0,ls),
(322,0,o),
(361,21,o),
(372,39,qs),
(745,701,ls),
(749,708,o),
(743,717,o),
(737,717,qs),
(629,717,ls),
(617,717,o),
(590,705,o),
(586,696,qs),
(341,252,ls)
);
}
);
userData = {
assembly = "NPUSHB[ ]	/* 24 values pushed */
2 1 0 0 28 77 0 3 3 1 97 0 1 1 29 1 78 20 53 54 34 4 8 26 
CALL[ ]	/* CallFunction */";
};
width = 676;
}
);
note = V;
unicode = 86;
},
{
glyphname = W;
lastChange = "2022-10-20 15:44:45 +0000";
layers = (
{
layerId = m01;
shapes = (
{
closed = 1;
nodes = (
(127,23,o),
(160,0,o),
(186,0,qs),
(226,1,ls),
(252,1,o),
(292,25,o),
(300,43,qs),
(493,441,ls),
(496,447,o),
(509,447,o),
(509,441,q),
(556,43,ls),
(559,23,o),
(592,1,o),
(617,1,qs),
(657,1,ls),
(682,1,o),
(723,23,o),
(732,43,qs),
(1046,703,ls),
(1049,708,o),
(1043,717,o),
(1037,717,qs),
(927,717,ls),
(913,717,o),
(886,703,o),
(882,693,qs),
(693,267,ls),
(691,261,o),
(677,261,o),
(676,267,qs),
(635,674,ls),
(633,693,o),
(599,717,o),
(574,717,qs),
(534,717,ls),
(508,717,o),
(468,693,o),
(460,674,qs),
(264,259,l),
(262,253,o),
(249,255,o),
(248,260,q),
(211,693,ls),
(211,704,o),
(187,717,o),
(174,717,qs),
(66,717,ls),
(60,717,o),
(52,708,o),
(53,703,qs),
(126,43,l)
);
}
);
userData = {
assembly = "NPUSHB[ ]	/* 22 values pushed */
2 1 2 0 0 28 77 4 1 3 3 29 3 78 57 54 41 57 50 5 8 27 
CALL[ ]	/* CallFunction */";
};
width = 996;
}
);
note = W;
unicode = 87;
},
{
glyphname = X;
lastChange = "2022-10-20 15:44:45 +0000";
layers = (
{
layerId = m01;
shapes = (
{
closed = 1;
nodes = (
(387,11,o),
(407,0,o),
(418,0,qs),
(535,0,ls),
(543,0,o),
(552,12,o),
(549,18,qs),
(399,346,ls),
(397,351,o),
(399,365,o),
(403,370,qs),
(670,699,ls),
(675,705,o),
(670,717,o),
(662,717,qs),
(546,717,ls),
(535,717,o),
(511,706,o),
(503,699,q),
(357,510,ls),
(350,500,o),
(329,499,o),
(325,509,qs),
(239,699,l),
(233,706,o),
(213,717,o),
(202,717,qs),
(86,717,ls),
(78,717,o),
(69,705,o),
(72,699,qs),
(222,370,ls),
(224,365,o),
(222,351,o),
(218,346,qs),
(-47,18,ls),
(-52,12,o),
(-47,0,o),
(-39,0,qs),
(76,0,ls),
(87,0,o),
(111,11,o),
(119,18,q),
(264,206,ls),
(271,216,o),
(292,216,o),
(296,206,qs),
(381,18,l)
);
}
);
userData = {
assembly = "NPUSHB[ ]	/* 30 values pushed */
0 3 0 0 1 3 0 105 4 1 2 2 28 77 5 1 1 1 29 1 78 58 36 20 58 36 17 6 8 28 
CALL[ ]	/* CallFunction */";
};
width = 621;
}
);
note = X;
unicode = 88;
},
{
glyphname = Y;
lastChange = "2022-10-20 15:44:45 +0000";
layers = (
{
layerId = m01;
shapes = (
{
closed = 1;
nodes = (
(202,271,o),
(198,253,qs),
(159,29,ls),
(157,16,o),
(178,0,o),
(194,0,qs),
(265,0,ls),
(281,0,o),
(308,16,o),
(310,29,qs),
(349,253,ls),
(353,271,o),
(362,285,qs),
(658,699,ls),
(662,706,o),
(657,717,o),
(650,717,qs),
(535,717,ls),
(523,717,o),
(496,706,o),
(492,699,qs),
(318,439,ls),
(313,431,o),
(297,431,o),
(294,439,qs),
(212,699,ls),
(210,706,o),
(187,717,o),
(175,717,qs),
(59,717,ls),
(51,717,o),
(42,706,o),
(45,699,qs),
(197,285,ls)
);
}
);
userData = {
assembly = "NPUSHB[ ]	/* 24 values pushed */
2 1 0 0 28 77 0 1 1 3 95 0 3 3 29 3 78 57 36 20 50 4 8 26 
CALL[ ]	/* CallFunction */";
};
width = 584;
}
);
note = Y;
unicode = 89;
},
{
glyphname = Z;
lastChange = "2022-10-20 15:44:45 +0000";
layers = (
{
layerId = m01;
shapes = (
{
closed = 1;
nodes = (
(582,701,o),
(561,717,o),
(545,717,qs),
(93,717,ls),
(83,717,o),
(81,707,qs),
(72,655,ls),
(68,632,o),
(99,601,o),
(128,601,qs),
(360,601,ls),
(368,601,o),
(373,590,o),
(368,583,qs),
(-23,101,l),
(-32,87,o),
(-33,83,qs),
(-42,29,ls),
(-44,16,o),
(-23,0,o),
(-7,0,qs),
(451,0,ls),
(461,0,o),
(463,10,qs),
(472,62,ls),
(476,85,o),
(445,116,o),
(416,116,qs),
(178,116,ls),
(170,116,o),
(165,127,o),
(170,134,qs),
(561,616,l),
(570,630,o),
(571,634,qs),
(580,688,ls)
);
}
);
userData = {
assembly = "NPUSHB[ ]	/* 38 values pushed */
0 1 2 3 18 1 1 0 2 76 0 2 2 3 95 0 3 3 28 77 0 0 0 1 95 0 1 1 29 1 78 52 56 52 53 4 8 26 
CALL[ ]	/* CallFunction */";
};
width = 541;
}
);
note = Z;
unicode = 90;
},
{
glyphname = bracketleft;
lastChange = "2022-10-20 15:44:45 +0000";
layers = (
{
layerId = m01;
shapes = (
{
closed = 1;
nodes = (
(12,-196,o),
(22,-196,qs),
(222,-196,ls),
(232,-196,o),
(234,-186,qs),
(248,-110,ls),
(249,-100,o),
(239,-100,qs),
(190,-100,ls),
(175,-100,o),
(158,-79,o),
(161,-64,qs),
(315,813,ls),
(318,828,o),
(343,849,o),
(358,849,qs),
(407,849,ls),
(417,849,o),
(419,859,qs),
(432,934,ls),
(434,944,o),
(424,944,qs),
(224,944,ls),
(214,944,o),
(212,934,qs),
(14,-186,ls)
);
}
);
userData = {
assembly = "NPUSHB[ ]	/* 31 values pushed */
0 0 0 1 2 0 1 105 0 2 3 3 2 89 0 2 2 3 95 0 3 2 3 79 51 53 51 49 4 8 26 
CALL[ ]	/* CallFunction */";
};
width = 423;
}
);
note = bracketleft;
unicode = 91;
},
{
glyphname = backslash;
lastChange = "2022-10-20 15:44:45 +0000";
layers = (
{
layerId = m01;
shapes = (
{
closed = 1;
nodes = (
(319,942,l),
(229,942,l),
(346,-170,l),
(436,-170,l)
);
}
);
userData = {
assembly = "NPUSHB[ ]	/* 20 values pushed */
0 0 1 0 133 2 1 1 1 118 0 0 0 3 0 3 17 3 8 23 
CALL[ ]	/* CallFunction */";
};
width = 658;
}
);
note = backslash;
unicode = 92;
},
{
glyphname = bracketright;
lastChange = "2022-10-20 15:44:45 +0000";
layers = (
{
layerId = m01;
shapes = (
{
closed = 1;
nodes = (
(434,944,o),
(424,944,qs),
(224,944,ls),
(214,944,o),
(212,934,qs),
(199,859,ls),
(197,849,o),
(207,849,qs),
(256,849,ls),
(271,849,o),
(288,828,o),
(285,813,qs),
(131,-64,ls),
(128,-79,o),
(103,-100,o),
(88,-100,qs),
(39,-100,ls),
(29,-100,o),
(28,-110,qs),
(14,-186,ls),
(12,-196,o),
(22,-196,qs),
(222,-196,ls),
(232,-196,o),
(234,-186,qs),
(432,934,ls)
);
}
);
userData = {
assembly = "NPUSHB[ ]	/* 31 values pushed */
0 3 0 2 1 3 2 105 0 1 0 0 1 89 0 1 1 0 95 0 0 1 0 79 51 53 51 49 4 8 26 
CALL[ ]	/* CallFunction */";
};
width = 423;
}
);
note = bracketright;
unicode = 93;
},
{
glyphname = asciicircum;
lastChange = "2022-10-20 15:44:45 +0000";
layers = (
{
layerId = m01;
shapes = (
{
closed = 1;
nodes = (
(434,159,o),
(440,159,qs),
(552,159,ls),
(559,159,o),
(567,170,o),
(565,176,qs),
(426,684,ls),
(423,692,o),
(410,703,o),
(401,703,qs),
(325,703,ls),
(316,703,o),
(298,692,o),
(293,684,qs),
(-25,176,ls),
(-29,170,o),
(-25,159,o),
(-18,159,qs),
(93,159,ls),
(99,159,o),
(102,164,qs),
(272,436,ls),
(284,456,o),
(322,471,o),
(355,455,o),
(361,435,qs),
(433,164,ls)
);
}
);
userData = {
assembly = "PUSHB[ ]	/* 2 values pushed */
6 100 
WCVTP[ ]	/* WriteCVTInPixels */
NPUSHB[ ]	/* 16 values pushed */
0 1 0 1 133 2 1 0 0 118 37 54 23 3 8 25 
CALL[ ]	/* CallFunction */
PUSHB[ ]	/* 2 values pushed */
6 0 
WCVTP[ ]	/* WriteCVTInPixels */";
};
width = 629;
}
);
note = asciicircum;
unicode = 94;
},
{
glyphname = underscore;
lastChange = "2022-10-20 15:44:45 +0000";
layers = (
{
layerId = m01;
shapes = (
{
closed = 1;
nodes = (
(76,-132,o),
(86,-132,qs),
(638,-132,ls),
(648,-132,o),
(650,-122,qs),
(664,-38,ls),
(666,-28,o),
(656,-28,qs),
(104,-28,ls),
(94,-28,o),
(92,-38,qs),
(78,-122,ls)
);
}
);
userData = {
assembly = "PUSHB[ ]	/* 2 values pushed */
6 100 
WCVTP[ ]	/* WriteCVTInPixels */
NPUSHB[ ]	/* 21 values pushed */
0 0 1 1 0 87 0 0 0 1 95 0 1 0 1 79 51 49 2 8 24 
CALL[ ]	/* CallFunction */
PUSHB[ ]	/* 2 values pushed */
6 0 
WCVTP[ ]	/* WriteCVTInPixels */";
};
width = 733;
}
);
note = underscore;
unicode = 95;
},
{
glyphname = grave;
lastChange = "2022-10-20 15:44:45 +0000";
layers = (
{
layerId = m01;
shapes = (
{
closed = 1;
nodes = (
(-1,699,o),
(4,697,q),
(212,574,ls),
(219,570,o),
(231,577,o),
(232,585,qs),
(245,655,ls),
(246,661,o),
(242,663,qs),
(36,797,ls),
(29,801,o),
(16,794,o),
(15,786,qs),
(0,705,ls)
);
}
);
userData = {
assembly = "PUSHB[ ]	/* 4 values pushed */
9 2 1 50 
CALL[ ]	/* CallFunction */";
};
width = 257;
}
);
note = grave;
unicode = 96;
},
{
glyphname = a;
lastChange = "2022-10-20 15:44:45 +0000";
layers = (
{
layerId = m01;
shapes = (
{
closed = 1;
nodes = (
(434,39,o),
(465,9,o),
(494,9,qs),
(570,9,ls),
(580,9,o),
(581,18,qs),
(671,526,ls),
(675,548,o),
(644,578,o),
(615,578,qs),
(539,578,ls),
(529,578,o),
(527,568,qs),
(519,520,l),
(489,546,o),
(406,576,o),
(354,576,qs),
(271,576,o),
(126,502,o),
(27,370,o),
(12,286,qs),
(-2,202,o),
(50,71,o),
(169,0,o),
(252,0,qs),
(304,0,o),
(398,29,o),
(437,54,q),
(438,61,ls)
);
},
{
closed = 1;
nodes = (
(154,342,o),
(213,423,o),
(294,465,o),
(340,465,qs),
(385,465,o),
(453,423,o),
(482,342,o),
(473,287,qs),
(463,232,o),
(405,152,o),
(322,110,o),
(277,110,qs),
(206,110,o),
(130,203,o),
(144,286,qs)
);
}
);
userData = {
assembly = "MPPEM[ ]	/* MeasurePixelPerEm */
PUSHB[ ]	/* 1 value pushed */
27 
LT[ ]	/* LessThan */
IF[ ]	/* If */
NPUSHB[ ]	/* 10 values pushed */
14 1 5 1 28 1 0 4 2 76 
ELSE[ ]	/* Else */
NPUSHB[ ]	/* 10 values pushed */
14 1 5 1 28 1 3 4 2 76 
EIF[ ]	/* EndIf */
MPPEM[ ]	/* MeasurePixelPerEm */
PUSHB[ ]	/* 1 value pushed */
27 
LT[ ]	/* LessThan */
IF[ ]	/* If */
NPUSHB[ ]	/* 23 values pushed */
0 5 5 1 97 2 1 1 1 37 77 0 4 4 0 97 3 1 0 0 29 0 78 
ELSE[ ]	/* Else */
NPUSHB[ ]	/* 27 values pushed */
0 5 5 1 97 2 1 1 1 37 77 0 3 3 29 77 0 4 4 0 97 0 0 0 29 0 78 
EIF[ ]	/* EndIf */
NPUSHB[ ]	/* 9 values pushed */
38 36 52 52 38 34 6 8 28 
CALL[ ]	/* CallFunction */";
};
width = 676;
}
);
note = a;
unicode = 97;
},
{
glyphname = b;
lastChange = "2022-10-20 15:44:45 +0000";
layers = (
{
layerId = m01;
shapes = (
{
closed = 1;
nodes = (
(170,30,o),
(254,0,o),
(306,0,qs),
(389,0,o),
(534,72,o),
(632,204,o),
(647,290,qs),
(662,374,o),
(611,508,o),
(492,583,o),
(409,583,qs),
(357,583,o),
(262,552,o),
(224,526,q),
(263,750,ls),
(265,760,o),
(255,760,qs),
(179,760,ls),
(150,760,o),
(109,729,o),
(105,707,qs),
(-17,18,ls),
(-18,9,o),
(-8,9,qs),
(68,9,ls),
(97,9,o),
(138,39,o),
(142,62,qs),
(141,55,l)
);
},
{
closed = 1;
nodes = (
(486,208,o),
(387,121,o),
(321,121,qs),
(257,121,o),
(188,210,o),
(202,291,qs),
(217,372,o),
(317,461,o),
(381,461,qs),
(446,461,o),
(514,371,o),
(500,290,qs)
);
}
);
userData = {
assembly = "NPUSHB[ ]	/* 10 values pushed */
14 1 4 2 28 1 0 5 2 76 
MPPEM[ ]	/* MeasurePixelPerEm */
PUSHB[ ]	/* 1 value pushed */
27 
LT[ ]	/* LessThan */
IF[ ]	/* If */
NPUSHB[ ]	/* 27 values pushed */
0 1 1 30 77 0 4 4 2 97 0 2 2 37 77 0 5 5 0 97 3 1 0 0 29 0 78 
ELSE[ ]	/* Else */
MPPEM[ ]	/* MeasurePixelPerEm */
PUSHB[ ]	/* 1 value pushed */
31 
LT[ ]	/* LessThan */
IF[ ]	/* If */
NPUSHB[ ]	/* 31 values pushed */
0 1 1 30 77 0 4 4 2 97 0 2 2 37 77 0 0 0 29 77 0 5 5 3 97 0 3 3 29 3 78 
ELSE[ ]	/* Else */
NPUSHB[ ]	/* 31 values pushed */
0 4 4 2 97 0 2 2 37 77 0 1 1 0 95 0 0 0 29 77 0 5 5 3 97 0 3 3 29 3 78 
EIF[ ]	/* EndIf */
EIF[ ]	/* EndIf */
NPUSHB[ ]	/* 9 values pushed */
36 36 38 36 52 50 6 8 28 
CALL[ ]	/* CallFunction */";
};
width = 676;
}
);
note = b;
unicode = 98;
},
{
glyphname = c;
lastChange = "2022-10-20 15:44:45 +0000";
layers = (
{
layerId = m01;
shapes = (
{
closed = 1;
nodes = (
(-2,203,o),
(51,71,o),
(173,0,o),
(259,0,qs),
(336,0,o),
(467,53,o),
(558,146,o),
(579,204,qs),
(581,209,o),
(577,214,o),
(572,214,qs),
(482,214,ls),
(457,214,o),
(418,193,o),
(406,176,qs),
(383,142,o),
(323,111,o),
(279,111,qs),
(212,111,o),
(150,200,o),
(166,289,qs),
(182,378,o),
(274,466,o),
(341,466,qs),
(385,466,o),
(435,435,o),
(447,401,qs),
(452,384,o),
(483,363,o),
(508,363,qs),
(597,363,ls),
(602,363,o),
(608,368,o),
(608,373,qs),
(608,466,o),
(477,577,o),
(361,577,qs),
(275,577,o),
(127,506,o),
(28,375,o),
(13,289,qs)
);
}
);
userData = {
assembly = "NPUSHB[ ]	/* 45 values pushed */
0 1 2 4 2 1 4 128 0 4 3 2 4 3 126 0 2 2 0 97 0 0 0 37 77 0 3 3 5 97 0 5 5 29 5 78 38 36 36 36 52 34 6 8 28 
CALL[ ]	/* CallFunction */";
};
width = 607;
}
);
note = c;
unicode = 99;
},
{
glyphname = d;
lastChange = "2022-10-20 15:44:45 +0000";
layers = (
{
layerId = m01;
shapes = (
{
closed = 1;
nodes = (
(418,39,o),
(449,9,o),
(478,9,qs),
(554,9,ls),
(564,9,o),
(565,18,qs),
(687,707,ls),
(691,729,o),
(660,760,o),
(631,760,qs),
(555,760,ls),
(545,760,o),
(543,750,qs),
(504,526,l),
(474,552,o),
(391,583,o),
(339,583,qs),
(256,583,o),
(111,508,o),
(12,374,o),
(-3,290,qs),
(-18,204,o),
(34,72,o),
(153,0,o),
(236,0,qs),
(288,0,o),
(382,30,o),
(421,55,q),
(422,62,ls)
);
},
{
closed = 1;
nodes = (
(158,371,o),
(258,461,o),
(323,461,qs),
(387,461,o),
(457,372,o),
(442,291,qs),
(428,210,o),
(327,121,o),
(263,121,qs),
(197,121,o),
(130,208,o),
(144,290,qs)
);
}
);
userData = {
assembly = "MPPEM[ ]	/* MeasurePixelPerEm */
PUSHB[ ]	/* 1 value pushed */
27 
LT[ ]	/* LessThan */
IF[ ]	/* If */
NPUSHB[ ]	/* 10 values pushed */
14 1 5 1 28 1 0 4 2 76 
ELSE[ ]	/* Else */
NPUSHB[ ]	/* 10 values pushed */
14 1 5 1 28 1 3 4 2 76 
EIF[ ]	/* EndIf */
MPPEM[ ]	/* MeasurePixelPerEm */
PUSHB[ ]	/* 1 value pushed */
27 
LT[ ]	/* LessThan */
IF[ ]	/* If */
NPUSHB[ ]	/* 27 values pushed */
0 2 2 30 77 0 5 5 1 97 0 1 1 37 77 0 4 4 0 97 3 1 0 0 29 0 78 
ELSE[ ]	/* Else */
MPPEM[ ]	/* MeasurePixelPerEm */
PUSHB[ ]	/* 1 value pushed */
31 
LT[ ]	/* LessThan */
IF[ ]	/* If */
NPUSHB[ ]	/* 31 values pushed */
0 2 2 30 77 0 5 5 1 97 0 1 1 37 77 0 3 3 29 77 0 4 4 0 97 0 0 0 29 0 78 
ELSE[ ]	/* Else */
NPUSHB[ ]	/* 31 values pushed */
0 5 5 1 97 0 1 1 37 77 0 2 2 3 95 0 3 3 29 77 0 4 4 0 97 0 0 0 29 0 78 
EIF[ ]	/* EndIf */
EIF[ ]	/* EndIf */
NPUSHB[ ]	/* 9 values pushed */
36 36 52 52 38 34 6 8 28 
CALL[ ]	/* CallFunction */";
};
width = 676;
}
);
note = d;
unicode = 100;
},
{
glyphname = e;
lastChange = "2022-10-20 15:44:45 +0000";
layers = (
{
layerId = m01;
shapes = (
{
closed = 1;
nodes = (
(397,466,o),
(464,411,o),
(463,357,qs),
(463,351,o),
(456,346,o),
(451,346,qs),
(191,346,ls),
(180,346,o),
(184,356,qs),
(207,410,o),
(289,466,o),
(341,466,qs)
);
},
{
closed = 1;
nodes = (
(458,208,o),
(421,188,o),
(410,173,qs),
(385,141,o),
(326,111,o),
(283,111,qs),
(227,111,o),
(161,169,o),
(159,227,qs),
(159,237,o),
(170,237,qs),
(555,237,ls),
(568,237,o),
(596,250,o),
(601,263,qs),
(608,297,o),
(610,308,qs),
(624,384,o),
(574,507,o),
(452,577,o),
(365,577,qs),
(277,577,o),
(127,506,o),
(28,375,o),
(13,289,qs),
(-2,204,o),
(52,72,o),
(176,0,o),
(263,0,qs),
(342,0,o),
(475,57,o),
(567,151,o),
(587,208,q),
(483,208,ls)
);
}
);
userData = {
assembly = "NPUSHB[ ]	/* 69 values pushed */
30 1 4 0 1 76 8 1 6 4 5 4 6 5 128 0 0 0 4 6 0 4 103 7 1 1 1 3 97 0 3 3 37 77 0 5 5 2 97 0 2 2 29 2 78 12 12 0 0 12 45 12 44 40 38 35 32 25 23 17 15 0 11 0 10 35 9 8 23 
CALL[ ]	/* CallFunction */";
};
width = 620;
}
);
note = e;
unicode = 101;
},
{
glyphname = f;
lastChange = "2022-10-20 15:44:45 +0000";
layers = (
{
layerId = m01;
shapes = (
{
closed = 1;
nodes = (
(-3,0,o),
(7,0,qs),
(138,0,ls),
(148,0,o),
(150,10,qs),
(228,452,ls),
(229,461,o),
(239,461,qs),
(334,461,ls),
(344,461,o),
(346,471,qs),
(362,564,ls),
(364,573,o),
(354,573,qs),
(241,573,l),
(248,569,o),
(247,564,qs),
(252,592,ls),
(260,633,o),
(285,664,o),
(314,669,qs),
(343,673,o),
(381,701,o),
(385,724,qs),
(393,773,ls),
(395,783,o),
(385,783,qs),
(259,788,o),
(119,694,o),
(101,592,qs),
(96,564,ls),
(97,569,o),
(106,573,q),
(37,573,ls),
(27,573,o),
(25,564,qs),
(9,471,ls),
(7,461,o),
(17,461,qs),
(43,461,ls),
(60,461,o),
(75,444,o),
(72,427,qs),
(-1,10,ls)
);
}
);
userData = {
assembly = "PUSHB[ ]	/* 6 values pushed */
26 1 0 1 1 76 
MPPEM[ ]	/* MeasurePixelPerEm */
PUSHB[ ]	/* 1 value pushed */
9 
LT[ ]	/* LessThan */
IF[ ]	/* If */
NPUSHB[ ]	/* 23 values pushed */
0 2 2 36 77 4 1 0 0 1 97 3 1 1 1 37 77 0 5 5 29 5 78 
ELSE[ ]	/* Else */
MPPEM[ ]	/* MeasurePixelPerEm */
PUSHB[ ]	/* 1 value pushed */
11 
LT[ ]	/* LessThan */
IF[ ]	/* If */
NPUSHB[ ]	/* 23 values pushed */
0 2 2 36 77 4 1 0 0 1 97 3 1 1 1 31 77 0 5 5 29 5 78 
ELSE[ ]	/* Else */
MPPEM[ ]	/* MeasurePixelPerEm */
PUSHB[ ]	/* 1 value pushed */
13 
LT[ ]	/* LessThan */
IF[ ]	/* If */
NPUSHB[ ]	/* 23 values pushed */
0 2 2 36 77 4 1 0 0 1 97 3 1 1 1 37 77 0 5 5 29 5 78 
ELSE[ ]	/* Else */
MPPEM[ ]	/* MeasurePixelPerEm */
PUSHB[ ]	/* 1 value pushed */
15 
LT[ ]	/* LessThan */
IF[ ]	/* If */
NPUSHB[ ]	/* 23 values pushed */
0 2 2 36 77 4 1 0 0 1 97 3 1 1 1 31 77 0 5 5 29 5 78 
ELSE[ ]	/* Else */
MPPEM[ ]	/* MeasurePixelPerEm */
PUSHB[ ]	/* 1 value pushed */
31 
LT[ ]	/* LessThan */
IF[ ]	/* If */
NPUSHB[ ]	/* 23 values pushed */
0 2 2 36 77 4 1 0 0 1 97 3 1 1 1 37 77 0 5 5 29 5 78 
ELSE[ ]	/* Else */
NPUSHB[ ]	/* 23 values pushed */
0 2 1 2 133 4 1 0 0 1 97 3 1 1 1 37 77 0 5 5 29 5 78 
EIF[ ]	/* EndIf */
EIF[ ]	/* EndIf */
EIF[ ]	/* EndIf */
EIF[ ]	/* EndIf */
EIF[ ]	/* EndIf */
NPUSHB[ ]	/* 9 values pushed */
51 51 43 37 35 50 6 8 28 
CALL[ ]	/* CallFunction */";
};
width = 329;
}
);
note = f;
unicode = 102;
},
{
glyphname = g;
lastChange = "2022-10-20 15:44:45 +0000";
layers = (
{
layerId = m01;
shapes = (
{
closed = 1;
nodes = (
(226,88,o),
(152,187,o),
(167,276,qs),
(183,365,o),
(292,461,o),
(364,461,qs),
(410,461,o),
(476,418,o),
(506,334,o),
(495,275,qs),
(479,186,o),
(369,88,o),
(298,88,qs)
);
},
{
closed = 1;
nodes = (
(571,568,o),
(549,550,o),
(546,533,qs),
(543,520,l),
(514,546,o),
(430,577,o),
(378,577,qs),
(295,577,o),
(150,502,o),
(51,365,o),
(35,276,qs),
(20,188,o),
(70,49,o),
(189,-29,o),
(272,-29,qs),
(324,-29,o),
(418,3,o),
(457,30,q),
(452,0,ls),
(438,-80,o),
(349,-159,o),
(284,-159,qs),
(174,-159,o),
(155,-69,qs),
(154,-60,o),
(130,-48,o),
(119,-48,qs),
(6,-48,l),
(-2,-116,o),
(58,-220,o),
(180,-278,o),
(263,-278,qs),
(352,-278,o),
(495,-206,o),
(589,-80,o),
(603,0,qs),
(701,558,ls),
(703,568,o),
(693,568,qs),
(587,568,ls)
);
}
);
userData = {
assembly = "NPUSHB[ ]	/* 10 values pushed */
48 1 0 2 34 1 6 1 2 76 
MPPEM[ ]	/* MeasurePixelPerEm */
PUSHB[ ]	/* 1 value pushed */
27 
LT[ ]	/* LessThan */
IF[ ]	/* If */
NPUSHB[ ]	/* 40 values pushed */
0 4 6 5 6 4 5 128 8 1 1 0 6 4 1 6 105 0 0 0 2 97 7 9 2 2 2 31 77 0 5 5 3 97 0 3 3 33 3 78 
ELSE[ ]	/* Else */
NPUSHB[ ]	/* 44 values pushed */
0 4 6 5 6 4 5 128 8 1 1 0 6 4 1 6 105 9 1 2 2 31 77 0 0 0 7 97 0 7 7 37 77 0 5 5 3 97 0 3 3 33 3 78 
EIF[ ]	/* EndIf */
NPUSHB[ ]	/* 26 values pushed */
14 13 0 0 46 44 38 36 31 29 26 24 21 19 13 52 14 51 0 12 0 11 37 10 8 23 
CALL[ ]	/* CallFunction */";
};
width = 676;
}
);
note = g;
unicode = 103;
},
{
glyphname = h;
lastChange = "2022-10-20 15:44:45 +0000";
layers = (
{
layerId = m01;
shapes = (
{
closed = 1;
nodes = (
(381,0,o),
(391,0,qs),
(521,0,ls),
(531,0,o),
(533,10,qs),
(590,334,ls),
(604,413,o),
(559,525,o),
(454,583,o),
(380,583,qs),
(340,583,o),
(260,561,o),
(227,542,q),
(257,716,ls),
(261,737,o),
(233,760,o),
(210,760,qs),
(124,760,ls),
(114,760,o),
(112,750,qs),
(-18,10,ls),
(-20,0,o),
(-10,0,qs),
(121,0,ls),
(131,0,o),
(133,10,qs),
(187,315,ls),
(213,467,o),
(340,467,qs),
(400,467,o),
(451,397,o),
(438,322,qs),
(383,10,ls)
);
}
);
userData = {
assembly = "PUSHB[ ]	/* 6 values pushed */
19 1 0 3 1 76 
MPPEM[ ]	/* MeasurePixelPerEm */
PUSHB[ ]	/* 1 value pushed */
31 
LT[ ]	/* LessThan */
IF[ ]	/* If */
NPUSHB[ ]	/* 22 values pushed */
0 2 2 30 77 0 0 0 3 97 0 3 3 37 77 4 1 1 1 29 1 78 
ELSE[ ]	/* Else */
NPUSHB[ ]	/* 22 values pushed */
0 0 0 3 97 0 3 3 37 77 0 2 2 1 95 4 1 1 1 29 1 78 
EIF[ ]	/* EndIf */
PUSHB[ ]	/* 8 values pushed */
53 37 51 51 34 5 8 27 
CALL[ ]	/* CallFunction */";
};
width = 640;
}
);
note = h;
unicode = 104;
},
{
glyphname = i;
lastChange = "2022-10-20 15:44:45 +0000";
layers = (
{
layerId = m01;
shapes = (
{
closed = 1;
nodes = (
(-14,44,ls),
(-18,23,o),
(10,0,o),
(33,0,qs),
(129,0,l),
(222,530,ls),
(226,550,o),
(198,573,o),
(175,573,qs),
(79,573,l)
);
},
{
closed = 1;
nodes = (
(203,637,o),
(259,681,o),
(264,711,qs),
(269,741,o),
(229,785,o),
(193,785,qs),
(156,785,o),
(99,741,o),
(94,711,qs),
(89,681,o),
(130,637,o),
(167,637,qs)
);
}
);
userData = {
assembly = "MPPEM[ ]	/* MeasurePixelPerEm */
PUSHB[ ]	/* 1 value pushed */
31 
LT[ ]	/* LessThan */
IF[ ]	/* If */
NPUSHB[ ]	/* 23 values pushed */
5 1 3 3 2 97 0 2 2 36 77 4 1 0 0 31 77 0 1 1 29 1 78 
ELSE[ ]	/* Else */
NPUSHB[ ]	/* 21 values pushed */
0 2 5 1 3 0 2 3 105 4 1 0 0 31 77 0 1 1 29 1 78 
EIF[ ]	/* EndIf */
NPUSHB[ ]	/* 19 values pushed */
10 10 1 0 10 21 10 20 16 14 6 4 0 9 1 9 6 8 22 
CALL[ ]	/* CallFunction */";
};
width = 246;
}
);
note = i;
unicode = 105;
},
{
glyphname = j;
lastChange = "2022-10-20 15:44:45 +0000";
layers = (
{
layerId = m01;
shapes = (
{
closed = 1;
nodes = (
(107,568,o),
(105,558,qs),
(-14,-117,ls),
(-19,-142,o),
(-29,-161,o),
(-52,-165,o),
(-81,-162,qs),
(-98,-161,o),
(-132,-179,o),
(-135,-196,qs),
(-150,-280,l),
(-67,-280,ls),
(18,-280,o),
(122,-199,o),
(136,-119,qs),
(248,513,ls),
(252,536,o),
(222,568,o),
(193,568,qs),
(117,568,ls)
);
},
{
closed = 1;
nodes = (
(229,622,o),
(285,667,o),
(291,698,qs),
(296,729,o),
(256,774,o),
(220,774,qs),
(183,774,o),
(126,729,o),
(121,698,qs),
(115,667,o),
(156,622,o),
(193,622,qs)
);
}
);
userData = {
assembly = "MPPEM[ ]	/* MeasurePixelPerEm */
PUSHB[ ]	/* 1 value pushed */
31 
LT[ ]	/* LessThan */
IF[ ]	/* If */
NPUSHB[ ]	/* 28 values pushed */
6 1 4 4 3 97 0 3 3 36 77 5 1 0 0 31 77 0 2 2 1 96 0 1 1 33 1 78 
ELSE[ ]	/* Else */
NPUSHB[ ]	/* 26 values pushed */
0 3 6 1 4 0 3 4 105 5 1 0 0 31 77 0 2 2 1 96 0 1 1 33 1 78 
EIF[ ]	/* EndIf */
NPUSHB[ ]	/* 21 values pushed */
20 20 1 0 20 31 20 30 26 24 12 11 8 6 0 19 1 18 7 8 22 
CALL[ ]	/* CallFunction */";
};
width = 248;
}
);
note = j;
unicode = 106;
},
{
glyphname = k;
lastChange = "2022-10-20 15:44:45 +0000";
layers = (
{
layerId = m01;
shapes = (
{
closed = 1;
nodes = (
(-61,12,o),
(-31,-20,o),
(-2,-20,qs),
(74,-20,ls),
(84,-20,o),
(86,-10,qs),
(127,223,l),
(127,223,o),
(123,222,q),
(105,212,o),
(90,208,q),
(241,-4,l),
(244,-11,o),
(265,-20,o),
(276,-20,qs),
(376,-20,ls),
(399,-20,o),
(425,4,o),
(411,26,q),
(222,275,l),
(216,270,l),
(536,556,ls),
(541,561,o),
(539,568,o),
(533,568,qs),
(395,568,ls),
(353,568,o),
(325,542,qs),
(193,414,ls),
(154,376,o),
(154,378,qs),
(212,705,ls),
(216,728,o),
(186,760,o),
(157,760,qs),
(81,760,ls),
(71,760,o),
(69,750,qs),
(-57,35,ls)
);
}
);
userData = {
assembly = "NPUSHB[ ]	/* 9 values pushed */
29 27 18 7 4 2 1 1 76 
MPPEM[ ]	/* MeasurePixelPerEm */
PUSHB[ ]	/* 1 value pushed */
25 
LT[ ]	/* LessThan */
IF[ ]	/* If */
NPUSHB[ ]	/* 17 values pushed */
0 0 0 30 77 0 1 1 31 77 3 1 2 2 29 2 78 
ELSE[ ]	/* Else */
MPPEM[ ]	/* MeasurePixelPerEm */
PUSHB[ ]	/* 1 value pushed */
31 
LT[ ]	/* LessThan */
IF[ ]	/* If */
NPUSHB[ ]	/* 23 values pushed */
3 1 2 2 0 95 0 0 0 30 77 3 1 2 2 1 95 0 1 1 31 2 78 
ELSE[ ]	/* Else */
NPUSHB[ ]	/* 18 values pushed */
0 0 1 2 0 87 3 1 2 2 1 95 0 1 1 31 2 78 
EIF[ ]	/* EndIf */
EIF[ ]	/* EndIf */
PUSHB[ ]	/* 7 values pushed */
57 56 39 49 4 8 26 
CALL[ ]	/* CallFunction */";
};
width = 515;
}
);
note = k;
unicode = 107;
},
{
glyphname = l;
lastChange = "2022-10-20 15:44:45 +0000";
layers = (
{
layerId = m01;
shapes = (
{
closed = 1;
nodes = (
(-16,12,o),
(14,-20,o),
(43,-20,qs),
(119,-20,ls),
(129,-20,o),
(131,-10,qs),
(265,750,ls),
(267,760,o),
(257,760,qs),
(126,760,ls),
(116,760,o),
(114,750,qs),
(-12,35,ls)
);
}
);
userData = {
assembly = "MPPEM[ ]	/* MeasurePixelPerEm */
PUSHB[ ]	/* 1 value pushed */
25 
LT[ ]	/* LessThan */
IF[ ]	/* If */
NPUSHB[ ]	/* 11 values pushed */
0 0 0 30 77 0 1 1 29 1 78 
ELSE[ ]	/* Else */
MPPEM[ ]	/* MeasurePixelPerEm */
PUSHB[ ]	/* 1 value pushed */
31 
LT[ ]	/* LessThan */
IF[ ]	/* If */
NPUSHB[ ]	/* 11 values pushed */
0 1 1 0 95 0 0 0 30 1 78 
ELSE[ ]	/* Else */
NPUSHB[ ]	/* 16 values pushed */
0 0 1 1 0 87 0 0 0 1 95 0 1 0 1 79 
EIF[ ]	/* EndIf */
EIF[ ]	/* EndIf */
PUSHB[ ]	/* 5 values pushed */
51 49 2 8 24 
CALL[ ]	/* CallFunction */";
};
width = 246;
}
);
note = l;
unicode = 108;
},
{
glyphname = m;
lastChange = "2022-10-20 15:44:45 +0000";
layers = (
{
layerId = m01;
shapes = (
{
closed = 1;
nodes = (
(661,580,o),
(564,532,q),
(544,551,o),
(450,580,o),
(395,580,qs),
(350,580,o),
(257,548,o),
(241,534,q),
(242,537,o),
(227,555,o),
(200,570,o),
(182,570,qs),
(111,570,ls),
(105,570,o),
(95,562,o),
(94,556,qs),
(-2,10,ls),
(-4,0,o),
(6,0,qs),
(137,0,ls),
(147,0,o),
(149,10,qs),
(202,313,ls),
(229,465,o),
(356,465,qs),
(416,465,o),
(467,395,o),
(453,320,qs),
(403,35,ls),
(400,20,o),
(418,0,o),
(433,0,qs),
(537,0,ls),
(547,0,o),
(549,10,qs),
(601,307,ls),
(615,389,o),
(688,465,o),
(747,465,qs),
(807,465,o),
(858,395,o),
(844,320,qs),
(794,35,ls),
(791,20,o),
(809,0,o),
(824,0,qs),
(928,0,ls),
(938,0,o),
(940,10,qs),
(997,333,ls),
(1010,411,o),
(965,523,o),
(860,580,o),
(786,580,qs)
);
}
);
userData = {
assembly = "PUSHB[ ]	/* 7 values pushed */
51 37 2 1 5 1 76 
MPPEM[ ]	/* MeasurePixelPerEm */
PUSHB[ ]	/* 1 value pushed */
24 
LT[ ]	/* LessThan */
IF[ ]	/* If */
NPUSHB[ ]	/* 22 values pushed */
3 1 1 1 5 97 8 7 6 3 5 5 31 77 4 2 2 0 0 29 0 78 
ELSE[ ]	/* Else */
NPUSHB[ ]	/* 26 values pushed */
0 5 5 31 77 3 1 1 1 6 97 8 7 2 6 6 37 77 4 2 2 0 0 29 0 78 
EIF[ ]	/* EndIf */
NPUSHB[ ]	/* 16 values pushed */
0 0 0 53 0 52 37 52 51 37 52 37 53 9 8 29 
CALL[ ]	/* CallFunction */";
};
width = 1030;
}
);
note = m;
unicode = 109;
},
{
glyphname = n;
lastChange = "2022-10-20 15:44:45 +0000";
layers = (
{
layerId = m01;
shapes = (
{
closed = 1;
nodes = (
(406,21,o),
(423,0,o),
(438,0,qs),
(532,0,ls),
(542,0,o),
(544,10,qs),
(601,331,ls),
(614,409,o),
(570,519,o),
(467,575,o),
(395,575,qs),
(345,575,o),
(255,543,o),
(233,516,q),
(237,538,o),
(210,565,o),
(182,565,qs),
(116,565,ls),
(110,565,o),
(99,556,o),
(98,551,qs),
(3,10,ls),
(1,0,o),
(11,0,qs),
(132,0,ls),
(142,0,o),
(144,10,qs),
(197,311,ls),
(211,392,o),
(294,468,o),
(357,468,qs),
(485,468,o),
(458,318,qs),
(408,35,ls)
);
}
);
userData = {
assembly = "PUSHB[ ]	/* 7 values pushed */
19 12 2 0 2 1 76 
MPPEM[ ]	/* MeasurePixelPerEm */
PUSHB[ ]	/* 1 value pushed */
24 
LT[ ]	/* LessThan */
IF[ ]	/* If */
NPUSHB[ ]	/* 18 values pushed */
0 0 0 2 97 3 1 2 2 31 77 4 1 1 1 29 1 78 
ELSE[ ]	/* Else */
NPUSHB[ ]	/* 22 values pushed */
0 2 2 31 77 0 0 0 3 97 0 3 3 37 77 4 1 1 1 29 1 78 
EIF[ ]	/* EndIf */
PUSHB[ ]	/* 8 values pushed */
53 36 52 52 33 5 8 27 
CALL[ ]	/* CallFunction */";
};
width = 640;
}
);
note = n;
unicode = 110;
},
{
glyphname = o;
lastChange = "2022-10-20 15:44:45 +0000";
layers = (
{
layerId = m01;
shapes = (
{
closed = 1;
nodes = (
(642,375,o),
(585,506,o),
(458,577,o),
(371,577,qs),
(285,577,o),
(132,506,o),
(28,375,o),
(13,289,qs),
(-2,204,o),
(54,72,o),
(179,0,o),
(265,0,qs),
(352,0,o),
(507,72,o),
(612,204,o),
(627,289,qs)
);
},
{
closed = 1;
nodes = (
(182,378,o),
(282,464,o),
(350,464,qs),
(417,464,o),
(490,377,o),
(474,289,qs),
(459,202,o),
(353,114,o),
(285,114,qs),
(218,114,o),
(150,200,o),
(166,289,qs)
);
}
);
userData = {
assembly = "NPUSHB[ ]	/* 28 values pushed */
0 3 3 1 97 0 1 1 37 77 0 2 2 0 97 0 0 0 29 0 78 36 37 38 34 4 8 26 
CALL[ ]	/* CallFunction */";
};
width = 640;
}
);
note = o;
unicode = 111;
},
{
glyphname = p;
lastChange = "2022-10-20 15:44:45 +0000";
layers = (
{
layerId = m01;
shapes = (
{
closed = 1;
nodes = (
(266,536,o),
(236,568,o),
(207,568,qs),
(131,568,ls),
(121,568,o),
(119,558,qs),
(-19,-225,ls),
(-23,-248,o),
(7,-280,o),
(36,-280,qs),
(112,-280,ls),
(122,-280,o),
(124,-270,qs),
(177,30,l),
(206,3,o),
(290,-29,o),
(342,-29,qs),
(425,-29,o),
(570,49,o),
(670,188,o),
(685,276,qs),
(701,365,o),
(650,502,o),
(532,577,o),
(449,577,qs),
(397,577,o),
(302,546,o),
(264,520,q),
(262,513,ls)
);
},
{
closed = 1;
nodes = (
(523,191,o),
(423,98,o),
(358,98,qs),
(294,98,o),
(225,190,o),
(240,275,qs),
(255,359,o),
(356,451,o),
(420,451,qs),
(486,451,o),
(553,361,o),
(538,276,qs)
);
}
);
userData = {
assembly = "MPPEM[ ]	/* MeasurePixelPerEm */
PUSHB[ ]	/* 1 value pushed */
27 
LT[ ]	/* LessThan */
IF[ ]	/* If */
NPUSHB[ ]	/* 10 values pushed */
28 1 4 0 14 1 1 5 2 76 
ELSE[ ]	/* Else */
NPUSHB[ ]	/* 10 values pushed */
28 1 4 3 14 1 1 5 2 76 
EIF[ ]	/* EndIf */
MPPEM[ ]	/* MeasurePixelPerEm */
PUSHB[ ]	/* 1 value pushed */
27 
LT[ ]	/* LessThan */
IF[ ]	/* If */
NPUSHB[ ]	/* 25 values pushed */
0 5 0 1 2 5 1 105 0 4 4 0 97 3 1 0 0 37 77 0 2 2 33 2 78 
ELSE[ ]	/* Else */
NPUSHB[ ]	/* 29 values pushed */
0 5 0 1 2 5 1 105 0 3 3 31 77 0 4 4 0 97 0 0 0 37 77 0 2 2 33 2 78 
EIF[ ]	/* EndIf */
NPUSHB[ ]	/* 9 values pushed */
36 36 52 52 38 34 6 8 28 
CALL[ ]	/* CallFunction */";
};
width = 676;
}
);
note = p;
unicode = 112;
},
{
glyphname = q;
lastChange = "2022-10-20 15:44:45 +0000";
layers = (
{
layerId = m01;
shapes = (
{
closed = 1;
nodes = (
(514,546,o),
(431,577,o),
(379,577,qs),
(296,577,o),
(150,502,o),
(51,365,o),
(35,276,qs),
(20,188,o),
(70,49,o),
(189,-29,o),
(272,-29,qs),
(324,-29,o),
(418,3,o),
(457,30,q),
(404,-270,ls),
(402,-280,o),
(412,-280,qs),
(488,-280,ls),
(517,-280,o),
(559,-248,o),
(563,-225,qs),
(701,558,ls),
(703,568,o),
(693,568,qs),
(617,568,ls),
(588,568,o),
(546,536,o),
(542,513,qs),
(544,520,l)
);
},
{
closed = 1;
nodes = (
(197,361,o),
(296,451,o),
(362,451,qs),
(426,451,o),
(495,359,o),
(480,275,qs),
(465,190,o),
(364,98,o),
(300,98,qs),
(235,98,o),
(167,191,o),
(182,276,qs)
);
}
);
userData = {
assembly = "NPUSHB[ ]	/* 10 values pushed */
28 1 5 0 14 1 2 4 2 76 
MPPEM[ ]	/* MeasurePixelPerEm */
PUSHB[ ]	/* 1 value pushed */
27 
LT[ ]	/* LessThan */
IF[ ]	/* If */
NPUSHB[ ]	/* 25 values pushed */
0 4 0 2 1 4 2 105 0 5 5 0 97 3 1 0 0 31 77 0 1 1 33 1 78 
ELSE[ ]	/* Else */
NPUSHB[ ]	/* 29 values pushed */
0 4 0 2 1 4 2 105 0 0 0 31 77 0 5 5 3 97 0 3 3 37 77 0 1 1 33 1 78 
EIF[ ]	/* EndIf */
NPUSHB[ ]	/* 9 values pushed */
36 36 38 36 52 50 6 8 28 
CALL[ ]	/* CallFunction */";
};
width = 676;
}
);
note = q;
unicode = 113;
},
{
glyphname = r;
lastChange = "2022-10-20 15:44:45 +0000";
layers = (
{
layerId = m01;
shapes = (
{
closed = 1;
nodes = (
(381,480,o),
(344,456,o),
(318,452,qs),
(264,447,o),
(194,381,o),
(182,312,qs),
(129,10,ls),
(127,0,o),
(117,0,qs),
(-14,0,ls),
(-24,0,o),
(-22,10,qs),
(75,559,ls),
(76,568,o),
(86,568,qs),
(172,568,ls),
(195,568,o),
(223,545,o),
(220,525,qs),
(221,535,l),
(288,573,o),
(373,578,qs),
(392,578,o),
(411,561,o),
(406,544,q),
(389,500,ls)
);
}
);
userData = {
assembly = "MPPEM[ ]	/* MeasurePixelPerEm */
PUSHB[ ]	/* 1 value pushed */
34 
LT[ ]	/* LessThan */
IF[ ]	/* If */
PUSHB[ ]	/* 6 values pushed */
5 1 2 0 1 76 
ELSE[ ]	/* Else */
PUSHB[ ]	/* 6 values pushed */
5 1 2 1 1 76 
EIF[ ]	/* EndIf */
MPPEM[ ]	/* MeasurePixelPerEm */
PUSHB[ ]	/* 1 value pushed */
34 
LT[ ]	/* LessThan */
IF[ ]	/* If */
NPUSHB[ ]	/* 12 values pushed */
1 1 0 0 37 77 0 2 2 29 2 78 
ELSE[ ]	/* Else */
NPUSHB[ ]	/* 16 values pushed */
0 0 0 37 77 0 1 1 31 77 0 2 2 29 2 78 
EIF[ ]	/* EndIf */
PUSHB[ ]	/* 6 values pushed */
51 52 34 3 8 25 
CALL[ ]	/* CallFunction */";
};
width = 373;
}
);
note = r;
unicode = 114;
},
{
glyphname = s;
lastChange = "2022-10-20 15:44:45 +0000";
layers = (
{
layerId = m01;
shapes = (
{
closed = 1;
nodes = (
(490,229,o),
(441,298,o),
(364,330,o),
(303,346,qs),
(246,360,o),
(196,387,o),
(201,412,qs),
(206,440,o),
(247,466,o),
(287,466,qs),
(322,466,o),
(356,442,o),
(362,416,qs),
(366,399,o),
(394,375,o),
(421,375,qs),
(471,375,ls),
(487,375,o),
(515,391,o),
(516,406,qs),
(521,485,o),
(409,577,o),
(310,577,qs),
(242,577,o),
(129,532,o),
(58,457,o),
(50,412,qs),
(40,359,o),
(89,292,o),
(165,258,o),
(226,239,qs),
(284,222,o),
(335,194,o),
(331,169,qs),
(321,111,o),
(239,111,qs),
(201,111,o),
(161,134,o),
(154,160,q),
(140,200,o),
(94,200,qs),
(41,200,ls),
(25,200,o),
(-2,184,o),
(-3,169,qs),
(-6,121,o),
(50,44,o),
(152,0,o),
(220,0,qs),
(288,0,o),
(401,45,o),
(472,122,o),
(480,169,qs)
);
}
);
userData = {
assembly = "NPUSHB[ ]	/* 45 values pushed */
0 4 5 1 5 4 1 128 0 1 2 5 1 2 126 0 5 5 3 97 0 3 3 37 77 0 2 2 0 97 0 0 0 29 0 78 36 52 43 35 53 34 6 8 28 
CALL[ ]	/* CallFunction */";
};
width = 522;
}
);
note = s;
unicode = 115;
},
{
glyphname = t;
lastChange = "2022-10-20 15:44:45 +0000";
layers = (
{
layerId = m01;
shapes = (
{
closed = 1;
nodes = (
(21,0,o),
(203,0,qs),
(315,0,l),
(325,60,ls),
(329,83,o),
(299,114,o),
(270,114,qs),
(238,114,ls),
(216,114,o),
(199,121,o),
(197,141,o),
(201,165,qs),
(255,470,ls),
(254,465,o),
(245,460,q),
(386,460,ls),
(396,460,o),
(398,470,qs),
(414,562,ls),
(416,572,o),
(406,572,qs),
(265,572,l),
(272,567,o),
(271,562,qs),
(294,696,ls),
(296,706,o),
(286,706,qs),
(155,706,ls),
(145,706,o),
(143,696,qs),
(128,607,ls),
(125,592,o),
(101,572,o),
(86,572,qs),
(61,572,ls),
(51,572,o),
(49,562,qs),
(33,470,ls),
(31,460,o),
(41,460,qs),
(110,460,l),
(103,465,o),
(104,470,qs),
(50,165,ls)
);
}
);
userData = {
assembly = "PUSHB[ ]	/* 7 values pushed */
19 0 2 0 1 1 76 
MPPEM[ ]	/* MeasurePixelPerEm */
PUSHB[ ]	/* 1 value pushed */
44 
LT[ ]	/* LessThan */
IF[ ]	/* If */
NPUSHB[ ]	/* 28 values pushed */
0 2 2 28 77 4 1 0 0 1 97 3 1 1 1 31 77 0 5 5 6 95 0 6 6 29 6 78 
ELSE[ ]	/* Else */
NPUSHB[ ]	/* 28 values pushed */
0 2 1 2 133 4 1 0 0 1 97 3 1 1 1 31 77 0 5 5 6 95 0 6 6 29 6 78 
EIF[ ]	/* EndIf */
NPUSHB[ ]	/* 10 values pushed */
35 54 35 36 52 51 34 7 8 29 
CALL[ ]	/* CallFunction */";
};
width = 389;
}
);
note = t;
unicode = 116;
},
{
glyphname = u;
lastChange = "2022-10-20 15:44:45 +0000";
layers = (
{
layerId = m01;
shapes = (
{
closed = 1;
nodes = (
(239,554,o),
(214,574,o),
(193,574,qs),
(113,574,ls),
(103,574,o),
(101,564,qs),
(44,244,ls),
(31,166,o),
(75,56,o),
(178,0,o),
(250,0,qs),
(300,0,o),
(390,32,o),
(412,59,q),
(408,37,o),
(435,10,o),
(463,10,qs),
(544,10,l),
(642,564,ls),
(644,574,o),
(634,574,qs),
(513,574,ls),
(503,574,o),
(501,564,qs),
(448,264,ls),
(434,183,o),
(351,106,o),
(288,106,qs),
(160,106,o),
(187,257,qs),
(236,535,ls)
);
}
);
userData = {
assembly = "PUSHB[ ]	/* 6 values pushed */
16 1 2 0 1 76 
MPPEM[ ]	/* MeasurePixelPerEm */
PUSHB[ ]	/* 1 value pushed */
24 
LT[ ]	/* LessThan */
IF[ ]	/* If */
NPUSHB[ ]	/* 18 values pushed */
4 1 1 1 31 77 0 0 0 2 97 3 1 2 2 29 2 78 
ELSE[ ]	/* Else */
MPPEM[ ]	/* MeasurePixelPerEm */
PUSHB[ ]	/* 1 value pushed */
50 
LT[ ]	/* LessThan */
IF[ ]	/* If */
NPUSHB[ ]	/* 22 values pushed */
4 1 1 1 31 77 0 2 2 29 77 0 0 0 3 97 0 3 3 29 3 78 
ELSE[ ]	/* Else */
NPUSHB[ ]	/* 22 values pushed */
0 2 2 1 95 4 1 1 1 31 77 0 0 0 3 97 0 3 3 29 3 78 
EIF[ ]	/* EndIf */
EIF[ ]	/* EndIf */
PUSHB[ ]	/* 8 values pushed */
53 36 34 52 33 5 8 27 
CALL[ ]	/* CallFunction */";
};
width = 640;
}
);
note = u;
unicode = 117;
},
{
glyphname = v;
lastChange = "2022-10-20 15:44:45 +0000";
layers = (
{
layerId = m01;
shapes = (
{
closed = 1;
nodes = (
(49,568,o),
(44,561,o),
(45,556,qs),
(164,38,ls),
(168,21,o),
(202,0,o),
(226,0,qs),
(272,0,ls),
(296,0,o),
(338,21,o),
(348,38,qs),
(649,556,ls),
(652,561,o),
(649,568,o),
(644,568,qs),
(550,568,ls),
(525,568,o),
(485,546,o),
(475,527,qs),
(302,218,ls),
(297,208,o),
(277,208,o),
(274,218,qs),
(210,527,ls),
(206,546,o),
(174,568,o),
(149,568,qs),
(54,568,ls)
);
}
);
userData = {
assembly = "NPUSHB[ ]	/* 33 values pushed */
2 4 2 0 0 31 77 0 1 1 3 97 0 3 3 29 3 78 1 0 21 18 12 10 6 5 0 27 1 26 5 8 22 
CALL[ ]	/* CallFunction */";
};
width = 598;
}
);
note = v;
unicode = 118;
},
{
glyphname = w;
lastChange = "2022-10-20 15:44:45 +0000";
layers = (
{
layerId = m01;
shapes = (
{
closed = 1;
nodes = (
(61,568,o),
(62,557,qs),
(139,40,ls),
(142,21,o),
(171,0,o),
(193,0,qs),
(230,0,ls),
(253,0,o),
(291,22,o),
(298,40,q),
(445,332,ls),
(449,338,o),
(462,338,o),
(461,332,q),
(505,40,ls),
(508,21,o),
(537,0,o),
(559,0,qs),
(596,0,ls),
(619,0,o),
(657,22,o),
(664,40,q),
(924,557,ls),
(929,568,o),
(918,568,qs),
(839,568,ls),
(818,568,o),
(781,547,o),
(772,527,qs),
(625,223,l),
(623,217,o),
(610,217,o),
(609,223,qs),
(570,527,l),
(569,546,o),
(541,567,o),
(521,568,qs),
(464,568,l),
(445,565,o),
(413,544,o),
(406,527,q),
(259,223,l),
(257,217,o),
(244,217,o),
(243,223,qs),
(204,527,l),
(203,546,o),
(172,568,o),
(151,568,qs),
(72,568,ls)
);
}
);
userData = {
assembly = "NPUSHB[ ]	/* 32 values pushed */
2 1 5 3 0 0 31 77 4 1 3 3 29 3 78 1 0 44 41 32 29 25 22 13 11 0 49 1 48 6 8 22 
CALL[ ]	/* CallFunction */";
};
width = 854;
}
);
note = w;
unicode = 119;
},
{
glyphname = x;
lastChange = "2022-10-20 15:44:45 +0000";
layers = (
{
layerId = m01;
shapes = (
{
closed = 1;
nodes = (
(321,9,o),
(342,0,o),
(352,0,qs),
(469,0,ls),
(477,0,o),
(486,13,o),
(483,19,qs),
(359,275,ls),
(356,280,o),
(359,294,o),
(363,298,q),
(575,549,ls),
(581,556,o),
(576,568,o),
(568,568,qs),
(459,568,ls),
(448,568,o),
(424,557,o),
(416,550,q),
(316,426,ls),
(309,417,o),
(289,415,o),
(285,425,qs),
(223,553,ls),
(220,559,o),
(199,568,o),
(189,568,qs),
(72,568,ls),
(64,568,o),
(55,555,o),
(58,549,qs),
(182,293,ls),
(185,288,o),
(182,274,o),
(178,270,q),
(-35,19,ls),
(-40,13,o),
(-35,0,o),
(-27,0,qs),
(81,0,ls),
(92,0,o),
(116,11,o),
(124,18,q),
(225,143,ls),
(232,152,o),
(252,153,o),
(256,143,qs),
(318,15,ls)
);
}
);
userData = {
assembly = "NPUSHB[ ]	/* 29 values pushed */
0 0 2 1 2 0 1 128 3 1 2 2 31 77 4 1 1 1 29 1 78 58 41 58 36 17 5 8 27 
CALL[ ]	/* CallFunction */";
};
width = 533;
}
);
note = x;
unicode = 120;
},
{
glyphname = y;
lastChange = "2022-10-20 15:44:45 +0000";
layers = (
{
layerId = m01;
shapes = (
{
closed = 1;
nodes = (
(306,210,o),
(286,210,o),
(284,220,qs),
(213,562,l),
(213,568,o),
(206,568,qs),
(65,568,ls),
(58,568,o),
(50,558,o),
(51,552,qs),
(178,6,l),
(10,-278,l),
(166,-278,l),
(654,552,ls),
(657,558,o),
(653,568,o),
(646,568,qs),
(512,568,ls),
(506,568,o),
(503,562,qs),
(312,220,ls)
);
}
);
userData = {
assembly = "NPUSHB[ ]	/* 33 values pushed */
9 1 1 3 1 76 0 3 0 1 0 3 1 128 2 1 0 0 31 77 0 1 1 33 1 78 20 36 20 18 4 8 26 
CALL[ ]	/* CallFunction */";
};
width = 563;
}
);
note = y;
unicode = 121;
},
{
glyphname = z;
lastChange = "2022-10-20 15:44:45 +0000";
layers = (
{
layerId = m01;
shapes = (
{
closed = 1;
nodes = (
(489,553,o),
(468,568,o),
(452,568,qs),
(73,568,ls),
(63,568,o),
(61,558,qs),
(53,511,ls),
(49,489,o),
(80,458,o),
(109,458,qs),
(268,458,ls),
(276,458,o),
(280,445,o),
(275,439,qs),
(-15,103,l),
(-23,89,o),
(-24,85,qs),
(-34,29,ls),
(-36,15,o),
(-15,0,o),
(1,0,qs),
(384,0,ls),
(394,0,o),
(396,10,qs),
(404,58,ls),
(408,80,o),
(377,111,o),
(348,111,qs),
(184,111,ls),
(176,111,o),
(171,124,o),
(177,130,qs),
(468,466,l),
(477,480,o),
(477,484,qs),
(487,539,ls)
);
}
);
userData = {
assembly = "NPUSHB[ ]	/* 38 values pushed */
0 1 2 3 18 1 1 0 2 76 0 2 2 3 95 0 3 3 31 77 0 0 0 1 95 0 1 1 29 1 78 52 56 52 53 4 8 26 
CALL[ ]	/* CallFunction */";
};
width = 477;
}
);
note = z;
unicode = 122;
},
{
glyphname = braceleft;
lastChange = "2022-10-20 15:44:45 +0000";
layers = (
{
layerId = m01;
shapes = (
{
closed = 1;
nodes = (
(290,405,o),
(332,470,o),
(339,511,qs),
(347,555,o),
(354,651,qs),
(357,686,o),
(364,757,o),
(368,780,qs),
(374,818,o),
(405,845,o),
(436,845,qs),
(487,845,ls),
(497,845,o),
(499,855,qs),
(513,934,ls),
(515,944,o),
(505,944,qs),
(437,944,ls),
(362,944,o),
(253,863,o),
(240,786,qs),
(232,742,o),
(225,644,qs),
(218,552,o),
(212,514,qs),
(205,477,o),
(163,431,o),
(121,421,qs),
(108,418,o),
(90,400,o),
(88,388,qs),
(82,359,ls),
(80,347,o),
(92,329,o),
(105,326,qs),
(143,316,o),
(169,270,o),
(162,233,qs),
(156,195,o),
(129,103,qs),
(102,5,o),
(94,-39,qs),
(81,-116,o),
(160,-197,o),
(235,-197,qs),
(303,-197,ls),
(313,-197,o),
(315,-187,qs),
(329,-108,ls),
(331,-98,o),
(321,-98,qs),
(270,-98,ls),
(239,-98,o),
(218,-71,o),
(224,-33,qs),
(228,-10,o),
(247,61,o),
(256,96,qs),
(283,192,o),
(291,236,qs),
(298,277,o),
(278,342,o),
(251,361,qs),
(241,369,o),
(243,380,o),
(255,387,qs)
);
}
);
userData = {
assembly = "NPUSHB[ ]	/* 33 values pushed */
0 2 0 3 0 2 3 105 0 0 1 1 0 89 0 0 0 1 97 0 1 0 1 81 55 52 49 46 51 60 4 8 24 
CALL[ ]	/* CallFunction */";
};
width = 462;
}
);
note = braceleft;
unicode = 123;
},
{
glyphname = bar;
lastChange = "2022-10-20 15:44:45 +0000";
layers = (
{
layerId = m01;
shapes = (
{
closed = 1;
nodes = (
(161,805,l),
(-1,-116,l),
(130,-116,l),
(292,805,l)
);
}
);
userData = {
assembly = "NPUSHB[ ]	/* 21 values pushed */
0 1 0 0 1 87 0 1 1 0 95 0 0 1 0 79 17 16 2 8 24 
CALL[ ]	/* CallFunction */";
};
width = 291;
}
);
note = bar;
unicode = 124;
},
{
glyphname = braceright;
lastChange = "2022-10-20 15:44:45 +0000";
layers = (
{
layerId = m01;
shapes = (
{
closed = 1;
nodes = (
(258,380,o),
(256,369,o),
(244,361,qs),
(209,342,o),
(167,277,o),
(160,236,qs),
(152,192,o),
(145,96,qs),
(142,61,o),
(135,-10,o),
(131,-33,qs),
(125,-71,o),
(94,-98,o),
(63,-98,qs),
(12,-98,ls),
(2,-98,o),
(0,-108,qs),
(-14,-187,ls),
(-16,-197,o),
(-6,-197,qs),
(62,-197,ls),
(137,-197,o),
(246,-116,o),
(259,-39,qs),
(267,5,o),
(274,103,qs),
(281,195,o),
(287,233,qs),
(294,270,o),
(336,316,o),
(378,326,qs),
(391,329,o),
(409,347,o),
(411,359,qs),
(417,388,ls),
(419,400,o),
(407,418,o),
(394,421,qs),
(356,431,o),
(330,477,o),
(337,514,qs),
(343,552,o),
(370,644,qs),
(397,742,o),
(405,786,qs),
(418,863,o),
(339,944,o),
(264,944,qs),
(196,944,ls),
(186,944,o),
(184,934,qs),
(170,855,ls),
(168,845,o),
(178,845,qs),
(229,845,ls),
(260,845,o),
(281,818,o),
(275,780,qs),
(271,757,o),
(252,686,o),
(243,651,qs),
(216,555,o),
(208,511,qs),
(201,470,o),
(221,405,o),
(248,387,qs)
);
}
);
userData = {
assembly = "NPUSHB[ ]	/* 33 values pushed */
0 1 0 0 3 1 0 105 0 3 2 2 3 89 0 3 3 2 97 0 2 3 2 81 52 49 46 43 51 57 4 8 24 
CALL[ ]	/* CallFunction */";
};
width = 462;
}
);
note = braceright;
unicode = 125;
},
{
glyphname = asciitilde;
lastChange = "2022-10-20 15:44:45 +0000";
layers = (
{
layerId = m01;
shapes = (
{
closed = 1;
nodes = (
(107,238,o),
(111,247,qs),
(130,303,o),
(169,303,qs),
(181,303,o),
(203,291,o),
(219,279,qs),
(243,259,o),
(290,237,o),
(325,237,qs),
(391,237,o),
(487,315,o),
(513,391,qs),
(515,396,o),
(511,403,o),
(506,403,qs),
(419,403,ls),
(411,403,o),
(407,394,qs),
(389,338,o),
(350,338,qs),
(339,338,o),
(318,349,o),
(302,362,qs),
(277,382,o),
(229,404,o),
(193,404,qs),
(128,404,o),
(32,326,o),
(5,251,qs),
(3,246,o),
(8,238,o),
(13,238,qs),
(99,238,ls)
);
}
);
userData = {
assembly = "PUSHB[ ]	/* 2 values pushed */
6 100 
WCVTP[ ]	/* WriteCVTInPixels */
NPUSHB[ ]	/* 41 values pushed */
0 1 4 3 1 89 2 1 0 0 4 3 0 4 105 0 1 1 3 98 6 5 2 3 1 3 82 0 0 0 33 0 32 36 37 34 36 37 7 8 27 
CALL[ ]	/* CallFunction */
PUSHB[ ]	/* 2 values pushed */
6 0 
WCVTP[ ]	/* WriteCVTInPixels */";
};
width = 519;
}
);
note = asciitilde;
unicode = 126;
},
{
glyphname = exclamdown;
lastChange = "2022-10-20 15:44:45 +0000";
layers = (
{
layerId = m01;
shapes = (
{
closed = 1;
nodes = (
(134,361,l),
(210,361,l),
(133,-139,l),
(35,-139,l)
);
},
{
closed = 1;
nodes = (
(256,476,o),
(215,440,o),
(190,440,qs),
(164,440,o),
(134,476,o),
(139,502,qs),
(144,528,o),
(186,564,o),
(212,564,qs),
(237,564,o),
(266,528,o),
(261,502,qs)
);
}
);
userData = {
assembly = "NPUSHB[ ]	/* 33 values pushed */
0 0 4 1 1 0 1 99 0 3 3 2 97 0 2 2 31 3 78 0 0 13 11 7 5 0 3 0 3 17 5 8 23 
CALL[ ]	/* CallFunction */";
};
width = 298;
}
);
note = exclamdown;
unicode = 161;
},
{
glyphname = cent;
lastChange = "2022-10-20 15:44:45 +0000";
layers = (
{
layerId = m01;
shapes = (
{
closed = 1;
nodes = (
(438,135,o),
(351,80,o),
(290,80,qs),
(214,80,o),
(136,176,o),
(151,262,qs),
(166,348,o),
(278,445,o),
(354,445,qs),
(415,445,o),
(482,389,o),
(485,341,q),
(570,341,l),
(574,414,o),
(478,512,o),
(392,519,q),
(409,611,l),
(355,611,l),
(338,519,l),
(229,510,o),
(84,369,o),
(65,262,qs),
(46,155,o),
(141,14,o),
(248,5,q),
(231,-89,l),
(285,-89,l),
(302,5,l),
(390,12,o),
(520,110,o),
(542,184,q),
(457,184,l)
);
}
);
userData = {
assembly = "NPUSHB[ ]	/* 66 values pushed */
15 12 2 3 1 6 3 2 0 4 2 76 0 2 3 5 3 2 5 128 6 1 5 4 3 5 4 126 0 1 0 3 2 1 3 105 0 4 0 0 4 89 0 4 4 0 95 0 0 4 0 79 0 0 0 31 0 31 36 34 20 24 20 7 8 27 
CALL[ ]	/* CallFunction */";
};
width = 665;
}
);
note = cent;
unicode = 162;
},
{
glyphname = sterling;
lastChange = "2022-10-20 15:44:45 +0000";
layers = (
{
layerId = m01;
shapes = (
{
closed = 1;
nodes = (
(128,470,o),
(131,407,o),
(137,372,q),
(46,372,l),
(35,308,l),
(148,308,l),
(151,272,o),
(146,246,qs),
(135,183,o),
(79,97,o),
(29,50,q),
(35,-2,l),
(481,-2,l),
(495,74,l),
(131,74,l),
(215,151,o),
(232,246,qs),
(237,272,o),
(234,308,q),
(408,308,l),
(419,372,l),
(225,372,l),
(218,412,o),
(215,471,o),
(221,504,qs),
(233,574,o),
(318,642,o),
(376,642,qs),
(439,642,o),
(493,570,o),
(485,511,q),
(569,511,l),
(581,601,o),
(492,719,o),
(390,719,qs),
(326,719,o),
(217,667,o),
(146,572,o),
(134,508,qs)
);
}
);
userData = {
assembly = "NPUSHB[ ]	/* 57 values pushed */
27 1 6 5 1 76 0 1 2 3 2 1 3 128 8 1 3 7 1 4 5 3 4 103 0 2 2 0 97 0 0 0 28 77 0 5 5 6 95 0 6 6 29 6 78 17 22 17 20 17 21 34 18 34 9 8 31 
CALL[ ]	/* CallFunction */";
};
width = 620;
}
);
note = sterling;
unicode = 163;
},
{
glyphname = currency;
lastChange = "2022-10-20 15:44:45 +0000";
layers = (
{
layerId = m01;
shapes = (
{
closed = 1;
nodes = (
(359,322,o),
(288,259,o),
(246,259,qs),
(203,259,o),
(158,321,o),
(168,377,qs),
(178,433,o),
(246,496,o),
(288,496,qs),
(331,496,o),
(379,432,o),
(369,377,qs)
);
},
{
closed = 1;
nodes = (
(444,212,l),
(395,271,l),
(435,317,o),
(446,377,qs),
(457,440,o),
(432,484,q),
(502,544,l),
(469,586,l),
(397,525,l),
(358,554,o),
(299,554,qs),
(240,554,o),
(192,525,q),
(142,586,l),
(92,544,l),
(143,484,l),
(103,439,o),
(92,377,qs),
(81,317,o),
(103,271,q),
(34,212,l),
(68,170,l),
(138,229,l),
(176,200,o),
(236,200,qs),
(294,200,o),
(346,230,q),
(395,170,l)
);
}
);
userData = {
assembly = "NPUSHB[ ]	/* 32 values pushed */
32 30 26 24 4 0 3 37 33 23 19 4 1 0 38 18 16 3 2 1 3 76 31 25 2 3 74 39 17 2 2 73 
MPPEM[ ]	/* MeasurePixelPerEm */
PUSHB[ ]	/* 1 value pushed */
36 
LT[ ]	/* LessThan */
IF[ ]	/* If */
NPUSHB[ ]	/* 18 values pushed */
0 1 0 2 1 2 101 0 0 0 3 97 0 3 3 31 0 78 
ELSE[ ]	/* Else */
NPUSHB[ ]	/* 24 values pushed */
0 3 0 0 1 3 0 105 0 1 2 2 1 89 0 1 1 2 97 0 2 1 2 81 
EIF[ ]	/* EndIf */
PUSHB[ ]	/* 7 values pushed */
44 36 36 33 4 8 26 
CALL[ ]	/* CallFunction */";
};
width = 537;
}
);
note = currency;
unicode = 164;
},
{
glyphname = yen;
lastChange = "2022-10-20 15:44:45 +0000";
layers = (
{
layerId = m01;
shapes = (
{
closed = 1;
nodes = (
(238,263,l),
(231,224,l),
(31,224,l),
(19,157,l),
(219,157,l),
(192,0,l),
(283,0,l),
(310,157,l),
(510,157,l),
(522,224,l),
(322,224,l),
(329,263,l),
(365,315,l),
(538,317,l),
(550,383,l),
(413,383,l),
(632,697,l),
(530,697,l),
(297,345,l),
(188,697,l),
(86,697,l),
(196,383,l),
(59,383,l),
(47,317,l),
(219,315,l)
);
}
);
userData = {
assembly = "NPUSHB[ ]	/* 11 values pushed */
5 1 4 0 23 12 2 5 4 2 76 
MPPEM[ ]	/* MeasurePixelPerEm */
PUSHB[ ]	/* 1 value pushed */
25 
LT[ ]	/* LessThan */
IF[ ]	/* If */
NPUSHB[ ]	/* 33 values pushed */
3 1 0 11 10 2 4 5 0 4 104 9 1 5 8 1 6 7 5 6 103 2 1 1 1 28 77 0 7 7 29 7 78 
ELSE[ ]	/* Else */
NPUSHB[ ]	/* 33 values pushed */
2 1 1 0 1 133 3 1 0 11 10 2 4 5 0 4 104 9 1 5 8 1 6 7 5 6 103 0 7 7 29 7 78 
EIF[ ]	/* EndIf */
NPUSHB[ ]	/* 20 values pushed */
0 0 0 24 0 24 22 21 17 17 17 18 17 17 18 17 17 12 8 31 
CALL[ ]	/* CallFunction */";
};
width = 595;
}
);
note = yen;
unicode = 165;
},
{
glyphname = brokenbar;
lastChange = "2022-10-20 15:44:45 +0000";
layers = (
{
layerId = m01;
shapes = (
{
closed = 1;
nodes = (
(87,273,l),
(21,-106,l),
(112,-106,l),
(178,273,l)
);
},
{
closed = 1;
nodes = (
(204,417,l),
(270,795,l),
(179,795,l),
(113,417,l)
);
}
);
userData = {
assembly = "NPUSHB[ ]	/* 31 values pushed */
0 2 0 3 1 2 3 103 0 1 0 0 1 87 0 1 1 0 95 0 0 1 0 79 17 17 17 16 4 8 26 
CALL[ ]	/* CallFunction */";
};
width = 291;
}
);
note = brokenbar;
unicode = 166;
},
{
glyphname = section;
lastChange = "2022-10-20 15:44:45 +0000";
layers = (
{
layerId = m01;
shapes = (
{
closed = 1;
nodes = (
(120,508,o),
(166,445,o),
(213,420,q),
(142,401,o),
(56,314,o),
(46,258,qs),
(34,188,o),
(118,104,o),
(214,70,qs),
(274,49,o),
(336,16,o),
(359,-21,o),
(354,-46,qs),
(347,-89,o),
(280,-132,o),
(226,-132,qs),
(169,-132,o),
(120,-76,o),
(124,-31,q),
(33,-31,l),
(21,-109,o),
(123,-196,o),
(215,-196,qs),
(277,-196,o),
(377,-154,o),
(439,-82,o),
(447,-39,qs),
(455,8,o),
(409,72,o),
(362,95,q),
(434,116,o),
(519,202,o),
(529,258,qs),
(541,328,o),
(456,412,o),
(361,445,qs),
(301,466,o),
(239,500,o),
(216,537,o),
(221,563,qs),
(228,604,o),
(296,647,o),
(350,647,qs),
(407,647,o),
(456,590,o),
(451,546,q),
(542,546,l),
(554,624,o),
(453,712,o),
(361,712,qs),
(298,712,o),
(198,670,o),
(136,598,o),
(128,555,qs)
);
},
{
closed = 1;
nodes = (
(428,210,o),
(337,143,o),
(270,143,qs),
(201,143,o),
(130,209,o),
(139,258,qs),
(147,306,o),
(238,372,o),
(306,372,qs),
(374,372,o),
(445,308,o),
(436,258,qs)
);
}
);
userData = {
assembly = "NPUSHB[ ]	/* 73 values pushed */
50 1 6 1 23 1 4 7 2 76 0 1 2 6 2 1 6 128 0 6 7 2 6 7 126 0 7 4 2 7 4 126 0 4 5 2 4 5 126 0 5 0 3 5 3 102 0 2 2 0 97 0 0 0 28 2 78 63 61 57 55 38 36 34 33 31 29 34 18 34 8 8 25 
CALL[ ]	/* CallFunction */";
};
width = 575;
}
);
note = section;
unicode = 167;
},
